<?xml version="1.0" standalone="no"?>
<!DOCTYPE svg PUBLIC "-//W3C//DTD SVG 20010904//EN"
 "http://www.w3.org/TR/2001/REC-SVG-20010904/DTD/svg10.dtd">
<svg version="1.0" xmlns="http://www.w3.org/2000/svg"
 width="1024.000000pt" height="1024.000000pt" viewBox="0 0 1024.000000 1024.000000"
 preserveAspectRatio="xMidYMid meet">
<metadata>
Created by potrace 1.14, written by Peter Selinger 2001-2017
</metadata>
<g transform="translate(0.000000,1024.000000) scale(0.100000,-0.100000)"
fill="#000000" stroke="none">
<path d="M5115 10220 c3 -5 3 -10 -2 -10 -4 0 -14 -15 -21 -32 -8 -18 -20 -45
-28 -60 -8 -16 -13 -28 -10 -28 3 0 -3 -17 -13 -37 -26 -51 -83 -176 -85 -188
-2 -5 -15 -37 -30 -70 -15 -33 -36 -80 -46 -105 -10 -25 -39 -90 -65 -145 -25
-55 -46 -102 -47 -105 0 -3 -11 -27 -23 -55 -13 -27 -37 -84 -55 -125 -18 -41
-40 -93 -50 -115 -10 -22 -44 -98 -75 -170 -32 -71 -64 -146 -73 -165 -9 -19
-16 -37 -17 -40 -1 -3 -8 -21 -17 -40 -8 -19 -34 -78 -58 -130 -23 -52 -51
-115 -62 -140 -20 -45 -43 -97 -58 -135 -5 -11 -25 -56 -45 -100 -21 -44 -38
-84 -39 -90 -1 -5 -13 -32 -25 -60 -67 -145 -79 -173 -91 -207 -8 -21 -17 -38
-20 -38 -4 0 -7 -6 -7 -12 0 -7 -9 -33 -21 -58 -11 -25 -39 -88 -62 -140 -23
-52 -52 -115 -63 -140 -11 -25 -21 -49 -22 -55 -2 -5 -18 -44 -38 -85 -19 -41
-40 -92 -48 -112 -7 -21 -17 -38 -21 -38 -4 0 -8 -6 -8 -14 0 -7 -16 -49 -35
-92 -20 -44 -40 -88 -44 -99 -5 -11 -24 -51 -41 -90 -18 -38 -33 -74 -35 -80
-1 -5 -11 -31 -23 -58 -12 -26 -22 -49 -22 -52 -1 -2 -21 -47 -45 -99 -24 -52
-42 -102 -40 -113 2 -10 4 -18 5 -18 1 0 3 -8 5 -17 2 -10 17 -59 33 -110 17
-51 44 -138 61 -193 17 -55 42 -134 56 -175 13 -41 43 -136 65 -210 23 -74 45
-144 49 -155 5 -11 13 -36 19 -55 41 -139 85 -279 94 -300 6 -14 12 -34 14
-45 1 -11 17 -63 34 -115 18 -52 33 -99 34 -105 2 -5 6 -17 9 -25 8 -22 29
-89 31 -103 1 -7 19 -64 40 -127 21 -63 39 -119 40 -125 1 -5 9 -32 18 -60 9
-27 35 -111 58 -185 23 -74 44 -142 47 -150 3 -8 7 -19 9 -25 8 -27 69 -222
129 -410 36 -115 67 -214 69 -220 1 -5 12 -39 23 -75 12 -36 45 -139 73 -230
28 -91 74 -237 102 -325 60 -190 106 -337 120 -385 6 -19 14 -44 19 -55 9 -24
91 -285 95 -302 3 -15 34 -113 42 -133 3 -8 7 -19 7 -25 1 -5 5 -17 8 -25 6
-15 70 -221 72 -230 2 -11 67 -217 77 -242 5 -15 10 -31 10 -35 0 -4 6 -24 14
-43 8 -19 14 -35 13 -35 -1 0 7 -28 17 -63 10 -34 22 -62 26 -62 4 0 10 16 14
35 3 19 10 38 15 41 5 3 7 9 4 14 -3 4 2 21 10 36 8 16 15 34 15 40 0 6 18 67
40 135 22 68 42 133 45 144 5 25 34 113 45 140 11 25 49 153 55 183 2 12 7 28
12 35 4 6 8 17 9 22 1 6 18 61 38 123 20 62 37 120 39 130 1 9 6 23 10 29 5 7
10 21 12 30 2 10 17 62 35 116 17 54 33 107 35 118 2 10 7 24 10 29 4 6 9 22
11 37 3 15 8 31 12 37 3 6 7 16 8 21 1 6 9 30 17 55 8 25 31 99 52 165 20 66
39 127 42 135 3 8 7 20 8 25 5 21 38 122 51 158 8 20 11 37 9 37 -3 0 0 10 7
23 6 12 13 27 14 32 1 6 13 47 28 93 14 46 26 90 26 98 0 7 4 14 9 14 6 0 9 8
9 18 -1 9 10 49 23 87 13 39 24 72 24 75 1 7 25 82 32 100 3 8 7 20 8 25 5 19
66 220 72 235 4 8 7 17 8 20 1 3 4 12 8 20 3 8 13 42 22 75 9 33 19 67 22 75
3 8 7 17 8 20 1 3 4 12 7 20 7 21 51 162 55 178 6 24 10 37 16 52 3 8 22 69
42 135 21 66 41 129 45 140 6 16 61 188 65 205 1 3 7 25 15 50 7 25 14 50 16
55 1 6 8 24 15 40 7 17 12 33 11 37 -1 4 4 25 12 45 8 21 31 92 51 158 20 66
48 152 61 190 14 39 27 78 29 88 2 10 7 27 10 37 3 10 8 27 10 37 2 10 24 79
48 153 62 190 119 369 121 383 1 7 5 17 8 23 8 12 19 59 22 93 2 21 -31 103
-122 301 -9 19 -17 37 -17 40 -1 3 -9 22 -18 43 -9 20 -25 54 -34 75 -9 20
-17 39 -18 42 0 3 -9 23 -19 45 -34 76 -59 130 -67 150 -4 11 -26 60 -49 109
-22 49 -40 95 -40 102 0 8 -5 14 -10 14 -6 0 -9 3 -8 8 1 8 -6 26 -47 117 -35
78 -48 109 -49 115 -1 3 -9 21 -18 40 -16 35 -49 109 -73 165 -7 17 -24 55
-38 85 -14 30 -45 102 -70 160 -25 58 -59 135 -76 172 -17 36 -31 68 -31 71 0
3 -16 40 -35 84 -55 120 -62 135 -78 173 -8 19 -25 58 -37 85 -13 28 -37 84
-55 125 -18 41 -43 98 -56 125 -12 28 -23 52 -24 55 0 3 -11 27 -23 54 -12 27
-22 51 -22 53 0 3 -13 33 -29 67 -25 52 -49 106 -56 126 -1 3 -12 28 -24 55
-12 28 -26 59 -31 70 -5 11 -27 60 -50 108 -22 49 -40 95 -40 103 0 8 -4 14
-10 14 -5 0 -10 7 -10 15 0 8 -4 23 -9 33 -19 35 -51 112 -51 122 0 5 -4 10
-10 10 -5 0 -10 6 -10 13 0 13 -77 196 -90 212 -4 6 -17 35 -28 65 -28 76 -46
110 -55 110 -5 0 -5 -4 -2 -10z"/>
<path d="M473 7728 c4 -13 36 -120 43 -148 2 -8 11 -40 19 -70 9 -30 18 -64
20 -74 3 -11 11 -40 19 -65 7 -25 18 -64 24 -86 12 -44 39 -138 73 -255 12
-41 23 -82 24 -90 1 -8 5 -22 8 -30 4 -8 13 -40 21 -70 8 -30 26 -92 39 -137
14 -46 22 -83 20 -83 -3 0 0 -7 7 -15 7 -8 10 -15 7 -15 -4 0 0 -18 8 -40 8
-22 12 -40 8 -40 -3 0 -1 -6 5 -13 6 -7 12 -24 14 -37 2 -14 6 -29 9 -35 4 -5
12 -35 19 -65 7 -30 17 -61 23 -67 5 -7 7 -13 4 -13 -4 0 0 -18 8 -40 8 -22
12 -40 10 -40 -2 0 4 -20 15 -44 10 -24 16 -47 13 -49 -3 -3 -1 -12 3 -19 5
-7 9 -17 10 -23 1 -5 12 -43 24 -84 12 -41 23 -81 26 -90 4 -16 11 -42 79
-271 20 -69 38 -132 40 -140 2 -8 18 -62 35 -120 17 -58 33 -112 35 -120 2 -8
11 -40 20 -70 9 -30 20 -68 24 -85 5 -16 16 -55 25 -85 9 -30 16 -59 17 -65 1
-5 6 -19 11 -30 6 -10 12 -26 13 -35 2 -18 15 -69 22 -90 7 -17 10 -28 17 -55
3 -11 17 -60 32 -110 14 -49 27 -94 29 -100 1 -5 5 -17 8 -25 4 -8 8 -24 10
-35 2 -11 7 -27 10 -35 4 -8 8 -24 10 -35 2 -11 10 -42 19 -70 28 -87 52 -170
49 -170 -1 0 3 -13 9 -30 7 -16 13 -37 15 -45 2 -8 9 -35 16 -60 7 -25 13 -47
14 -50 0 -3 6 -21 12 -40 6 -19 21 -69 33 -110 38 -133 70 -244 80 -274 5 -16
7 -33 4 -37 -3 -5 0 -9 5 -9 6 0 10 -3 10 -7 -1 -5 0 -10 1 -13 1 -3 3 -12 5
-20 10 -42 16 -60 35 -125 12 -38 23 -78 25 -88 2 -9 6 -21 9 -25 3 -5 7 -19
9 -33 3 -13 17 -63 31 -111 15 -48 29 -95 31 -105 2 -10 17 -63 34 -118 17
-55 31 -101 31 -102 0 -2 0 -4 1 -5 0 -2 2 -10 4 -18 2 -8 15 -53 30 -100 14
-47 28 -94 30 -105 2 -11 8 -33 15 -50 6 -16 11 -31 11 -32 0 -2 1 -8 4 -15 6
-19 65 -230 70 -248 2 -8 8 -28 15 -45 6 -16 11 -30 10 -30 -3 0 13 -60 18
-70 4 -5 7 -16 8 -25 0 -8 9 -42 20 -75 10 -33 19 -62 19 -65 8 -32 28 -100
35 -120 6 -14 11 -34 13 -45 2 -11 6 -27 9 -35 18 -52 46 -154 49 -175 0 -5 6
-19 12 -30 6 -11 11 -29 12 -40 1 -11 5 -27 8 -35 6 -14 58 -191 97 -330 10
-36 30 -108 45 -160 15 -52 30 -102 35 -110 4 -9 11 -35 15 -58 4 -23 11 -42
16 -42 6 0 8 -4 5 -8 -3 -5 9 -55 26 -113 17 -57 31 -108 33 -114 1 -5 5 -17
8 -25 5 -13 19 -66 21 -80 1 -3 7 -25 15 -50 21 -69 22 -75 22 -77 0 -2 6 -21
14 -44 15 -42 22 -69 32 -123 13 -66 18 7 17 223 -1 126 -5 234 -9 240 -3 6
-2 11 4 11 6 0 6 11 1 30 -5 17 -6 30 -2 30 4 0 5 36 2 81 -3 44 -2 83 1 85 3
2 3 25 -1 51 -5 27 -4 49 1 51 5 2 6 8 3 14 -6 9 -12 738 -17 2050 -1 241 -6
438 -10 438 -5 0 -5 5 -1 12 10 16 11 194 2 231 -4 15 -3 27 1 27 5 0 6 15 4
33 -3 17 -4 38 -4 45 0 6 1 33 1 60 -1 82 1 106 5 110 2 2 0 15 -5 28 -6 16
-6 24 1 24 6 0 7 5 4 11 -4 5 -9 376 -11 822 -8 1484 -11 1728 -20 1736 -5 5
-133 80 -284 166 -344 197 -322 184 -405 230 -38 21 -72 41 -75 44 -3 4 -30
19 -60 35 -30 16 -57 32 -60 35 -3 3 -34 21 -70 40 -36 19 -93 51 -126 71 -34
20 -75 43 -93 51 -17 8 -31 17 -31 21 0 5 -5 8 -10 8 -6 0 -40 18 -76 40 -36
22 -70 40 -75 40 -5 0 -9 5 -9 10 0 6 -5 10 -11 10 -7 0 -44 19 -83 41 -39 23
-87 51 -106 62 -19 11 -57 33 -85 49 -27 16 -58 32 -67 35 -10 3 -18 9 -18 14
0 5 -5 9 -10 9 -9 0 -35 14 -138 75 -10 6 -69 39 -132 74 -63 36 -117 68 -120
71 -3 4 -13 10 -24 13 -12 5 -17 3 -13 -5z"/>
<path d="M9725 7717 c-22 -12 -42 -25 -45 -28 -3 -3 -18 -12 -35 -21 -16 -8
-122 -68 -235 -133 -113 -65 -221 -127 -240 -137 -19 -11 -44 -25 -55 -31 -33
-20 -246 -142 -295 -169 -25 -14 -105 -60 -178 -102 -73 -42 -141 -80 -150
-83 -9 -4 -19 -10 -22 -13 -4 -6 -389 -226 -485 -279 -16 -8 -37 -21 -45 -27
-8 -7 -37 -24 -65 -39 -27 -14 -77 -42 -110 -61 -33 -19 -68 -38 -77 -41 -10
-3 -18 -9 -18 -13 0 -4 -15 -14 -32 -21 -18 -7 -39 -19 -47 -27 -15 -15 -15
48 -25 -2014 -2 -516 -7 -942 -11 -948 -3 -5 -2 -10 3 -10 6 0 7 -13 3 -33 -5
-18 -6 -41 -4 -52 4 -23 4 -45 0 -98 -1 -21 1 -41 5 -44 5 -2 5 -9 2 -15 -6
-9 -13 -1037 -17 -2440 -1 -362 -6 -658 -10 -658 -5 0 -5 -5 -1 -12 8 -13 10
-81 2 -94 -3 -5 -2 -18 3 -29 7 -17 8 -18 10 -2 2 20 4 27 12 47 6 15 67 226
71 245 1 6 5 16 9 23 5 6 5 12 1 12 -3 0 -1 7 6 15 7 8 10 15 7 15 -4 0 0 19
9 41 8 23 16 51 18 63 5 26 54 195 63 216 3 8 7 24 8 35 2 11 15 56 29 100 14
44 44 145 67 225 22 80 49 171 60 204 10 32 16 62 14 67 -3 4 -1 10 4 13 5 3
12 23 16 43 4 21 10 42 13 48 4 5 7 15 8 20 1 6 16 60 34 120 17 61 33 117 35
125 5 16 20 68 80 270 20 69 38 132 40 141 2 8 22 78 45 155 22 76 43 146 45
154 4 16 38 136 61 213 28 94 45 152 49 168 2 9 13 47 24 85 11 38 21 72 21
76 0 4 7 26 15 49 9 23 17 51 19 63 7 31 85 298 92 316 4 8 8 20 9 25 2 18 17
68 48 170 17 55 31 105 32 110 0 6 7 30 15 55 7 25 14 50 16 57 3 18 44 155
52 173 3 8 7 22 8 30 1 8 21 78 44 155 22 77 43 147 45 155 2 8 8 27 14 43 6
15 8 27 5 27 -4 0 0 7 7 17 8 9 12 17 10 17 -5 1 14 83 26 116 8 19 11 32 16
50 2 8 12 42 22 75 10 33 20 65 21 70 1 6 8 30 15 55 7 25 13 48 15 53 1 4 2
8 4 10 1 1 3 10 5 19 2 10 13 49 25 88 12 39 23 76 24 83 2 7 6 19 9 27 3 8 9
29 13 45 4 17 8 35 10 40 1 6 21 73 44 150 23 77 48 165 56 195 8 30 27 93 41
139 14 47 26 89 27 95 1 6 5 17 9 24 5 6 5 12 1 12 -3 0 -1 7 6 15 7 8 9 15 5
15 -4 0 -2 7 5 15 7 8 10 15 7 15 -3 0 -1 15 4 33 18 59 71 242 74 257 2 8 4
16 5 18 2 1 4 7 5 12 1 6 3 11 4 13 2 1 5 13 7 27 3 14 9 27 14 28 6 2 8 8 5
13 -3 5 4 41 16 81 12 40 21 74 20 76 -1 1 6 18 14 38 8 20 12 40 9 45 -3 5 0
9 7 9 7 0 10 3 6 6 -3 3 -2 18 3 32 20 62 52 174 55 190 2 9 4 18 5 20 2 1 3
5 4 10 1 4 5 16 9 27 3 11 8 31 11 45 2 14 9 36 14 50 5 14 10 28 11 33 0 4 1
8 2 10 0 1 2 9 4 17 1 8 15 56 30 105 14 50 29 101 32 115 7 36 9 43 16 60 6
14 74 254 82 290 2 8 8 30 14 48 5 17 7 32 4 32 -3 0 0 6 6 13 6 8 13 31 17
53 3 21 10 47 16 57 14 27 7 28 -37 4z"/>
<path d="M4245 788 c3 -128 7 -322 10 -431 2 -108 6 -201 10 -206 3 -5 2 -12
-3 -14 -4 -3 -6 -23 -4 -44 1 -21 4 -50 4 -65 l2 -27 388 0 c213 1 388 3 388
6 0 4 -47 69 -65 89 -12 14 -51 62 -133 168 -34 45 -70 90 -80 101 -10 11 -40
49 -67 85 -28 36 -53 67 -56 70 -3 3 -23 28 -44 55 -20 28 -40 52 -44 55 -3 3
-20 23 -36 45 -16 22 -35 47 -42 55 -24 31 -108 135 -115 145 -5 6 -33 41 -63
78 l-55 69 5 -234z"/>
<path d="M5984 994 c-10 -14 -24 -31 -29 -38 -6 -6 -67 -83 -135 -171 -69 -88
-130 -167 -137 -175 -22 -27 -183 -233 -222 -285 -21 -27 -55 -70 -75 -95 -20
-25 -40 -49 -44 -55 -46 -62 -80 -104 -99 -124 -48 -49 -51 -49 364 -47 l387
1 1 100 c0 55 4 106 8 113 5 6 5 12 0 12 -4 0 -7 30 -6 67 4 126 11 723 8 723
-1 0 -11 -12 -21 -26z"/>
</g>
</svg>
