<?xml version="1.0" encoding="UTF-8"?>
<svg id="Layer_2" data-name="Layer 2" xmlns="http://www.w3.org/2000/svg" viewBox="0 0 1409.82 1099.94">
  <defs>
    <style>
      .cls-1, .cls-2 {
        fill: #231f20;
      }

      .cls-2 {
        stroke: #231f20;
        stroke-miterlimit: 10;
        stroke-width: 10px;
      }
    </style>
  </defs>
  <g id="ROUTE">
    <g>
      <g>
        <path class="cls-2" d="m83.14,1070.02H12.5c-4.14,0-7.5,3.36-7.5,7.5s3.36,7.5,7.5,7.5h70.64c4.14,0,7.5-3.36,7.5-7.5s-3.36-7.5-7.5-7.5Z"/>
        <path class="cls-2" d="m284.55,1070.02h-133.78c-4.14,0-7.5,3.36-7.5,7.5s3.36,7.5,7.5,7.5h133.78c4.14,0,7.5-3.36,7.5-7.5s-3.36-7.5-7.5-7.5Z"/>
        <path class="cls-2" d="m848.45,1070.02H333.44c-4.14,0-7.5,3.36-7.5,7.5s3.36,7.5,7.5,7.5h515c4.14,0,7.5-3.36,7.5-7.5s-3.36-7.5-7.5-7.5Z"/>
      </g>
      <path class="cls-2" d="m808.62,430.62c-3.1,0-5.61,2.51-5.61,5.61v275.53c0,3.1,2.51,5.61,5.61,5.61s5.61-2.51,5.61-5.61v-275.53c0-3.1-2.51-5.61-5.61-5.61Z"/>
      <path class="cls-2" d="m1399.22,763.82h-703.76c-3.1,0-5.61,2.51-5.61,5.61s2.51,5.61,5.61,5.61h703.76c3.1,0,5.61-2.51,5.61-5.61s-2.51-5.61-5.61-5.61Z"/>
      <path class="cls-2" d="m1054.54,430.62h-287.46c-3.1,0-5.61,2.51-5.61,5.61s2.51,5.61,5.61,5.61h287.46c3.1,0,5.61-2.51,5.61-5.61s-2.51-5.61-5.61-5.61Z"/>
      <g>
        <g>
          <path class="cls-1" d="m904.48,475.57h-53.71c-3.1,0-5.61,2.51-5.61,5.61s2.51,5.61,5.61,5.61h53.71c3.1,0,5.61-2.51,5.61-5.61s-2.51-5.61-5.61-5.61Z"/>
          <path class="cls-1" d="m1013.88,475.57h-53.71c-3.1,0-5.61,2.51-5.61,5.61s2.51,5.61,5.61,5.61h53.71c3.1,0,5.61-2.51,5.61-5.61s-2.51-5.61-5.61-5.61Z"/>
        </g>
        <g>
          <path class="cls-1" d="m904.48,522.76h-53.71c-3.1,0-5.61,2.51-5.61,5.61s2.51,5.61,5.61,5.61h53.71c3.1,0,5.61-2.51,5.61-5.61s-2.51-5.61-5.61-5.61Z"/>
          <path class="cls-1" d="m1013.88,522.76h-53.71c-3.1,0-5.61,2.51-5.61,5.61s2.51,5.61,5.61,5.61h53.71c3.1,0,5.61-2.51,5.61-5.61s-2.51-5.61-5.61-5.61Z"/>
        </g>
        <g>
          <path class="cls-1" d="m904.48,569.96h-53.71c-3.1,0-5.61,2.51-5.61,5.61s2.51,5.61,5.61,5.61h53.71c3.1,0,5.61-2.51,5.61-5.61s-2.51-5.61-5.61-5.61Z"/>
          <path class="cls-1" d="m1013.88,569.96h-53.71c-3.1,0-5.61,2.51-5.61,5.61s2.51,5.61,5.61,5.61h53.71c3.1,0,5.61-2.51,5.61-5.61s-2.51-5.61-5.61-5.61Z"/>
        </g>
        <g>
          <path class="cls-1" d="m904.48,617.15h-53.71c-3.1,0-5.61,2.51-5.61,5.61s2.51,5.61,5.61,5.61h53.71c3.1,0,5.61-2.51,5.61-5.61s-2.51-5.61-5.61-5.61Z"/>
          <path class="cls-1" d="m1013.88,617.15h-53.71c-3.1,0-5.61,2.51-5.61,5.61s2.51,5.61,5.61,5.61h53.71c3.1,0,5.61-2.51,5.61-5.61s-2.51-5.61-5.61-5.61Z"/>
        </g>
        <g>
          <path class="cls-1" d="m904.48,664.35h-53.71c-3.1,0-5.61,2.51-5.61,5.61s2.51,5.61,5.61,5.61h53.71c3.1,0,5.61-2.51,5.61-5.61s-2.51-5.61-5.61-5.61Z"/>
          <path class="cls-1" d="m1013.88,664.35h-53.71c-3.1,0-5.61,2.51-5.61,5.61s2.51,5.61,5.61,5.61h53.71c3.1,0,5.61-2.51,5.61-5.61s-2.51-5.61-5.61-5.61Z"/>
        </g>
        <g>
          <path class="cls-1" d="m904.48,711.55h-53.71c-3.1,0-5.61,2.51-5.61,5.61s2.51,5.61,5.61,5.61h53.71c3.1,0,5.61-2.51,5.61-5.61s-2.51-5.61-5.61-5.61Z"/>
          <path class="cls-1" d="m1013.88,711.55h-53.71c-3.1,0-5.61,2.51-5.61,5.61s2.51,5.61,5.61,5.61h53.71c3.1,0,5.61-2.51,5.61-5.61s-2.51-5.61-5.61-5.61Z"/>
        </g>
      </g>
      <g>
        <path class="cls-2" d="m1056.03,296.82c-3.1,0-5.61,2.51-5.61,5.61v467c0,3.1,2.51,5.61,5.61,5.61s5.61-2.51,5.61-5.61v-467c0-3.1-2.51-5.61-5.61-5.61Z"/>
        <path class="cls-2" d="m1292.99,296.82c-3.1,0-5.61,2.51-5.61,5.61v333.46c0,3.1,2.51,5.61,5.61,5.61s5.61-2.51,5.61-5.61v-333.46c0-3.1-2.51-5.61-5.61-5.61Z"/>
        <path class="cls-2" d="m1292.99,709.5c-3.1,0-5.61,2.51-5.61,5.61v54.32c0,3.1,2.51,5.61,5.61,5.61s5.61-2.51,5.61-5.61v-54.32c0-3.1-2.51-5.61-5.61-5.61Z"/>
      </g>
      <path class="cls-2" d="m1325.59,296.08h-302.16c-3.1,0-5.61,2.51-5.61,5.61s2.51,5.61,5.61,5.61h302.16c3.1,0,5.61-2.51,5.61-5.61s-2.51-5.61-5.61-5.61Z"/>
      <g>
        <g>
          <path class="cls-1" d="m1124.8,352.06c-16.42,0-29.78,13.36-29.78,29.78v24.18c0,3.1,2.51,5.61,5.61,5.61h48.35c3.1,0,5.61-2.51,5.61-5.61v-24.18c0-16.42-13.36-29.78-29.78-29.78Zm18.57,48.35h-37.14v-18.57c0-10.24,8.33-18.57,18.57-18.57s18.57,8.33,18.57,18.57v18.57Z"/>
          <path class="cls-1" d="m1224.23,352.06c-16.42,0-29.78,13.36-29.78,29.78v24.18c0,3.1,2.51,5.61,5.61,5.61h48.35c3.1,0,5.61-2.51,5.61-5.61v-24.18c0-16.42-13.36-29.78-29.78-29.78Zm18.57,48.35h-37.14v-18.57c0-10.24,8.33-18.57,18.57-18.57s18.57,8.33,18.57,18.57v18.57Z"/>
        </g>
        <g>
          <path class="cls-1" d="m1124.8,449.9c-16.42,0-29.78,13.36-29.78,29.78v24.17c0,3.1,2.51,5.61,5.61,5.61h48.35c3.1,0,5.61-2.51,5.61-5.61v-24.17c0-16.42-13.36-29.78-29.78-29.78Zm18.57,48.35h-37.14v-18.57c0-10.24,8.33-18.57,18.57-18.57s18.57,8.33,18.57,18.57v18.57Z"/>
          <path class="cls-1" d="m1224.23,449.9c-16.42,0-29.78,13.36-29.78,29.78v24.17c0,3.1,2.51,5.61,5.61,5.61h48.35c3.1,0,5.61-2.51,5.61-5.61v-24.17c0-16.42-13.36-29.78-29.78-29.78Zm18.57,48.35h-37.14v-18.57c0-10.24,8.33-18.57,18.57-18.57s18.57,8.33,18.57,18.57v18.57Z"/>
        </g>
        <g>
          <path class="cls-1" d="m1124.8,547.74c-16.42,0-29.78,13.36-29.78,29.78v24.17c0,3.1,2.51,5.61,5.61,5.61h48.35c3.1,0,5.61-2.51,5.61-5.61v-24.17c0-16.42-13.36-29.78-29.78-29.78Zm18.57,48.35h-37.14v-18.57c0-10.24,8.33-18.57,18.57-18.57s18.57,8.33,18.57,18.57v18.57Z"/>
          <path class="cls-1" d="m1224.23,547.74c-16.42,0-29.78,13.36-29.78,29.78v24.17c0,3.1,2.51,5.61,5.61,5.61h48.35c3.1,0,5.61-2.51,5.61-5.61v-24.17c0-16.42-13.36-29.78-29.78-29.78Zm18.57,48.35h-37.14v-18.57c0-10.24,8.33-18.57,18.57-18.57s18.57,8.33,18.57,18.57v18.57Z"/>
        </g>
        <g>
          <path class="cls-1" d="m1124.8,645.58c-16.42,0-29.78,13.36-29.78,29.78v24.17c0,3.1,2.51,5.61,5.61,5.61h48.35c3.1,0,5.61-2.51,5.61-5.61v-24.17c0-16.42-13.36-29.78-29.78-29.78Zm18.57,48.35h-37.14v-18.57c0-10.24,8.33-18.57,18.57-18.57s18.57,8.33,18.57,18.57v18.57Z"/>
          <path class="cls-1" d="m1224.23,645.58c-16.42,0-29.78,13.36-29.78,29.78v24.17c0,3.1,2.51,5.61,5.61,5.61h48.35c3.1,0,5.61-2.51,5.61-5.61v-24.17c0-16.42-13.36-29.78-29.78-29.78Zm18.57,48.35h-37.14v-18.57c0-10.24,8.33-18.57,18.57-18.57s18.57,8.33,18.57,18.57v18.57Z"/>
        </g>
      </g>
      <path class="cls-1" d="m851.35,737.58c0-17.33-14.1-31.44-31.44-31.44-8.73,0-16.93,3.62-22.79,9.78-6.18-6.23-14.59-9.78-23.64-9.78-17.8,0-32.38,13.99-33.35,31.55-1.08-.11-2.18-.16-3.27-.16-16.4,0-30.6,12.22-33.03,28.42-.46,3.06,1.65,5.91,4.71,6.37.28.04.56.06.84.06,2.73,0,5.12-2,5.54-4.78,1.61-10.76,11.04-18.87,21.94-18.87,2.55,0,5.05.43,7.44,1.28,1.89.67,4,.28,5.53-1.02,1.53-1.31,2.24-3.33,1.86-5.3-.26-1.39-.4-2.79-.4-4.16,0-12.23,9.95-22.19,22.19-22.19,7.83,0,14.92,4,18.99,10.71,1.04,1.71,2.9,2.73,4.91,2.7,2-.04,3.83-1.15,4.79-2.9,3.56-6.48,10.36-10.5,17.73-10.5,11.15,0,20.22,9.07,20.22,20.23,0,1.17-.11,2.38-.32,3.59-.27,1.53.1,3.1,1.03,4.34,3.82,5.1,5.83,11.18,5.83,17.58,0,1.02-.06,2.07-.17,3.11-.32,3.08,1.91,5.84,4.99,6.16,3.08.33,5.84-1.91,6.16-4.99.15-1.43.23-2.87.23-4.28,0-8.04-2.31-15.72-6.7-22.35.11-1.06.16-2.11.16-3.15Z"/>
      <g>
        <path class="cls-1" d="m1329.59,667.1c-3.1,0-5.61,2.51-5.61,5.61v94.08c0,3.1,2.51,5.61,5.61,5.61s5.61-2.51,5.61-5.61v-94.08c0-3.1-2.51-5.61-5.61-5.61Z"/>
        <path class="cls-1" d="m1360.9,641.81c-2.54-17.39-17.55-30.78-35.63-30.78-19.85,0-36.01,16.15-36.01,36.01,0,.58.01,1.16.04,1.74-13.05,5.61-21.81,18.6-21.81,33.09,0,19.85,16.15,36.01,36.01,36.01,11.03,0,21.41-5.16,28.17-13.6,6.54,5.84,15.08,9.18,23.99,9.18,19.85,0,36.01-16.15,36.01-36.01,0-18.08-13.39-33.09-30.78-35.63Zm.39,5.23h0,0Zm-5.61,55.2c-8,0-15.55-3.9-20.2-10.43-1.15-1.61-3.06-2.5-5.04-2.33-1.97.17-3.71,1.36-4.57,3.15-4.11,8.53-12.89,14.04-22.35,14.04-13.67,0-24.8-11.12-24.8-24.8,0-11.11,7.47-20.93,18.16-23.89,2.8-.77,4.54-3.56,4.02-6.42-.28-1.51-.42-3.03-.42-4.52,0-13.67,11.12-24.8,24.8-24.8s24.8,11.12,24.8,24.8c0,3.1,2.51,5.61,5.61,5.61,13.67,0,24.8,11.12,24.8,24.8s-11.12,24.8-24.8,24.8Z"/>
      </g>
      <g>
        <path class="cls-1" d="m704.79,175.19c-4.68-2.94-10.85-1.52-13.79,3.16-2.93,4.68-1.51,10.85,3.17,13.79,1.65,1.03,3.49,1.52,5.3,1.52,3.33,0,6.58-1.66,8.48-4.69,2.93-4.68,1.52-10.85-3.16-13.78Z"/>
        <path class="cls-1" d="m692.04,211.51c-5.21,1.83-7.96,7.54-6.13,12.75,1.45,4.12,5.31,6.69,9.44,6.69,1.1,0,2.22-.18,3.31-.56,5.21-1.84,7.95-7.54,6.13-12.75-1.83-5.22-7.54-7.96-12.75-6.13Z"/>
        <path class="cls-1" d="m759.61,183.05s.03.03.04.04c.02.02.05.04.07.06,1.94,1.91,4.47,2.87,7.01,2.87s5.11-.98,7.07-2.93c3.9-3.9,3.9-10.24,0-14.14-.02,0-.03-.03-.04-.04-.03-.02-.05-.05-.08-.07-3.91-3.89-10.24-3.88-14.14.04-3.89,3.92-3.87,10.25.04,14.14.01,0,.02.02.03.03Z"/>
        <path class="cls-1" d="m730.06,153.7c-5.49.63-9.43,5.59-8.8,11.07.59,5.11,4.91,8.87,9.93,8.87.38,0,.76-.02,1.15-.07,5.48-.63,9.42-5.59,8.79-11.07-.63-5.49-5.58-9.43-11.07-8.8Z"/>
        <path class="cls-1" d="m725.2,237.99c-5.22-1.81-10.92.95-12.73,6.16-1.82,5.22.94,10.92,6.16,12.73,1.09.38,2.19.56,3.28.56,4.14,0,8.01-2.59,9.45-6.72,1.81-5.21-.95-10.91-6.16-12.73Z"/>
        <path class="cls-1" d="m780.23,201.48c-5.49-.61-10.44,3.34-11.05,8.83-.61,5.49,3.34,10.44,8.83,11.05.38.04.76.06,1.13.06,5.02,0,9.35-3.78,9.92-8.89.61-5.49-3.34-10.44-8.83-11.05Z"/>
        <path class="cls-1" d="m753.85,234.74c-4.67,2.95-6.07,9.12-3.12,13.79,1.9,3.02,5.15,4.67,8.47,4.67,1.82,0,3.67-.5,5.32-1.54,4.67-2.95,6.07-9.12,3.13-13.8-2.95-4.67-9.13-6.07-13.8-3.12Z"/>
      </g>
      <g>
        <path class="cls-1" d="m125.39,133.82c-5.21-1.81-10.91.95-12.73,6.16-1.81,5.22.95,10.92,6.16,12.73,1.09.38,2.2.56,3.29.56,4.14,0,8.01-2.59,9.44-6.72,1.81-5.22-.94-10.91-6.16-12.73Z"/>
        <path class="cls-1" d="m159.91,78.99c1.95,1.9,4.48,2.86,7.01,2.86s5.12-.98,7.07-2.93c3.9-3.9,3.91-10.24,0-14.14-.01,0-.02-.03-.04-.04-.02-.02-.04-.05-.07-.07-3.92-3.9-10.25-3.88-14.14.04-3.9,3.92-3.88,10.25.04,14.14.04.05.09.09.13.14Z"/>
        <path class="cls-1" d="m104.98,113.47c-1.83-5.21-7.54-7.96-12.75-6.13-5.21,1.83-7.95,7.54-6.12,12.75,1.44,4.12,5.31,6.69,9.43,6.69,1.1,0,2.22-.18,3.32-.57,5.21-1.83,7.95-7.53,6.12-12.75h0Z"/>
        <path class="cls-1" d="m104.98,71.02c-4.68-2.93-10.85-1.52-13.78,3.16-2.93,4.68-1.52,10.85,3.16,13.78,1.65,1.04,3.49,1.53,5.3,1.53,3.33,0,6.59-1.66,8.49-4.69,2.93-4.68,1.51-10.85-3.17-13.78Z"/>
        <path class="cls-1" d="m180.42,97.31c-5.48-.61-10.43,3.34-11.04,8.83-.61,5.49,3.34,10.43,8.83,11.05.37.04.75.06,1.12.06,5.02,0,9.35-3.78,9.92-8.89.62-5.49-3.34-10.44-8.83-11.05Z"/>
        <path class="cls-1" d="m154.05,130.57c-4.67,2.95-6.07,9.12-3.13,13.79,1.9,3.02,5.15,4.67,8.47,4.67,1.82,0,3.67-.5,5.33-1.54,4.67-2.95,6.07-9.12,3.12-13.8-2.95-4.67-9.12-6.07-13.79-3.12Z"/>
        <path class="cls-1" d="m130.26,49.53c-5.49.63-9.43,5.59-8.8,11.08.58,5.1,4.91,8.86,9.92,8.86.38,0,.77-.02,1.15-.07,5.49-.63,9.43-5.59,8.8-11.07-.63-5.49-5.59-9.43-11.07-8.8Z"/>
      </g>
      <g>
        <path class="cls-1" d="m785.31,895.36c-4.68-2.93-10.85-1.51-13.78,3.16h0c-2.93,4.69-1.52,10.86,3.16,13.79,1.65,1.03,3.49,1.53,5.3,1.53,3.33,0,6.59-1.66,8.48-4.69,2.94-4.68,1.52-10.85-3.16-13.79Z"/>
        <path class="cls-1" d="m805.72,958.17c-5.22-1.82-10.92.94-12.73,6.16-1.81,5.21.94,10.91,6.16,12.73,1.09.37,2.19.55,3.28.55,4.14,0,8.01-2.58,9.45-6.71,1.81-5.22-.94-10.92-6.16-12.73Z"/>
        <path class="cls-1" d="m772.56,931.68c-5.21,1.83-7.95,7.54-6.12,12.75,1.44,4.12,5.3,6.69,9.43,6.69,1.1,0,2.22-.18,3.31-.56,5.21-1.83,7.96-7.54,6.13-12.75-1.83-5.21-7.54-7.95-12.75-6.13Z"/>
        <path class="cls-1" d="m840.14,903.23s.02.02.04.04c.02.02.04.04.07.06,1.94,1.91,4.47,2.86,7,2.86s5.11-.97,7.07-2.92c3.9-3.91,3.9-10.24,0-14.15-.02,0-.03-.02-.04-.03-.02-.03-.05-.05-.07-.08-3.92-3.89-10.25-3.87-14.14.04-3.9,3.92-3.88,10.25.04,14.15.01,0,.02.02.03.03Z"/>
        <path class="cls-1" d="m860.75,921.65c-5.49-.61-10.43,3.34-11.05,8.83-.61,5.49,3.34,10.44,8.84,11.05.37.04.74.07,1.11.07,5.03,0,9.36-3.79,9.93-8.9.61-5.48-3.34-10.43-8.83-11.05Z"/>
        <path class="cls-1" d="m834.38,954.91c-4.67,2.95-6.08,9.13-3.13,13.8,1.9,3.01,5.15,4.66,8.47,4.66,1.82,0,3.67-.5,5.32-1.54h.01c4.67-2.95,6.06-9.12,3.12-13.79-2.95-4.67-9.12-6.07-13.79-3.13Z"/>
        <path class="cls-1" d="m810.58,873.88c-5.48.62-9.42,5.58-8.79,11.07.58,5.1,4.9,8.86,9.92,8.86.38,0,.76-.02,1.15-.06,5.48-.63,9.42-5.59,8.8-11.08-.63-5.49-5.59-9.42-11.08-8.79Z"/>
      </g>
      <g>
        <path class="cls-1" d="m1174.16,1017.69c-4.68-2.93-10.86-1.52-13.79,3.16-2.93,4.68-1.52,10.86,3.16,13.79,1.65,1.03,3.49,1.53,5.3,1.53,3.33,0,6.59-1.67,8.49-4.7,2.93-4.68,1.51-10.85-3.16-13.78Z"/>
        <path class="cls-1" d="m1161.4,1054.02c-5.21,1.83-7.95,7.53-6.12,12.75h0c1.44,4.11,5.31,6.68,9.44,6.69,1.09,0,2.21-.19,3.31-.57,5.21-1.83,7.95-7.54,6.12-12.75-1.83-5.21-7.54-7.95-12.75-6.12Z"/>
        <path class="cls-1" d="m1228.98,1025.55s.03.03.04.05h0s.05.04.07.06c1.95,1.91,4.48,2.86,7,2.86s5.12-.97,7.07-2.92c3.88-3.88,3.91-10.16.08-14.07-.03-.03-.05-.05-.08-.08-.01,0-.02-.02-.04-.04-.02-.02-.04-.05-.07-.07-3.92-3.89-10.25-3.88-14.14.04-3.9,3.92-3.88,10.25.04,14.14,0,0,.02.02.03.03Z"/>
        <path class="cls-1" d="m1199.43,996.21c-5.49.62-9.43,5.58-8.8,11.07.58,5.1,4.91,8.86,9.92,8.86.38,0,.77-.02,1.15-.06h0c5.49-.63,9.43-5.59,8.8-11.08-.63-5.48-5.59-9.42-11.07-8.79Z"/>
        <path class="cls-1" d="m1249.6,1043.98c-5.49-.61-10.44,3.34-11.05,8.83-.61,5.49,3.34,10.44,8.83,11.05.38.04.75.07,1.12.07,5.03,0,9.36-3.79,9.93-8.9.61-5.49-3.34-10.43-8.83-11.05Z"/>
        <path class="cls-1" d="m1223.22,1077.24c-4.67,2.95-6.07,9.12-3.12,13.79,1.9,3.02,5.15,4.67,8.47,4.67,1.82,0,3.66-.5,5.32-1.54,4.67-2.95,6.07-9.12,3.12-13.79-2.94-4.67-9.12-6.07-13.79-3.13Z"/>
        <path class="cls-1" d="m1194.56,1080.49c-5.21-1.81-10.91.95-12.73,6.16-1.81,5.22.95,10.92,6.16,12.73,1.09.38,2.2.56,3.29.56,4.14,0,8.01-2.59,9.44-6.72,1.82-5.21-.94-10.91-6.16-12.73Z"/>
      </g>
      <g>
        <path class="cls-1" d="m296.21,95.25c-4.14,0-7.5,3.36-7.5,7.5v48c0,4.14,3.36,7.5,7.5,7.5s7.5-3.36,7.5-7.5v-48c0-4.14-3.36-7.5-7.5-7.5Z"/>
        <path class="cls-1" d="m320.71,119.75h-48c-4.14,0-7.5,3.36-7.5,7.5s3.36,7.5,7.5,7.5h48c4.14,0,7.5-3.36,7.5-7.5s-3.36-7.5-7.5-7.5Z"/>
      </g>
      <g>
        <path class="cls-1" d="m1033.41,867.91c-4.14,0-7.5,3.36-7.5,7.5v48c0,4.14,3.36,7.5,7.5,7.5s7.5-3.36,7.5-7.5v-48c0-4.14-3.36-7.5-7.5-7.5Z"/>
        <path class="cls-1" d="m1057.91,892.41h-48c-4.14,0-7.5,3.36-7.5,7.5s3.36,7.5,7.5,7.5h48c4.14,0,7.5-3.36,7.5-7.5s-3.36-7.5-7.5-7.5Z"/>
      </g>
      <g>
        <path class="cls-1" d="m678.69,455.83c-4.14,0-7.5,3.36-7.5,7.5v48c0,4.14,3.36,7.5,7.5,7.5s7.5-3.36,7.5-7.5v-48c0-4.14-3.36-7.5-7.5-7.5Z"/>
        <path class="cls-1" d="m703.19,480.33h-48c-4.14,0-7.5,3.36-7.5,7.5s3.36,7.5,7.5,7.5h48c4.14,0,7.5-3.36,7.5-7.5s-3.36-7.5-7.5-7.5Z"/>
      </g>
      <g>
        <path class="cls-1" d="m1153.6,38.52c-4.14,0-7.5,3.36-7.5,7.5v48c0,4.14,3.36,7.5,7.5,7.5s7.5-3.36,7.5-7.5v-48c0-4.14-3.36-7.5-7.5-7.5Z"/>
        <path class="cls-1" d="m1178.1,63.02h-48c-4.14,0-7.5,3.36-7.5,7.5s3.36,7.5,7.5,7.5h48c4.14,0,7.5-3.36,7.5-7.5s-3.36-7.5-7.5-7.5Z"/>
      </g>
      <path class="cls-2" d="m503.19,1001.81H95.49c-27.85,0-50.51-22.66-50.51-50.51V357.67c0-27.85,22.66-50.51,50.51-50.51h407.71c27.85,0,50.51,22.66,50.51,50.51v593.63c0,27.85-22.66,50.51-50.51,50.51ZM95.49,322.71c-19.28,0-34.97,15.69-34.97,34.97v593.63c0,19.28,15.68,34.97,34.97,34.97h407.71c19.28,0,34.97-15.69,34.97-34.97V357.67c0-19.28-15.68-34.97-34.97-34.97H95.49Z"/>
      <g>
        <path class="cls-1" d="m545.93,856.43h-83.03c-4.29,0-7.77-3.48-7.77-7.77s3.48-7.77,7.77-7.77h83.03c4.29,0,7.77,3.48,7.77,7.77s-3.48,7.77-7.77,7.77Z"/>
        <path class="cls-1" d="m337.08,856.43h-75.49c-4.29,0-7.77-3.48-7.77-7.77s3.48-7.77,7.77-7.77h75.49c4.29,0,7.77,3.48,7.77,7.77s-3.48,7.77-7.77,7.77Z"/>
        <path class="cls-1" d="m135.78,856.43H52.75c-4.29,0-7.77-3.48-7.77-7.77s3.48-7.77,7.77-7.77h83.03c4.29,0,7.77,3.48,7.77,7.77s-3.48,7.77-7.77,7.77Z"/>
        <g>
          <path class="cls-1" d="m198.69,919.33c-38.97,0-70.68-31.7-70.68-70.68,0-4.29,3.48-7.77,7.77-7.77s7.77,3.48,7.77,7.77c0,30.4,24.73,55.14,55.14,55.14s55.14-24.73,55.14-55.14c0-4.29,3.48-7.77,7.77-7.77s7.77,3.48,7.77,7.77c0,38.97-31.71,70.68-70.68,70.68Z"/>
          <path class="cls-1" d="m399.99,919.33c-38.97,0-70.68-31.7-70.68-70.68,0-4.29,3.48-7.77,7.77-7.77s7.77,3.48,7.77,7.77c0,30.4,24.73,55.14,55.14,55.14s55.14-24.73,55.14-55.14c0-4.29,3.48-7.77,7.77-7.77s7.77,3.48,7.77,7.77c0,38.97-31.71,70.68-70.68,70.68Z"/>
        </g>
      </g>
      <g>
        <path class="cls-1" d="m299.34,627.87c-76.43,0-138.61-62.18-138.61-138.61s62.18-138.62,138.61-138.62,138.62,62.18,138.62,138.62-62.18,138.61-138.62,138.61Zm0-261.69c-67.86,0-123.07,55.21-123.07,123.07s55.21,123.07,123.07,123.07,123.07-55.21,123.07-123.07-55.21-123.07-123.07-123.07Z"/>
        <path class="cls-1" d="m299.34,519.39c-16.62,0-30.14-13.52-30.14-30.14s13.52-30.14,30.14-30.14,30.14,13.52,30.14,30.14-13.52,30.14-30.14,30.14Zm0-44.73c-8.05,0-14.59,6.55-14.59,14.6s6.55,14.6,14.59,14.6,14.6-6.55,14.6-14.6-6.55-14.6-14.6-14.6Z"/>
        <path class="cls-1" d="m323.29,487.59c-.2,0-.39,0-.59-.02-4.28-.32-7.48-4.05-7.16-8.33l4.26-56.22-25.05,47.02c-2.01,3.78-6.72,5.23-10.51,3.2-3.79-2.02-5.22-6.72-3.2-10.51l42.45-79.68c1.73-3.24,5.48-4.83,9.02-3.81,3.53,1.02,5.86,4.38,5.58,8.05l-7.05,93.12c-.31,4.08-3.72,7.18-7.74,7.18Z"/>
      </g>
      <path class="cls-1" d="m145.01,706.99c-17.24,0-31.26-14.02-31.26-31.26s14.02-31.25,31.26-31.25,31.26,14.02,31.26,31.25-14.02,31.26-31.26,31.26Zm0-46.97c-8.67,0-15.72,7.05-15.72,15.71s7.05,15.72,15.72,15.72,15.72-7.05,15.72-15.72-7.05-15.71-15.72-15.71Z"/>
      <path class="cls-1" d="m299.34,706.99c-17.23,0-31.25-14.02-31.25-31.26s14.02-31.25,31.25-31.25,31.26,14.02,31.26,31.25-14.02,31.26-31.26,31.26Zm0-46.97c-8.66,0-15.71,7.05-15.71,15.71s7.05,15.72,15.71,15.72,15.72-7.05,15.72-15.72-7.05-15.71-15.72-15.71Z"/>
      <path class="cls-1" d="m453.67,706.99c-17.24,0-31.26-14.02-31.26-31.26s14.02-31.25,31.26-31.25,31.26,14.02,31.26,31.25-14.02,31.26-31.26,31.26Zm0-46.97c-8.67,0-15.72,7.05-15.72,15.71s7.05,15.72,15.72,15.72,15.71-7.05,15.71-15.72-7.05-15.71-15.71-15.71Z"/>
      <g>
        <path class="cls-1" d="m272.1,801.63H104.91c-4.29,0-7.77-3.48-7.77-7.77v-44.73c0-4.29,3.48-7.77,7.77-7.77h167.19c4.29,0,7.77,3.48,7.77,7.77v44.73c0,4.29-3.48,7.77-7.77,7.77Zm-159.42-15.54h151.65v-29.19H112.68v29.19Z"/>
        <path class="cls-1" d="m493.77,801.63h-167.19c-4.29,0-7.77-3.48-7.77-7.77v-44.73c0-4.29,3.48-7.77,7.77-7.77h167.19c4.29,0,7.77,3.48,7.77,7.77v44.73c0,4.29-3.48,7.77-7.77,7.77Zm-159.42-15.54h151.65v-29.19h-151.65v29.19Z"/>
      </g>
      <path class="cls-1" d="m218.26,958.25H58.34c-4.29,0-7.77-3.48-7.77-7.77s3.48-7.77,7.77-7.77h159.92c4.29,0,7.77,3.48,7.77,7.77s-3.48,7.77-7.77,7.77Z"/>
      <path class="cls-1" d="m539.22,958.25h-277.62c-4.29,0-7.77-3.48-7.77-7.77s3.48-7.77,7.77-7.77h277.62c4.29,0,7.77,3.48,7.77,7.77s-3.48,7.77-7.77,7.77Z"/>
      <path class="cls-1" d="m990.09,193.06c-.2.2-.43.38-.69.52-2.63,1.47-7.35-.47-10.55-4.34-.63-.76-1.25-1.51-1.88-2.26-3.22-3.86-3.71-8.2-1.12-9.71,2.6-1.5,7.32.41,10.54,4.27.65.78,1.31,1.57,1.96,2.36,2.88,3.48,3.55,7.34,1.74,9.15Zm-38.73-42.97s-.03.03-.05.05c-2.12,2.03-6.73.75-10.28-2.86-1.09-1.1-2.17-2.2-3.26-3.29-5.96-5.96-12.06-11.8-18.13-17.38-3.73-3.42-5.28-8.08-3.47-10.42,1.81-2.33,6.29-1.46,10.02,1.96,6.41,5.88,12.84,12.04,19.11,18.32,1.15,1.15,2.29,2.3,3.43,3.46,3.53,3.58,4.69,8.11,2.64,10.16Zm-63.85-56.03c-1.69,1.69-5.2,1.25-8.57-1.28-7.75-5.8-15.68-11.37-23.56-16.55-4.07-2.68-6.76-7.41-6-10.57.76-3.16,4.67-3.55,8.74-.87,8.36,5.5,16.77,11.41,25,17.56,3.98,2.98,6.27,7.72,5.11,10.6-.17.43-.42.8-.72,1.1Zm-68.95-42.9c-1.3,1.3-3.74,1.4-6.52,0-8.01-4.01-16.16-7.74-24.22-11.09-4.12-1.71-7.78-6.16-8.16-9.93-.38-3.77,2.65-5.44,6.77-3.72,8.55,3.55,17.18,7.51,25.68,11.75,4.14,2.07,7.48,6.66,7.47,10.24,0,1.18-.37,2.1-1.01,2.73Zm-69.16-26.53c-.97.97-2.57,1.29-4.58.76-7.72-2.07-15.55-3.86-23.25-5.31-3.9-.73-8.19-4.63-9.57-8.71-1.39-4.07.66-6.78,4.56-6.05,8.1,1.53,16.33,3.41,24.45,5.59,4,1.07,8.1,5.19,9.16,9.19.53,1.99.19,3.58-.76,4.54Zm-65.04-10.32c-.69.69-1.72,1.06-3.04,1-7.12-.34-14.29-.4-21.33-.19-3.54.11-8.15-3.16-10.3-7.3-2.15-4.14-1.02-7.58,2.52-7.69,7.33-.22,14.8-.15,22.22.2,3.68.17,8.2,3.67,10.1,7.81,1.22,2.66,1.07,4.93-.18,6.17Zm-58.83,3.48c-.48.48-1.12.8-1.92.94-6.38,1.08-12.79,2.42-19.06,3.98-3.14.78-7.87-1.88-10.57-5.95-2.7-4.07-2.34-7.99.8-8.78,6.48-1.61,13.11-3,19.7-4.12,3.28-.56,7.99,2.32,10.51,6.42,1.91,3.1,2.02,6.02.54,7.5Zm-233.7,205.71c-1.72,1.72-5.33,1.22-8.74-1.41-3.95-3.04-6.14-7.79-4.89-10.59,2.53-5.69,5.16-11.36,7.85-16.86,1.33-2.74,5.59-2.44,9.51.66,3.92,3.1,6.01,7.84,4.68,10.58-2.64,5.43-5.25,11.02-7.74,16.64-.17.38-.39.71-.67.98Zm181.57-191.2c-.3.3-.68.55-1.12.72-5.64,2.22-11.3,4.68-16.81,7.3-2.76,1.31-7.5-.81-10.59-4.73-3.09-3.93-3.36-8.18-.6-9.49,5.66-2.7,11.46-5.22,17.26-7.5,2.89-1.14,7.64,1.17,10.6,5.15,2.51,3.37,2.94,6.86,1.26,8.54Zm-158.39,145.41c-1.82,1.82-5.71,1.14-9.2-1.77-3.86-3.22-5.77-7.94-4.27-10.54,3.05-5.29,6.21-10.54,9.41-15.6,1.59-2.52,5.99-1.91,9.81,1.37,3.82,3.28,5.63,7.99,4.03,10.51-3.15,4.98-6.27,10.15-9.27,15.37-.14.25-.31.47-.51.66Zm112.7-122.17c-.16.16-.34.31-.55.44-4.95,3.13-9.89,6.48-14.68,9.95-2.4,1.74-7.08.1-10.45-3.66-3.38-3.76-4.18-8.23-1.77-9.95,4.9-3.55,9.95-6.98,15.02-10.18,2.52-1.6,7.23.21,10.51,4.03,3.02,3.51,3.78,7.51,1.92,9.37Zm-85.06,80.1c-1.94,1.94-6.14,1.02-9.69-2.21-3.74-3.4-5.34-8.07-3.56-10.44,3.61-4.81,7.35-9.56,11.11-14.11,1.89-2.26,6.39-1.3,10.08,2.16,3.69,3.46,5.16,8.11,3.28,10.38-3.7,4.48-7.38,9.15-10.93,13.88-.09.12-.19.23-.29.34Zm45.32-49.89s-.08.08-.12.11c-4.12,3.71-8.23,7.61-12.21,11.58l-.52.53c-2.08,2.08-6.66.86-10.25-2.72-3.58-3.58-4.8-8.17-2.72-10.25l.51-.51c4.06-4.06,8.25-8.03,12.45-11.82,2.19-1.97,6.81-.61,10.33,3.04,3.45,3.57,4.55,8.02,2.53,10.04Z"/>
    </g>
  </g>
</svg>