<?xml version="1.0" encoding="UTF-8"?>
<svg id="Layer_2" data-name="Layer 2" xmlns="http://www.w3.org/2000/svg" viewBox="0 0 1568.94 1043.1">
  <defs>
    <style>
      .cls-1, .cls-2 {
        fill: #231f20;
      }

      .cls-2 {
        stroke: #231f20;
        stroke-miterlimit: 10;
        stroke-width: 10px;
      }
    </style>
  </defs>
  <g id="FLIGHT">
    <g>
      <g>
        <g>
          <path class="cls-1" d="m1486.54,660.66h-333.1c-3.09,0-5.59,2.5-5.59,5.59s2.5,5.59,5.59,5.59h333.1c3.09,0,5.59-2.5,5.59-5.59s-2.5-5.59-5.59-5.59Z"/>
          <path class="cls-1" d="m1128.86,660.66h-78.21c-3.09,0-5.59,2.5-5.59,5.59s2.5,5.59,5.59,5.59h78.21c3.09,0,5.59-2.5,5.59-5.59s-2.5-5.59-5.59-5.59Z"/>
          <path class="cls-1" d="m1022.34,660.66h-56.46c-3.09,0-5.59,2.5-5.59,5.59s2.5,5.59,5.59,5.59h56.46c3.09,0,5.59-2.5,5.59-5.59s-2.5-5.59-5.59-5.59Z"/>
        </g>
        <g>
          <path class="cls-1" d="m1037.02,812.61c-3.09,0-5.59,2.5-5.59,5.59v51.32c0,6-4.88,10.88-10.88,10.88h-16.24c-6,0-10.88-4.88-10.88-10.88v-51.32c0-3.09-2.5-5.59-5.59-5.59s-5.59,2.5-5.59,5.59v51.32c0,12.16,9.89,22.05,22.05,22.05h16.24c12.16,0,22.05-9.89,22.05-22.05v-51.32c0-3.09-2.5-5.59-5.59-5.59Z"/>
          <path class="cls-1" d="m1464.57,812.61c-3.09,0-5.59,2.5-5.59,5.59v51.32c0,6-4.88,10.88-10.88,10.88h-16.24c-6,0-10.88-4.88-10.88-10.88v-51.32c0-3.09-2.5-5.59-5.59-5.59s-5.59,2.5-5.59,5.59v51.32c0,12.16,9.89,22.05,22.05,22.05h16.24c12.16,0,22.05-9.89,22.05-22.05v-51.32c0-3.09-2.5-5.59-5.59-5.59Z"/>
        </g>
        <g>
          <path class="cls-1" d="m1348.37,604.05h-338.16c-3.09,0-5.59,2.5-5.59,5.59s2.5,5.59,5.59,5.59h338.16c3.09,0,5.59-2.5,5.59-5.59s-2.5-5.59-5.59-5.59Z"/>
          <path class="cls-1" d="m1442.22,604.05h-53.41c-3.09,0-5.59,2.5-5.59,5.59s2.5,5.59,5.59,5.59h53.41c3.09,0,5.59-2.5,5.59-5.59s-2.5-5.59-5.59-5.59Z"/>
        </g>
        <path class="cls-2" d="m1447.28,606.97l-25.43-91.55c-3.05-10.97-13.12-18.62-24.5-18.62h-342.26c-11.38,0-21.46,7.66-24.5,18.62l-25.43,91.55-35.41,42.05c-8.25,9.79-12.79,22.24-12.79,35.05v119.51c0,10.32,8.4,18.72,18.72,18.72h501.09c10.32,0,18.72-8.4,18.72-18.72v-119.51c0-12.8-4.54-25.25-12.79-35.05l-35.41-42.05Zm-437.07,2.67h0,0Zm474.09,193.94c0,4.16-3.39,7.55-7.55,7.55h-501.09c-4.16,0-7.55-3.39-7.55-7.55v-119.51c0-10.18,3.61-20.07,10.16-27.85l36.19-42.98c.52-.61.89-1.33,1.11-2.1l25.76-92.73c1.71-6.15,7.36-10.44,13.74-10.44h342.26c6.38,0,12.03,4.29,13.74,10.44l25.76,92.73c.21.77.59,1.49,1.11,2.1l36.19,42.98c6.55,7.78,10.16,17.67,10.16,27.85v119.51Z"/>
        <g>
          <g>
            <path class="cls-1" d="m1166.06,563.83l-70.76,40.97c-2.67,1.55-3.58,4.96-2.04,7.63,1.04,1.79,2.91,2.79,4.84,2.79.95,0,1.91-.24,2.79-.75l70.76-40.97c2.67-1.55,3.58-4.96,2.04-7.63-1.55-2.67-4.96-3.58-7.63-2.04Z"/>
            <path class="cls-1" d="m1206.23,540.03l-23.84,14.15c-2.65,1.58-3.53,5-1.95,7.66,1.04,1.76,2.9,2.73,4.81,2.73.97,0,1.95-.25,2.85-.78l23.84-14.15c2.65-1.58,3.53-5,1.95-7.66-1.57-2.65-5-3.53-7.66-1.95Z"/>
          </g>
          <path class="cls-1" d="m1378.38,497.52l-48.42,27.56c-2.68,1.53-3.62,4.94-2.09,7.62,1.03,1.81,2.92,2.82,4.86,2.82.94,0,1.89-.24,2.76-.73l48.42-27.56c2.68-1.53,3.62-4.94,2.09-7.62-1.53-2.68-4.94-3.62-7.62-2.09Z"/>
          <path class="cls-1" d="m1312.79,535.53l-115.45,67.04c-2.67,1.55-3.58,4.97-2.03,7.64,1.04,1.79,2.91,2.78,4.84,2.78.95,0,1.92-.24,2.8-.76l115.45-67.04c2.67-1.55,3.58-4.97,2.03-7.64-1.55-2.67-4.97-3.57-7.64-2.03Z"/>
        </g>
        <g>
          <path class="cls-1" d="m1496.89,562.34h-21.99c-7.13,0-13.53,3.96-16.72,10.34l-17.98,35.95c-.87,1.73-.77,3.79.24,5.44,1.02,1.65,2.82,2.65,4.75,2.65h51.69c10.31,0,18.7-8.39,18.7-18.7v-16.98c0-10.31-8.39-18.7-18.7-18.7Zm7.52,35.68c0,4.15-3.38,7.52-7.52,7.52h-42.65l13.93-27.87c1.28-2.57,3.86-4.16,6.73-4.16h21.99c4.15,0,7.52,3.38,7.52,7.52v16.98Z"/>
          <path class="cls-1" d="m994.99,571.18c-3.19-6.37-9.6-10.34-16.72-10.34h-21.99c-10.31,0-18.7,8.39-18.7,18.7v16.98c0,10.31,8.39,18.7,18.7,18.7h51.69c1.94,0,3.73-1,4.75-2.65,1.02-1.65,1.11-3.7.24-5.44l-17.98-35.95Zm-38.71,32.87c-4.15,0-7.52-3.38-7.52-7.52v-16.98c0-4.15,3.38-7.52,7.52-7.52h21.99c2.87,0,5.45,1.59,6.73,4.16l13.93,27.87h-42.65Z"/>
        </g>
        <g>
          <path class="cls-1" d="m1322.3,709.82h-192.17c-17.46,0-31.66,14.2-31.66,31.66s14.2,31.66,31.66,31.66h192.17c17.46,0,31.66-14.2,31.66-31.66s-14.2-31.66-31.66-31.66Zm0,52.14h-192.17c-11.29,0-20.48-9.19-20.48-20.48s9.19-20.48,20.48-20.48h192.17c11.29,0,20.48,9.19,20.48,20.48s-9.19,20.48-20.48,20.48Z"/>
          <path class="cls-1" d="m1128.64,710.78c-3.09,0-5.59,2.5-5.59,5.59v49.91c0,3.09,2.5,5.59,5.59,5.59s5.59-2.5,5.59-5.59v-49.91c0-3.09-2.5-5.59-5.59-5.59Z"/>
          <path class="cls-1" d="m1161.04,710.78c-3.09,0-5.59,2.5-5.59,5.59v49.91c0,3.09,2.5,5.59,5.59,5.59s5.59-2.5,5.59-5.59v-49.91c0-3.09-2.5-5.59-5.59-5.59Z"/>
          <path class="cls-1" d="m1193.44,710.78c-3.09,0-5.59,2.5-5.59,5.59v49.91c0,3.09,2.5,5.59,5.59,5.59s5.59-2.5,5.59-5.59v-49.91c0-3.09-2.5-5.59-5.59-5.59Z"/>
          <path class="cls-1" d="m1225.84,710.78c-3.09,0-5.59,2.5-5.59,5.59v49.91c0,3.09,2.5,5.59,5.59,5.59s5.59-2.5,5.59-5.59v-49.91c0-3.09-2.5-5.59-5.59-5.59Z"/>
          <path class="cls-1" d="m1258.24,710.78c-3.09,0-5.59,2.5-5.59,5.59v49.91c0,3.09,2.5,5.59,5.59,5.59s5.59-2.5,5.59-5.59v-49.91c0-3.09-2.5-5.59-5.59-5.59Z"/>
          <path class="cls-1" d="m1290.64,710.78c-3.09,0-5.59,2.5-5.59,5.59v49.91c0,3.09,2.5,5.59,5.59,5.59s5.59-2.5,5.59-5.59v-49.91c0-3.09-2.5-5.59-5.59-5.59Z"/>
          <path class="cls-1" d="m1323.04,710.78c-3.09,0-5.59,2.5-5.59,5.59v49.91c0,3.09,2.5,5.59,5.59,5.59s5.59-2.5,5.59-5.59v-49.91c0-3.09-2.5-5.59-5.59-5.59Z"/>
        </g>
        <g>
          <path class="cls-1" d="m1036.65,684.49c-19.51,0-35.38,15.87-35.38,35.38s15.87,35.38,35.38,35.38,35.38-15.87,35.38-35.38-15.87-35.38-35.38-35.38Zm0,59.59c-13.35,0-24.21-10.86-24.21-24.21s10.86-24.21,24.21-24.21,24.21,10.86,24.21,24.21-10.86,24.21-24.21,24.21Z"/>
          <path class="cls-1" d="m1037.02,765.68c-8.83,0-16.01,7.18-16.01,16.01s7.18,16.01,16.01,16.01,16.01-7.18,16.01-16.01-7.18-16.01-16.01-16.01Zm0,20.86c-2.67,0-4.84-2.17-4.84-4.84s2.17-4.84,4.84-4.84,4.84,2.17,4.84,4.84-2.17,4.84-4.84,4.84Z"/>
          <path class="cls-1" d="m1416.15,768.66c-8.83,0-16.01,7.18-16.01,16.01s7.18,16.01,16.01,16.01,16.01-7.18,16.01-16.01-7.18-16.01-16.01-16.01Zm0,20.86c-2.67,0-4.84-2.17-4.84-4.84s2.17-4.84,4.84-4.84,4.84,2.17,4.84,4.84-2.17,4.84-4.84,4.84Z"/>
          <path class="cls-1" d="m1415.78,684.49c-19.51,0-35.38,15.87-35.38,35.38s15.87,35.38,35.38,35.38,35.38-15.87,35.38-35.38-15.87-35.38-35.38-35.38Zm0,59.59c-13.35,0-24.21-10.86-24.21-24.21s10.86-24.21,24.21-24.21,24.21,10.86,24.21,24.21-10.86,24.21-24.21,24.21Z"/>
        </g>
        <g>
          <path class="cls-1" d="m974.18,813.7c-2.48-1.83-5.98-1.3-7.81,1.18l-81.04,109.89c-1.83,2.48-1.3,5.98,1.18,7.81,1,.74,2.16,1.09,3.31,1.09,1.71,0,3.41-.79,4.5-2.27l81.04-109.89c1.83-2.48,1.3-5.98-1.18-7.81Z"/>
          <path class="cls-1" d="m1487.69,816.21c-1.83-2.48-5.33-3.01-7.81-1.18-2.48,1.83-3.01,5.33-1.18,7.81l80.15,108.56c1.1,1.48,2.79,2.27,4.5,2.27,1.15,0,2.32-.36,3.31-1.09,2.48-1.83,3.01-5.33,1.18-7.81l-80.15-108.56Z"/>
        </g>
      </g>
      <path class="cls-2" d="m373.86,863.56h-245.67c-4.14,0-7.5,3.36-7.5,7.5s3.36,7.5,7.5,7.5h245.67c4.14,0,7.5-3.36,7.5-7.5s-3.36-7.5-7.5-7.5Z"/>
      <g>
        <path class="cls-1" d="m120.46,960.85c-4.68-2.93-10.85-1.52-13.78,3.16-2.94,4.68-1.52,10.85,3.16,13.79,1.65,1.03,3.49,1.52,5.3,1.52,3.33,0,6.58-1.66,8.48-4.69,2.94-4.68,1.52-10.85-3.16-13.78Z"/>
        <path class="cls-1" d="m140.87,1023.65c-5.22-1.81-10.92.95-12.73,6.16-1.82,5.22.94,10.92,6.16,12.73,1.09.38,2.19.56,3.28.56,4.14,0,8.01-2.59,9.45-6.72,1.81-5.21-.95-10.91-6.16-12.73Z"/>
        <path class="cls-1" d="m175.28,968.71s.03.03.04.04c1.96,1.95,4.52,2.93,7.08,2.93s5.11-.98,7.07-2.93c3.9-3.9,3.9-10.23,0-14.14-.04-.04-.08-.08-.12-.11-3.91-3.9-10.24-3.88-14.14.04-3.89,3.92-3.87,10.25.05,14.14,0,.01.01.02.02.03Z"/>
        <path class="cls-1" d="m107.71,997.17c-5.21,1.83-7.96,7.54-6.13,12.75,1.45,4.12,5.31,6.69,9.44,6.69,1.1,0,2.21-.18,3.31-.57,5.21-1.82,7.95-7.53,6.12-12.74-1.82-5.21-7.53-7.96-12.74-6.13Z"/>
        <path class="cls-1" d="m195.9,987.14c-5.49-.61-10.44,3.34-11.05,8.83-.61,5.49,3.34,10.44,8.83,11.05.38.04.75.06,1.12.06,5.03,0,9.36-3.78,9.93-8.89.61-5.49-3.34-10.44-8.83-11.05Z"/>
        <path class="cls-1" d="m145.73,939.36c-5.49.63-9.43,5.59-8.8,11.08.59,5.1,4.91,8.86,9.93,8.86.38,0,.76-.02,1.15-.07,5.48-.63,9.42-5.58,8.79-11.07-.62-5.49-5.58-9.43-11.07-8.8Z"/>
        <path class="cls-1" d="m169.52,1020.4c-4.67,2.95-6.06,9.12-3.12,13.79,1.9,3.02,5.15,4.67,8.47,4.67,1.82,0,3.67-.5,5.32-1.54,4.68-2.95,6.07-9.12,3.13-13.8-2.95-4.67-9.12-6.06-13.8-3.12Z"/>
      </g>
      <g>
        <path class="cls-1" d="m684.51,833.76c-4.68-2.93-10.85-1.51-13.78,3.17-2.93,4.68-1.52,10.85,3.16,13.78,1.65,1.03,3.49,1.53,5.3,1.53,3.33,0,6.59-1.66,8.49-4.69,2.93-4.68,1.51-10.85-3.17-13.79Z"/>
        <path class="cls-1" d="m739.31,841.6s.02.02.03.03c.01,0,.02.02.04.04h0s.02.02.04.03c1.94,1.93,4.49,2.89,7.03,2.89s5.12-.97,7.07-2.92c3.9-3.91,3.9-10.24,0-14.15,0,0-.03-.02-.04-.04-.02-.02-.05-.04-.07-.07-3.92-3.89-10.25-3.87-14.14.04-3.88,3.9-3.88,10.2,0,14.1.02,0,.03.03.05.05Z"/>
        <path class="cls-1" d="m671.76,870.09c-5.21,1.83-7.95,7.53-6.12,12.75h0c1.44,4.11,5.3,6.69,9.43,6.69,1.1,0,2.22-.19,3.31-.57,5.21-1.83,7.96-7.54,6.13-12.75-1.83-5.21-7.54-7.95-12.75-6.12Z"/>
        <path class="cls-1" d="m704.92,896.57c-5.21-1.82-10.92.94-12.73,6.16-1.81,5.21.94,10.91,6.16,12.73,1.09.37,2.2.55,3.29.55,4.13,0,8-2.59,9.44-6.71,1.82-5.22-.94-10.92-6.16-12.73Z"/>
        <path class="cls-1" d="m759.95,860.05c-5.49-.61-10.43,3.34-11.04,8.83-.62,5.49,3.34,10.44,8.82,11.05.38.04.76.06,1.13.06,5.02,0,9.35-3.78,9.92-8.89.62-5.49-3.34-10.43-8.83-11.05Z"/>
        <path class="cls-1" d="m709.78,812.28c-5.48.62-9.42,5.58-8.79,11.07.58,5.1,4.91,8.86,9.92,8.86.38,0,.76-.02,1.15-.06,5.49-.63,9.43-5.59,8.8-11.08-.63-5.48-5.59-9.42-11.08-8.79Z"/>
        <path class="cls-1" d="m733.58,893.31c-4.67,2.95-6.07,9.13-3.13,13.8,1.91,3.01,5.15,4.66,8.47,4.66,1.83,0,3.67-.49,5.33-1.54,4.67-2.95,6.07-9.12,3.12-13.79-2.95-4.67-9.12-6.07-13.79-3.13Z"/>
      </g>
      <g>
        <path class="cls-1" d="m1014.16,352.93c-4.14,0-7.5,3.36-7.5,7.5v48c0,4.14,3.36,7.5,7.5,7.5s7.5-3.36,7.5-7.5v-48c0-4.14-3.36-7.5-7.5-7.5Z"/>
        <path class="cls-1" d="m1038.66,377.43h-48c-4.14,0-7.5,3.36-7.5,7.5s3.36,7.5,7.5,7.5h48c4.14,0,7.5-3.36,7.5-7.5s-3.36-7.5-7.5-7.5Z"/>
      </g>
      <g>
        <path class="cls-1" d="m494.04,946.09c-4.14,0-7.5,3.36-7.5,7.5v48c0,4.14,3.36,7.5,7.5,7.5s7.5-3.36,7.5-7.5v-48c0-4.14-3.36-7.5-7.5-7.5Z"/>
        <path class="cls-1" d="m518.54,970.59h-48c-4.14,0-7.5,3.36-7.5,7.5s3.36,7.5,7.5,7.5h48c4.14,0,7.5-3.36,7.5-7.5s-3.36-7.5-7.5-7.5Z"/>
      </g>
      <g>
        <path class="cls-1" d="m31,791.83c-4.14,0-7.5,3.36-7.5,7.5v48c0,4.14,3.36,7.5,7.5,7.5s7.5-3.36,7.5-7.5v-48c0-4.14-3.36-7.5-7.5-7.5Z"/>
        <path class="cls-1" d="m55.5,816.33H7.5c-4.14,0-7.5,3.36-7.5,7.5s3.36,7.5,7.5,7.5h48c4.14,0,7.5-3.36,7.5-7.5s-3.36-7.5-7.5-7.5Z"/>
      </g>
      <g>
        <g>
          <path class="cls-1" d="m832.2,524.94l-11.57.33c-25.75.72-46.1,22.26-45.38,48.01l1.59,56.54c.15,5.37,4.63,9.61,10,9.45l85.5-2.4c5.37-.15,9.61-4.63,9.45-10l-1.59-56.54c-.72-25.75-22.26-46.1-48.01-45.38Zm.55,19.46c15.02-.42,27.58,11.45,28,26.47l1.32,46.81-66.05,1.86-1.32-46.81c-.42-15.02,11.45-27.58,26.47-28l11.57-.33Z"/>
          <g>
            <path class="cls-1" d="m864.14,634.54l.84,30c.15,5.37-4.08,9.85-9.45,10-5.37.15-9.85-4.08-10-9.45l-.84-30c-.15-5.37,4.08-9.85,9.45-10,5.37-.15,9.85,4.08,10,9.45Z"/>
            <path class="cls-1" d="m814.35,635.94l.84,30c.15,5.37-4.08,9.85-9.45,10-5.37.15-9.85-4.08-10-9.45l-.84-30c-.15-5.37,4.08-9.85,9.45-10,5.37-.15,9.85,4.08,10,9.45Z"/>
          </g>
        </g>
        <path class="cls-1" d="m712.35,65.64h-58.9c-4.14,0-7.5,3.36-7.5,7.5s3.36,7.5,7.5,7.5h51.4v44.1h-51.4c-4.14,0-7.5,3.36-7.5,7.5s3.36,7.5,7.5,7.5h58.9c4.14,0,7.5-3.36,7.5-7.5v-59.1c0-4.14-3.36-7.5-7.5-7.5Z"/>
        <path class="cls-1" d="m741.83,79.26h-28.03c-4.14,0-7.5,3.36-7.5,7.5s3.36,7.5,7.5,7.5h20.53v16.87h-20.53c-4.14,0-7.5,3.36-7.5,7.5s3.36,7.5,7.5,7.5h28.03c4.14,0,7.5-3.36,7.5-7.5v-31.87c0-4.14-3.36-7.5-7.5-7.5Z"/>
        <g>
          <path class="cls-2" d="m623.73,5H163.24c-13.84,0-25.09,14.92-25.09,33.26v731.53c0,18.34,11.26,33.26,25.09,33.26h460.5c13.84,0,25.09-14.92,25.09-33.26V38.26c0-18.34-11.26-33.26-25.09-33.26Zm13.77,764.78c0,10.07-6.18,18.26-13.77,18.26H163.24c-7.6,0-13.77-8.19-13.77-18.26V38.26c0-10.07,6.18-18.26,13.77-18.26h460.5c7.6,0,13.77,8.19,13.77,18.26v731.53Z"/>
          <g>
            <path class="cls-1" d="m638.62,205.76c-81.17-31.11-165.05-46.6-249.34-46.08-81.44.52-162.5,16.02-240.93,46.08-3,1.15-4.73,5.31-3.86,9.29.72,3.28,2.98,5.42,5.43,5.42.52,0,1.05-.1,1.57-.3,77.43-29.67,157.45-44.98,237.84-45.49,83.2-.52,166.02,14.78,246.14,45.49,3,1.15,6.14-1.14,7.01-5.12.87-3.98-.86-8.14-3.86-9.29Z"/>
            <path class="cls-1" d="m638.62,159.96c-81.17-31.11-165.05-46.6-249.34-46.08-81.44.52-162.5,16.02-240.93,46.08-3,1.15-4.73,5.31-3.86,9.29.72,3.28,2.98,5.42,5.43,5.42.52,0,1.05-.1,1.57-.3,77.43-29.67,157.45-44.98,237.84-45.49,83.2-.52,166.02,14.78,246.14,45.49,3,1.15,6.14-1.14,7.01-5.12.87-3.98-.86-8.14-3.86-9.29Z"/>
          </g>
          <path class="cls-1" d="m435.03,44.22h-83.09c-9.22,0-16.73,9.94-16.73,22.17v2.62c0,12.22,7.5,22.17,16.73,22.17h83.09c9.22,0,16.73-9.94,16.73-22.17v-2.62c0-12.22-7.5-22.17-16.73-22.17Zm5.41,24.79c0,3.95-2.43,7.17-5.41,7.17h-83.09c-2.98,0-5.41-3.21-5.41-7.17v-2.62c0-3.95,2.43-7.17,5.41-7.17h83.09c2.98,0,5.41,3.21,5.41,7.17v2.62Z"/>
          <path class="cls-1" d="m637.05,693.7H149.92c-3.13,0-5.66,3.36-5.66,7.5s2.53,7.5,5.66,7.5h487.13c3.13,0,5.66-3.36,5.66-7.5s-2.53-7.5-5.66-7.5Z"/>
          <path class="cls-1" d="m341.79,740.87h-32.33c-3.13,0-5.66,3.36-5.66,7.5s2.53,7.5,5.66,7.5h32.33c3.13,0,5.66-3.36,5.66-7.5s-2.53-7.5-5.66-7.5Z"/>
          <path class="cls-1" d="m472.23,740.87h-32.33c-3.13,0-5.66,3.36-5.66,7.5s2.53,7.5,5.66,7.5h32.33c3.13,0,5.66-3.36,5.66-7.5s-2.53-7.5-5.66-7.5Z"/>
          <path class="cls-1" d="m390.84,732.88c-6.44,0-11.69,6.95-11.69,15.49s5.24,15.49,11.69,15.49,11.69-6.95,11.69-15.49-5.24-15.49-11.69-15.49Zm0,15.98c-.2,0-.37-.22-.37-.49s.17-.49.37-.49.37.22.37.49-.17.49-.37.49Z"/>
          <g>
            <path class="cls-1" d="m476.55,179.79c-4.14,0-7.5,3.24-7.5,7.23v12.04c0,3.99,3.36,7.23,7.5,7.23s7.5-3.23,7.5-7.23v-12.04c0-3.99-3.36-7.23-7.5-7.23Z"/>
            <g>
              <path class="cls-1" d="m476.55,489.72c-4.14,0-7.5,3.23-7.5,7.23v22.91c0,3.99,3.36,7.23,7.5,7.23s7.5-3.23,7.5-7.23v-22.91c0-3.99-3.36-7.23-7.5-7.23Z"/>
              <path class="cls-1" d="m476.55,553.88c-4.14,0-7.5,3.23-7.5,7.23v22.91c0,3.99,3.36,7.23,7.5,7.23s7.5-3.23,7.5-7.23v-22.91c0-3.99-3.36-7.23-7.5-7.23Z"/>
              <path class="cls-1" d="m476.55,618.04c-4.14,0-7.5,3.23-7.5,7.23v22.91c0,3.99,3.36,7.23,7.5,7.23s7.5-3.23,7.5-7.23v-22.91c0-3.99-3.36-7.23-7.5-7.23Z"/>
              <path class="cls-1" d="m476.55,361.4c-4.14,0-7.5,3.23-7.5,7.23v22.91c0,3.99,3.36,7.23,7.5,7.23s7.5-3.24,7.5-7.23v-22.91c0-3.99-3.36-7.23-7.5-7.23Z"/>
              <path class="cls-1" d="m476.55,233.08c-4.14,0-7.5,3.23-7.5,7.23v22.91c0,3.99,3.36,7.23,7.5,7.23s7.5-3.24,7.5-7.23v-22.91c0-3.99-3.36-7.23-7.5-7.23Z"/>
              <path class="cls-1" d="m476.55,425.56c-4.14,0-7.5,3.23-7.5,7.23v22.91c0,3.99,3.36,7.23,7.5,7.23s7.5-3.24,7.5-7.23v-22.91c0-3.99-3.36-7.23-7.5-7.23Z"/>
              <path class="cls-1" d="m476.55,297.24c-4.14,0-7.5,3.23-7.5,7.23v22.91c0,3.99,3.36,7.23,7.5,7.23s7.5-3.23,7.5-7.23v-22.91c0-3.99-3.36-7.23-7.5-7.23Z"/>
            </g>
            <path class="cls-1" d="m476.55,682.2c-4.14,0-7.5,3.23-7.5,7.23v12.04c0,3.99,3.36,7.23,7.5,7.23s7.5-3.23,7.5-7.23v-12.04c0-3.99-3.36-7.23-7.5-7.23Z"/>
          </g>
          <g>
            <path class="cls-1" d="m426.15,166.61c-3.04-2.81-7.79-2.62-10.6.43-2.81,3.04-2.62,7.79.43,10.6,2.33,2.15,3.61,5.07,3.61,8.23v496.64c0,6.17-5.02,11.19-11.19,11.19h-151.99c-6.17,0-11.19-5.02-11.19-11.19V195.53c0-4.14-3.36-7.5-7.5-7.5s-7.5,3.36-7.5,7.5v486.97c0,14.44,11.75,26.19,26.19,26.19h151.99c14.44,0,26.19-11.75,26.19-26.19V185.86c0-7.29-3.08-14.31-8.44-19.26Z"/>
            <g>
              <g>
                <path class="cls-1" d="m422.63,205.05h-32.32c-4.14,0-7.5,3.36-7.5,7.5s3.36,7.5,7.5,7.5h32.32c4.14,0,7.5-3.36,7.5-7.5s-3.36-7.5-7.5-7.5Z"/>
                <path class="cls-1" d="m362.07,205.05h-119.9c-4.14,0-7.5,3.36-7.5,7.5s3.36,7.5,7.5,7.5h119.9c4.14,0,7.5-3.36,7.5-7.5s-3.36-7.5-7.5-7.5Z"/>
              </g>
              <g>
                <path class="cls-1" d="m421.06,648.32h-47.05c-4.14,0-7.5,3.36-7.5,7.5s3.36,7.5,7.5,7.5h47.05c4.14,0,7.5-3.36,7.5-7.5s-3.36-7.5-7.5-7.5Z"/>
                <path class="cls-1" d="m279.11,648.32h-35.37c-4.14,0-7.5,3.36-7.5,7.5s3.36,7.5,7.5,7.5h35.37c4.14,0,7.5-3.36,7.5-7.5s-3.36-7.5-7.5-7.5Z"/>
              </g>
            </g>
            <path class="cls-1" d="m424.32,426.68h-183.36c-4.14,0-7.5,3.36-7.5,7.5s3.36,7.5,7.5,7.5h183.36c4.14,0,7.5-3.36,7.5-7.5s-3.36-7.5-7.5-7.5Z"/>
            <g>
              <path class="cls-1" d="m332.4,270.24c-29.29,0-53.12,23.83-53.12,53.12s23.83,53.12,53.12,53.12,53.12-23.83,53.12-53.12-23.83-53.12-53.12-53.12Zm0,91.24c-21.02,0-38.12-17.1-38.12-38.12s17.1-38.12,38.12-38.12,38.12,17.1,38.12,38.12-17.1,38.12-38.12,38.12Z"/>
              <g>
                <path class="cls-1" d="m332.4,295.5c-4.14,0-7.5,3.36-7.5,7.5v40.73c0,4.14,3.36,7.5,7.5,7.5s7.5-3.36,7.5-7.5v-40.73c0-4.14-3.36-7.5-7.5-7.5Z"/>
                <path class="cls-1" d="m352.77,315.86h-40.73c-4.14,0-7.5,3.36-7.5,7.5s3.36,7.5,7.5,7.5h40.73c4.14,0,7.5-3.36,7.5-7.5s-3.36-7.5-7.5-7.5Z"/>
              </g>
            </g>
            <g>
              <path class="cls-1" d="m332.4,491.88c-29.29,0-53.12,23.83-53.12,53.12s23.83,53.12,53.12,53.12,53.12-23.83,53.12-53.12-23.83-53.12-53.12-53.12Zm0,91.24c-21.02,0-38.12-17.1-38.12-38.12s17.1-38.12,38.12-38.12,38.12,17.1,38.12,38.12-17.1,38.12-38.12,38.12Z"/>
              <path class="cls-1" d="m352.77,537.5h-40.73c-4.14,0-7.5,3.36-7.5,7.5s3.36,7.5,7.5,7.5h40.73c4.14,0,7.5-3.36,7.5-7.5s-3.36-7.5-7.5-7.5Z"/>
            </g>
          </g>
        </g>
        <g>
          <path class="cls-1" d="m757.03,108.03c1.24-3.88,4.79-6.21,7.93-5.2,3.31,1.06,6.6,2.29,9.78,3.67,3.03,1.32,4.28,5.44,2.79,9.23-1.49,3.78-5.16,5.78-8.19,4.47-2.88-1.25-5.87-2.37-8.87-3.33s-4.69-4.96-3.45-8.84Z"/>
          <path class="cls-1" d="m796.88,131.83c.27-.84.66-1.66,1.19-2.41,2.29-3.26,6.16-4,8.65-1.67,5.17,4.85,10.12,10.33,14.73,16.29,2.14,2.77,1.75,7.36-.86,10.26-2.62,2.89-6.47,2.99-8.61.22-4.24-5.49-8.79-10.53-13.54-14.98-1.92-1.8-2.45-4.9-1.55-7.72Zm34.25,49.39c.53-1.66,1.53-3.17,2.92-4.2,3.01-2.24,6.69-1.35,8.23,1.97,3.13,6.79,6.04,14.06,8.65,21.58,1.22,3.53-.33,7.93-3.48,9.82-3.15,1.9-6.69.57-7.92-2.96-2.47-7.11-5.21-13.96-8.16-20.35-.83-1.79-.86-3.93-.24-5.87Zm19.14,61.26c.72-2.25,2.3-4.18,4.35-5.02,3.3-1.35,6.57.62,7.31,4.39,1.51,7.68,2.82,15.69,3.88,23.82.51,3.86-1.79,7.86-5.13,8.94-3.34,1.08-6.46-1.18-6.96-5.04-1.02-7.8-2.28-15.49-3.72-22.84-.28-1.42-.16-2.89.27-4.25Zm7.24,66.37c.86-2.7,2.96-4.87,5.46-5.35,3.38-.64,6.22,2.05,6.35,6.01.26,8.06.33,16.36.21,24.67-.06,3.98-2.85,7.55-6.23,7.97-3.38.42-6.07-2.48-6.01-6.46.12-8.04.05-16.07-.2-23.87-.03-1.02.12-2.03.42-2.97Zm-2.18,68.24c.99-3.09,3.56-5.39,6.36-5.43,3.36-.05,5.78,3.16,5.41,7.16-.75,8.18-1.69,16.54-2.78,24.83-.53,4-3.66,7.14-7,7-3.34-.14-5.61-3.5-5.09-7.5,1.06-8.06,1.97-16.18,2.71-24.14.06-.66.19-1.3.39-1.91Zm-10.04,68.41c1.1-3.45,4.12-5.8,7.13-5.38,3.28.46,5.3,4.06,4.51,8.04-1.62,8.14-3.43,16.4-5.36,24.56-.95,3.95-4.33,6.65-7.57,6.02-3.25-.63-5.12-4.35-4.19-8.31,1.88-7.96,3.64-16.01,5.22-23.94.07-.34.15-.67.26-.99Z"/>
          <path class="cls-1" d="m828.38,513.03c1.22-3.81,4.69-6.15,7.82-5.24,3.17.93,4.78,4.84,3.61,8.73-1.19,3.95-2.43,7.94-3.68,11.87-1.24,3.88-4.79,6.21-7.93,5.2s-4.69-4.96-3.45-8.84,2.43-7.74,3.6-11.59c.01-.05.03-.1.04-.14Z"/>
        </g>
      </g>
      <g>
        <path class="cls-1" d="m1022.22,34.14c-4.68-2.93-10.85-1.52-13.78,3.16-2.94,4.68-1.52,10.85,3.16,13.79,1.65,1.03,3.49,1.52,5.3,1.52,3.33,0,6.58-1.66,8.48-4.69,2.94-4.68,1.52-10.85-3.16-13.78Z"/>
        <path class="cls-1" d="m1042.63,96.94c-5.22-1.81-10.92.95-12.73,6.16-1.82,5.22.94,10.92,6.16,12.73,1.09.38,2.19.56,3.28.56,4.14,0,8.01-2.59,9.45-6.72,1.81-5.21-.95-10.91-6.16-12.73Z"/>
        <path class="cls-1" d="m1077.04,42s.03.03.04.04c1.96,1.95,4.52,2.93,7.08,2.93s5.11-.98,7.07-2.93c3.9-3.9,3.9-10.23,0-14.14-.04-.04-.08-.08-.12-.11-3.91-3.9-10.24-3.88-14.14.04-3.89,3.92-3.87,10.25.05,14.14,0,.01.01.02.02.03Z"/>
        <path class="cls-1" d="m1009.47,70.46c-5.21,1.83-7.96,7.54-6.13,12.75,1.45,4.12,5.31,6.69,9.44,6.69,1.1,0,2.21-.18,3.31-.57,5.21-1.82,7.95-7.53,6.12-12.74-1.82-5.21-7.53-7.96-12.74-6.13Z"/>
        <path class="cls-1" d="m1097.66,60.43c-5.49-.61-10.44,3.34-11.05,8.83-.61,5.49,3.34,10.44,8.83,11.05.38.04.75.06,1.12.06,5.03,0,9.36-3.78,9.93-8.89.61-5.49-3.34-10.44-8.83-11.05Z"/>
        <path class="cls-1" d="m1047.49,12.65c-5.49.63-9.43,5.59-8.8,11.08.59,5.1,4.91,8.86,9.93,8.86.38,0,.76-.02,1.15-.07,5.48-.63,9.42-5.58,8.79-11.07-.62-5.49-5.58-9.43-11.07-8.8Z"/>
        <path class="cls-1" d="m1071.28,93.69c-4.67,2.95-6.06,9.12-3.12,13.79,1.9,3.02,5.15,4.67,8.47,4.67,1.82,0,3.67-.5,5.32-1.54,4.68-2.95,6.07-9.12,3.13-13.8-2.95-4.67-9.12-6.06-13.8-3.12Z"/>
      </g>
      <path class="cls-1" d="m1422.62,247.63c-.46-.37-.93-.73-1.41-1.06l1.82-6.56c.18-.65.27-1.33.27-2.01,0-27.49-17.96-43.91-48.06-43.91-5.2,0-10.27.76-15.14,2.25-11.6-24.35-36.34-40.24-63.77-40.24-36.65,0-66.87,28.06-70.3,63.83-19.96,1.87-35.63,18.72-35.63,39.16,0,21.69,17.64,39.33,39.33,39.33h175.47c15.49,0,28.1-12.6,28.1-28.1,0-8.81-3.99-17.29-10.68-22.7Zm-17.41,35.8h-175.47c-13.42,0-24.33-10.91-24.33-24.33s10.91-24.33,24.33-24.33c.86,0,1.76.05,2.67.15,2.12.23,4.24-.45,5.83-1.88,1.59-1.43,2.49-3.46,2.48-5.6v-.71c0-30.67,24.95-55.62,55.62-55.62,23.67,0,44.79,15.02,52.56,37.36.7,2.02,2.24,3.65,4.22,4.47,1.98.82,4.22.75,6.14-.19,5-2.43,10.38-3.66,15.99-3.66,14.87,0,32.56,4.88,33.05,27.92l-1.31,4.7c-2.79-.15-5.69.08-8.63.71-4.05.87-6.63,4.85-5.76,8.9.87,4.05,4.85,6.63,8.91,5.76,4.7-1.01,8.64-.27,11.69,2.2,3.15,2.55,5.11,6.78,5.11,11.04,0,7.22-5.87,13.1-13.1,13.1Z"/>
    </g>
  </g>
</svg>