<?xml version="1.0" encoding="UTF-8"?>
<svg id="Layer_2" data-name="Layer 2" xmlns="http://www.w3.org/2000/svg" viewBox="0 0 1531.88 1250.76">
  <defs>
    <style>
      .cls-1, .cls-2 {
        fill: #231f20;
      }

      .cls-2 {
        stroke: #231f20;
        stroke-miterlimit: 10;
        stroke-width: 10px;
      }
    </style>
  </defs>
  <g id="ROUTE">
    <g>
      <g>
        <g>
          <g>
            <path class="cls-2" d="m951.55,739.24h-51.35c-4.14,0-7.5,3.36-7.5,7.5s3.36,7.5,7.5,7.5h51.35c4.14,0,7.5-3.36,7.5-7.5s-3.36-7.5-7.5-7.5Z"/>
            <path class="cls-2" d="m819.05,739.24h-74.95c-4.14,0-7.5,3.36-7.5,7.5s3.36,7.5,7.5,7.5h74.95c4.14,0,7.5-3.36,7.5-7.5s-3.36-7.5-7.5-7.5Z"/>
            <path class="cls-2" d="m692,739.24H34.88c-4.14,0-7.5,3.36-7.5,7.5s3.36,7.5,7.5,7.5h657.12c4.14,0,7.5-3.36,7.5-7.5s-3.36-7.5-7.5-7.5Z"/>
          </g>
          <g>
            <path class="cls-2" d="m274.58,464.62h-.03c-2.82,0-5.4,1.6-6.67,4.12-33.21,65.88-42.14,83.59-42.14,108.92,0,27.08,22.03,49.11,49.11,49.11s49.11-22.03,49.11-49.11c0-24.7-8.16-41.55-42.71-108.97-1.28-2.5-3.86-4.08-6.67-4.08Zm.28,147.16c-18.81,0-34.11-15.3-34.11-34.11s6.12-33.71,33.89-88.98c27.57,53.98,34.33,69.28,34.33,88.98s-15.3,34.11-34.11,34.11Z"/>
            <path class="cls-2" d="m274.85,420.13c-25.4,0-49.87,7.55-70.76,21.82-3.42,2.34-4.3,7-1.96,10.42,2.34,3.42,7,4.3,10.42,1.96,18.39-12.57,39.93-19.21,62.3-19.21,52.73,0,98.36,37.49,108.49,89.15.7,3.58,3.84,6.06,7.35,6.06.48,0,.96-.05,1.45-.14,4.06-.8,6.71-4.74,5.92-8.8-11.51-58.67-63.33-101.26-123.21-101.26Z"/>
            <path class="cls-2" d="m392.9,553.51c-4.11-.53-7.87,2.37-8.4,6.48-7.08,54.88-54.22,96.27-109.65,96.27-35.25,0-67.57-16.22-88.67-44.51-2.48-3.32-7.18-4-10.5-1.53-3.32,2.48-4,7.18-1.53,10.5,23.97,32.12,60.67,50.54,100.7,50.54,62.95,0,116.48-47.01,124.52-109.35.53-4.11-2.37-7.87-6.48-8.4Z"/>
            <path class="cls-2" d="m187.2,466.25c-3.24-2.58-7.96-2.05-10.54,1.18-17.9,22.44-27.37,49.5-27.37,78.26,0,5.46.35,10.96,1.06,16.35.49,3.78,3.72,6.53,7.43,6.53.32,0,.65-.02.98-.06,4.11-.53,7-4.3,6.47-8.41-.62-4.74-.93-9.59-.93-14.41,0-25.33,8.33-49.16,24.09-68.91,2.58-3.24,2.05-7.96-1.18-10.54Z"/>
          </g>
          <path class="cls-2" d="m1132.32,421.49c-7.39-32.68-25.83-62.2-51.92-83.12-26.12-20.95-58.95-32.48-92.42-32.48H165.88c-70.51,0-131.52,50.06-145.06,119.04-10.08,51.3-15.39,103.78-15.79,155.99-.43,56.29,4.83,112.89,15.65,168.23,13.57,69.41,74.64,119.79,145.21,119.79h723.81c4.14,0,7.5-3.36,7.5-7.5s-3.36-7.5-7.5-7.5H165.89c-63.42,0-118.3-45.28-130.49-107.67-10.62-54.36-15.8-109.96-15.37-165.24.39-51.28,5.61-102.83,15.51-153.22,12.17-61.96,66.99-106.93,130.34-106.93h822.1c62.53,0,115.87,42.73,129.71,103.91,11.07,48.95,17.14,99.15,18.05,149.21.35,19.58-.08,39.4-1.29,58.92-.26,4.13,2.89,7.69,7.02,7.95,4.12.24,7.69-2.89,7.95-7.02,1.24-19.92,1.68-40.15,1.32-60.13-.93-51.08-7.12-102.3-18.42-152.24Z"/>
          <g>
            <path class="cls-2" d="m154.55,357.09c-45.42,14.18-79.38,50.22-88.62,94.05-5.5,26.1-9.46,52.76-11.76,79.24-.36,4.13,2.7,7.76,6.82,8.12.22.02.44.03.66.03,3.85,0,7.12-2.95,7.46-6.85,2.25-25.88,6.12-51.93,11.49-77.44,8.12-38.52,38.16-70.26,78.41-82.83,3.95-1.23,6.16-5.44,4.92-9.39-1.23-3.95-5.44-6.16-9.39-4.92Z"/>
            <path class="cls-2" d="m66.96,605.71c-.12-4.14-3.54-7.4-7.71-7.28-4.14.12-7.4,3.57-7.28,7.71.54,19.04,1.93,38.31,4.14,57.27.44,3.82,3.69,6.64,7.44,6.64.29,0,.58-.02.87-.05,4.11-.48,7.06-4.2,6.58-8.32-2.15-18.53-3.51-37.36-4.04-55.97Z"/>
            <path class="cls-2" d="m196.9,809.16c-17.83,0-34.99-3.6-51.01-10.71-3.79-1.68-8.22.03-9.9,3.82-1.68,3.79.03,8.22,3.82,9.9,17.95,7.96,37.16,11.99,57.09,11.99,4.14,0,7.5-3.36,7.5-7.5s-3.36-7.5-7.5-7.5Z"/>
            <path class="cls-2" d="m868.96,350.67h-485.07c-4.14,0-7.5,3.36-7.5,7.5s3.36,7.5,7.5,7.5h485.07c4.14,0,7.5-3.36,7.5-7.5s-3.36-7.5-7.5-7.5Z"/>
            <path class="cls-2" d="m311.94,350.67h-97.68c-4.14,0-7.5,3.36-7.5,7.5s3.36,7.5,7.5,7.5h97.68c4.14,0,7.5-3.36,7.5-7.5s-3.36-7.5-7.5-7.5Z"/>
          </g>
        </g>
        <path class="cls-2" d="m199.49,251.13c-4.14,0-7.5,3.36-7.5,7.5v53.65c0,4.14,3.36,7.5,7.5,7.5s7.5-3.36,7.5-7.5v-53.65c0-4.14-3.36-7.5-7.5-7.5Z"/>
        <path class="cls-2" d="m336.34,251.13c-4.14,0-7.5,3.36-7.5,7.5v53.65c0,4.14,3.36,7.5,7.5,7.5s7.5-3.36,7.5-7.5v-53.65c0-4.14-3.36-7.5-7.5-7.5Z"/>
        <path class="cls-2" d="m373.48,248.32h-211.13c-4.14,0-7.5,3.36-7.5,7.5s3.36,7.5,7.5,7.5h211.13c4.14,0,7.5-3.36,7.5-7.5s-3.36-7.5-7.5-7.5Z"/>
        <path class="cls-2" d="m324.84,207.46c-1.41-1.98-3.69-3.16-6.11-3.16h-101.63c-2.43,0-4.71,1.18-6.11,3.16l-31.27,44.02c-2.4,3.38-1.61,8.06,1.77,10.46,3.38,2.4,8.06,1.61,10.46-1.77l29.03-40.86h93.88l29.03,40.86c1.46,2.06,3.77,3.16,6.12,3.16,1.5,0,3.02-.45,4.34-1.39,3.38-2.4,4.17-7.08,1.77-10.46l-31.27-44.02Z"/>
        <g>
          <path class="cls-2" d="m420.58,858.3c-4.14,0-7.5,3.36-7.5,7.5v22.97c0,8.43-6.86,15.29-15.29,15.29h-164.13c-8.43,0-15.29-6.86-15.29-15.29v-22.97c0-4.14-3.36-7.5-7.5-7.5s-7.5,3.36-7.5,7.5v22.97c0,16.7,13.59,30.29,30.29,30.29h164.13c16.7,0,30.29-13.59,30.29-30.29v-22.97c0-4.14-3.36-7.5-7.5-7.5Z"/>
          <path class="cls-2" d="m880.86,904.07h-122.78c-8.43,0-15.29-6.86-15.29-15.29v-22.97c0-4.14-3.36-7.5-7.5-7.5s-7.5,3.36-7.5,7.5v22.97c0,16.7,13.59,30.29,30.29,30.29h122.78c4.14,0,7.5-3.36,7.5-7.5s-3.36-7.5-7.5-7.5Z"/>
        </g>
      </g>
      <path class="cls-2" d="m1430.4,715.56c-30.23-30.03-65.42-53.54-104.57-69.87-40.56-16.92-83.61-25.38-127.94-25.05-87.03.58-168.62,34.8-229.74,96.35-61.12,61.54-94.78,143.37-94.78,230.41,0,42.2,7.93,83.28,23.58,122.1,5.74,14.25,19.34,23.46,34.63,23.46h180.51c3.82,45.22,41.84,80.85,88.04,80.85s84.22-35.63,88.04-80.85h180.51c15.29,0,28.89-9.23,34.65-23.51,15.63-38.8,23.56-79.86,23.56-122.05,0-44.3-8.71-87.27-25.9-127.71-16.6-39.05-40.35-74.09-70.59-104.12Zm-232.45-87.42h0,0Zm291.47,435.7c-3.45,8.57-11.59,14.11-20.74,14.11h-187.7c-4.14,0-7.5,3.36-7.5,7.5,0,40.45-32.91,73.35-73.35,73.35s-73.35-32.91-73.35-73.35c0-4.14-3.36-7.5-7.5-7.5h-187.7c-9.14,0-17.27-5.52-20.72-14.07-14.92-37.02-22.49-76.22-22.49-116.49,0-170.76,138.89-310.61,309.62-311.75.72,0,1.44,0,2.16,0,82.89,0,160.84,32.12,219.69,90.57,59.36,58.97,92.06,137.52,92.06,221.19,0,40.26-7.56,79.43-22.47,116.44Z"/>
      <path class="cls-1" d="m1200.12,658.96c-.48,0-.97,0-1.44,0-72.69.38-140.96,28.96-192.25,80.5-51.31,51.56-79.56,120.01-79.56,192.74,0,25.1,3.4,49.97,10.12,73.92,8.01,28.55,34.36,48.5,64.08,48.5h162.13c4.14,0,7.5-3.36,7.5-7.5s-3.36-7.5-7.5-7.5h-162.13c-23.03,0-43.44-15.44-49.64-37.55-6.35-22.63-9.56-46.14-9.56-69.87,0-141.66,115.24-257.51,256.88-258.25.45,0,.91,0,1.36,0,68.43,0,132.95,26.66,181.79,75.15,49.16,48.8,76.31,113.63,76.45,182.54.05,23.83-3.14,47.44-9.49,70.16-6.22,22.26-26.66,37.81-49.71,37.81h-160.97c-4.14,0-7.5,3.36-7.5,7.5s3.36,7.5,7.5,7.5h160.97c29.76,0,56.14-20.06,64.16-48.77,6.72-24.05,10.09-49.02,10.04-74.23-.15-72.93-28.88-141.53-80.89-193.16-51.68-51.31-119.94-79.51-192.36-79.51Z"/>
      <g>
        <path class="cls-1" d="m1353.93,756.6c-42.19-41.87-96.77-64.88-153.82-64.88-.39,0-.8,0-1.19,0-60.63.34-117.55,26.11-160.27,72.56-42.59,46.31-66.04,107.75-66.04,173.01,0,22.51,2.82,44.81,8.39,66.29.86,3.31,3.84,5.62,7.26,5.62h53.83c4.14,0,7.5-3.36,7.5-7.5s-3.36-7.5-7.5-7.5h-47.95c-4.33-18.51-6.52-37.62-6.52-56.91,0-126.48,94.83-229.92,211.39-230.57.37,0,.73,0,1.1,0,53.06,0,103.9,21.47,143.25,60.53,43.9,43.57,69.15,105.37,69.28,169.55.04,21.33-2.6,42.45-7.85,62.79-1.04,4.01,1.38,8.1,5.39,9.14,4.01,1.04,8.1-1.38,9.14-5.39,5.57-21.57,8.37-43.96,8.32-66.57-.07-34.76-6.78-68.38-19.96-99.92-12.74-30.49-30.82-57.49-53.75-80.25Z"/>
        <path class="cls-1" d="m1411.23,994.2h-53.83c-4.14,0-7.5,3.36-7.5,7.5s3.36,7.5,7.5,7.5h53.83c4.14,0,7.5-3.36,7.5-7.5s-3.36-7.5-7.5-7.5Z"/>
      </g>
      <path class="cls-1" d="m1200.12,1026.97c-32.25,0-58.48,26.23-58.48,58.48s26.23,58.48,58.48,58.48,58.48-26.23,58.48-58.48-26.23-58.48-58.48-58.48Zm0,101.96c-23.97,0-43.48-19.5-43.48-43.48s19.5-43.48,43.48-43.48,43.48,19.5,43.48,43.48-19.5,43.48-43.48,43.48Z"/>
      <path class="cls-1" d="m1211.62,1079.58h-10.15l9.8-17.4c2.03-3.61.75-8.18-2.86-10.21-3.61-2.03-8.18-.75-10.22,2.86l-16.09,28.58c-1.31,2.32-1.28,5.16.06,7.46,1.35,2.3,3.81,3.71,6.48,3.71h12.15l-5.71,15.17c-1.46,3.88.5,8.2,4.38,9.66.87.33,1.76.48,2.64.48,3.03,0,5.89-1.85,7.02-4.86l9.53-25.31c.87-2.3.55-4.89-.85-6.91-1.4-2.02-3.71-3.23-6.17-3.23Z"/>
      <path class="cls-1" d="m1207.59,755.36c-.34-3.87-3.58-6.85-7.47-6.85s-7.13,2.97-7.47,6.85l-24.53,280.55c-.36,4.13,2.69,7.76,6.82,8.12,4.12.35,7.76-2.69,8.12-6.82l17.06-195.12,17.21,196.75c.34,3.9,3.62,6.85,7.46,6.85.22,0,.44,0,.66-.03,4.13-.36,7.18-4,6.82-8.12l-24.68-282.18Z"/>
      <path class="cls-1" d="m1198.72,658.97c-4.14,0-7.5,3.36-7.5,7.5v28.69c0,4.14,3.36,7.5,7.5,7.5s7.5-3.36,7.5-7.5v-28.69c0-4.14-3.36-7.5-7.5-7.5Z"/>
      <path class="cls-1" d="m1351.11,718.85l-20.29,20.29c-2.93,2.93-2.93,7.68,0,10.61,1.46,1.46,3.38,2.2,5.3,2.2s3.84-.73,5.3-2.2l20.29-20.29c2.93-2.93,2.93-7.68,0-10.61-2.93-2.93-7.68-2.93-10.61,0Z"/>
      <g>
        <path class="cls-1" d="m1458.63,868.95h-35.92c-4.14,0-7.5,3.36-7.5,7.5s3.36,7.5,7.5,7.5h35.92c4.14,0,7.5-3.36,7.5-7.5s-3.36-7.5-7.5-7.5Z"/>
        <path class="cls-1" d="m980.11,870.35h-37.41c-4.14,0-7.5,3.36-7.5,7.5s3.36,7.5,7.5,7.5h37.41c4.14,0,7.5-3.36,7.5-7.5s-3.36-7.5-7.5-7.5Z"/>
      </g>
      <path class="cls-1" d="m1051.31,714.85c-2.93-2.93-7.68-2.93-10.61,0-2.93,2.93-2.93,7.68,0,10.61l20.29,20.28c1.46,1.46,3.38,2.2,5.3,2.2s3.84-.73,5.3-2.2c2.93-2.93,2.93-7.68,0-10.61l-20.29-20.28Z"/>
      <path class="cls-2" d="m878.86,978.57h-172.16c-4.14,0-7.5,3.36-7.5,7.5s3.36,7.5,7.5,7.5h172.16c4.14,0,7.5-3.36,7.5-7.5s-3.36-7.5-7.5-7.5Z"/>
      <path class="cls-2" d="m572.7,978.57H248.86c-4.14,0-7.5,3.36-7.5,7.5s3.36,7.5,7.5,7.5h323.84c4.14,0,7.5-3.36,7.5-7.5s-3.36-7.5-7.5-7.5Z"/>
      <path class="cls-2" d="m658.7,978.57h-37c-4.14,0-7.5,3.36-7.5,7.5s3.36,7.5,7.5,7.5h37c4.14,0,7.5-3.36,7.5-7.5s-3.36-7.5-7.5-7.5Z"/>
      <g>
        <path class="cls-2" d="m621.7,1230.76h-210.92c-4.14,0-7.5,3.36-7.5,7.5s3.36,7.5,7.5,7.5h210.92c4.14,0,7.5-3.36,7.5-7.5s-3.36-7.5-7.5-7.5Z"/>
        <path class="cls-2" d="m516.24,1174H121.68c-4.14,0-7.5,3.36-7.5,7.5s3.36,7.5,7.5,7.5h394.56c4.14,0,7.5-3.36,7.5-7.5s-3.36-7.5-7.5-7.5Z"/>
      </g>
      <g>
        <path class="cls-1" d="m1366.12,120.03c-1.83-5.21-7.53-7.96-12.75-6.13-5.21,1.83-7.95,7.54-6.12,12.75,1.45,4.12,5.31,6.69,9.44,6.69,1.1,0,2.21-.18,3.31-.57,5.21-1.83,7.95-7.53,6.12-12.75h0Z"/>
        <path class="cls-1" d="m1366.13,77.58c-4.68-2.93-10.85-1.52-13.79,3.16-2.93,4.68-1.51,10.85,3.17,13.78,1.65,1.04,3.48,1.53,5.3,1.53,3.33,0,6.58-1.66,8.48-4.69,2.93-4.68,1.52-10.85-3.16-13.78Z"/>
        <path class="cls-1" d="m1420.95,85.44s.03.03.04.04c1.95,1.95,4.51,2.93,7.07,2.93s5.12-.98,7.07-2.93c3.91-3.9,3.91-10.23.01-14.14-.02,0-.03-.03-.04-.04-.03-.02-.05-.05-.08-.07-3.91-3.9-10.24-3.88-14.14.04-3.89,3.92-3.87,10.25.04,14.14.01,0,.02.02.03.03Z"/>
        <path class="cls-1" d="m1415.19,137.13c-4.67,2.95-6.07,9.12-3.12,13.79,1.9,3.02,5.15,4.67,8.47,4.67,1.82,0,3.67-.5,5.32-1.54,4.67-2.95,6.07-9.13,3.12-13.8-2.94-4.67-9.12-6.07-13.79-3.12Z"/>
        <path class="cls-1" d="m1386.54,140.38c-5.22-1.81-10.92.95-12.73,6.16-1.82,5.22.94,10.92,6.16,12.73,1.08.38,2.19.56,3.28.56,4.14,0,8.01-2.59,9.45-6.72,1.81-5.21-.95-10.91-6.16-12.73Z"/>
        <path class="cls-1" d="m1441.57,103.87c-5.49-.61-10.44,3.34-11.05,8.83-.61,5.49,3.34,10.43,8.83,11.05.38.04.75.06,1.12.06,5.03,0,9.36-3.78,9.93-8.89.61-5.49-3.34-10.44-8.83-11.05Z"/>
        <path class="cls-1" d="m1391.4,56.09c-5.49.63-9.43,5.59-8.8,11.07.59,5.11,4.91,8.87,9.93,8.87.38,0,.76-.02,1.15-.07,5.48-.63,9.42-5.58,8.79-11.07-.63-5.49-5.59-9.43-11.07-8.8Z"/>
      </g>
      <g>
        <path class="cls-1" d="m537.12,47.84c-5.49-.61-10.44,3.34-11.05,8.83-.61,5.49,3.34,10.44,8.83,11.05.37.04.75.06,1.12.06,5.02,0,9.35-3.78,9.93-8.89.61-5.49-3.35-10.43-8.83-11.05Z"/>
        <path class="cls-1" d="m461.67,21.55c-4.68-2.93-10.85-1.52-13.78,3.16-2.93,4.69-1.52,10.85,3.17,13.79,1.65,1.03,3.48,1.52,5.29,1.52,3.33,0,6.59-1.66,8.49-4.69,2.93-4.68,1.51-10.85-3.17-13.78Z"/>
        <path class="cls-1" d="m516.5,29.41s.02.03.04.04c.02.02.04.04.06.06,1.95,1.92,4.48,2.87,7.01,2.87s5.12-.98,7.07-2.93c3.88-3.88,3.91-10.16.07-14.07-.02-.02-.05-.05-.07-.07-.01-.01-.03-.03-.04-.04-.02-.02-.05-.05-.07-.07-3.92-3.89-10.25-3.88-14.14.04-3.9,3.92-3.88,10.25.04,14.14,0,0,.02.02.03.03Z"/>
        <path class="cls-1" d="m448.92,57.87c-5.21,1.83-7.95,7.54-6.12,12.75,1.44,4.12,5.31,6.69,9.43,6.69,1.1,0,2.22-.18,3.32-.56,5.21-1.84,7.95-7.54,6.12-12.75-1.83-5.22-7.54-7.96-12.75-6.13Z"/>
        <path class="cls-1" d="m510.74,81.1c-4.67,2.95-6.07,9.13-3.13,13.8,1.91,3.01,5.15,4.66,8.47,4.66,1.83,0,3.67-.5,5.33-1.54,4.67-2.95,6.07-9.12,3.12-13.8-2.95-4.67-9.12-6.07-13.79-3.12Z"/>
        <path class="cls-1" d="m486.94.06c-5.48.63-9.42,5.59-8.79,11.08.58,5.1,4.91,8.86,9.92,8.86.38,0,.77-.02,1.15-.07,5.49-.63,9.43-5.58,8.8-11.07-.63-5.49-5.59-9.42-11.08-8.8Z"/>
        <path class="cls-1" d="m482.08,84.36h0c-5.22-1.82-10.91.94-12.73,6.15-1.81,5.22.95,10.92,6.16,12.73,1.09.38,2.2.56,3.29.56,4.14,0,8.01-2.59,9.44-6.72,1.82-5.21-.94-10.91-6.16-12.72Z"/>
      </g>
      <g>
        <path class="cls-1" d="m31.47,1075.32c-5.21,1.82-7.95,7.53-6.12,12.74,1.45,4.12,5.31,6.69,9.44,6.69,1.1,0,2.21-.18,3.31-.56,5.21-1.83,7.95-7.54,6.12-12.75-1.83-5.21-7.53-7.96-12.75-6.12Z"/>
        <path class="cls-1" d="m99.02,1046.83s.02.02.03.03c0,0,.03.02.04.04,1.95,1.95,4.51,2.92,7.07,2.92s5.12-.97,7.07-2.92c3.91-3.91,3.91-10.24,0-14.15,0,0-.02-.02-.03-.03-.03-.03-.05-.05-.08-.07-3.91-3.9-10.24-3.88-14.13.04-3.87,3.88-3.88,10.15-.05,14.05.03.03.06.06.08.09Z"/>
        <path class="cls-1" d="m44.23,1038.99c-4.68-2.93-10.85-1.51-13.78,3.16h-.01c-2.93,4.68-1.51,10.85,3.17,13.79,1.65,1.03,3.48,1.53,5.3,1.53,3.33,0,6.58-1.67,8.48-4.7,2.93-4.67,1.52-10.85-3.16-13.78Z"/>
        <path class="cls-1" d="m93.29,1098.54c-4.67,2.95-6.07,9.13-3.12,13.8,1.9,3.01,5.15,4.66,8.47,4.66,1.82,0,3.66-.49,5.32-1.54,4.67-2.94,6.07-9.12,3.12-13.79-2.94-4.67-9.12-6.07-13.79-3.13Z"/>
        <path class="cls-1" d="m64.64,1101.8c-5.22-1.82-10.92.94-12.73,6.16-1.82,5.21.94,10.91,6.15,12.73h.01c1.08.37,2.19.55,3.28.55,4.14,0,8.01-2.59,9.45-6.72,1.81-5.21-.95-10.91-6.16-12.72Z"/>
        <path class="cls-1" d="m119.67,1065.29c-5.49-.62-10.44,3.34-11.05,8.82-.61,5.49,3.34,10.44,8.83,11.05.38.04.75.07,1.13.07,5.02,0,9.35-3.79,9.92-8.9.61-5.49-3.34-10.43-8.83-11.04Z"/>
        <path class="cls-1" d="m69.5,1017.51c-5.49.62-9.42,5.58-8.8,11.07.59,5.1,4.91,8.86,9.93,8.86.38,0,.76-.02,1.15-.06,5.48-.63,9.42-5.59,8.79-11.08-.63-5.48-5.58-9.42-11.07-8.79Z"/>
      </g>
      <g>
        <path class="cls-1" d="m747.4,1152.49c-5.21,1.82-7.95,7.53-6.13,12.74,1.45,4.12,5.31,6.69,9.44,6.69,1.1,0,2.21-.18,3.31-.56,5.21-1.83,7.95-7.54,6.12-12.75-1.83-5.21-7.53-7.95-12.74-6.12Z"/>
        <path class="cls-1" d="m814.94,1124s.05.04.07.07c1.96,1.95,4.52,2.93,7.07,2.93s5.12-.98,7.08-2.93c3.9-3.91,3.9-10.24,0-14.14-.02-.02-.03-.03-.04-.04-.02-.02-.05-.05-.07-.07-3.92-3.9-10.25-3.88-14.14.04-3.9,3.91-3.88,10.24.04,14.14h-.01Z"/>
        <path class="cls-1" d="m760.15,1116.16c-4.68-2.93-10.85-1.51-13.78,3.17h-.01c-2.93,4.67-1.51,10.85,3.17,13.78,1.65,1.03,3.49,1.53,5.3,1.53,3.33,0,6.59-1.66,8.48-4.7,2.93-4.67,1.52-10.84-3.16-13.78Z"/>
        <path class="cls-1" d="m835.59,1142.46c-5.49-.62-10.43,3.33-11.05,8.83-.61,5.48,3.34,10.43,8.83,11.04.38.05.75.07,1.12.07,5.03,0,9.36-3.78,9.93-8.9h0c.61-5.48-3.34-10.43-8.83-11.04Z"/>
        <path class="cls-1" d="m809.21,1175.71h0c-4.67,2.95-6.07,9.13-3.12,13.8,1.9,3.01,5.15,4.66,8.47,4.66,1.82,0,3.67-.49,5.32-1.54,4.67-2.94,6.07-9.12,3.13-13.79-2.95-4.67-9.13-6.07-13.8-3.13Z"/>
        <path class="cls-1" d="m785.42,1094.68c-5.48.63-9.42,5.59-8.8,11.07.59,5.1,4.91,8.86,9.93,8.86.38,0,.76-.02,1.15-.06,5.48-.63,9.42-5.59,8.8-11.07-.63-5.49-5.59-9.43-11.08-8.8Z"/>
        <path class="cls-1" d="m780.56,1178.97c-5.22-1.82-10.92.94-12.73,6.16-1.82,5.21.94,10.91,6.16,12.73,1.08.37,2.19.55,3.28.55,4.14,0,8.01-2.58,9.45-6.72,1.81-5.21-.95-10.91-6.16-12.72Z"/>
      </g>
      <g>
        <path class="cls-1" d="m44.23,141.74c-4.68-2.94-10.85-1.52-13.78,3.16h-.01c-2.93,4.68-1.51,10.85,3.17,13.78,1.65,1.04,3.48,1.53,5.3,1.53,3.33,0,6.58-1.66,8.48-4.69,2.93-4.68,1.52-10.85-3.16-13.78Z"/>
        <path class="cls-1" d="m99.05,149.6s.03.03.04.04c1.95,1.95,4.51,2.93,7.07,2.93s5.12-.98,7.07-2.93c3.88-3.88,3.91-10.15.08-14.07-.03-.02-.05-.05-.08-.07,0-.02-.02-.03-.03-.04-.03-.02-.05-.05-.07-.07-3.92-3.89-10.25-3.87-14.15.04-3.89,3.92-3.87,10.25.04,14.14.01,0,.02.02.03.03Z"/>
        <path class="cls-1" d="m31.47,178.06c-5.21,1.83-7.95,7.54-6.12,12.75,1.45,4.11,5.31,6.69,9.43,6.69,1.1,0,2.22-.18,3.32-.57,5.21-1.83,7.95-7.53,6.12-12.75-1.83-5.21-7.53-7.95-12.75-6.12Z"/>
        <path class="cls-1" d="m64.63,204.54c-5.21-1.81-10.91.94-12.73,6.16-1.81,5.22.95,10.91,6.17,12.73,1.08.38,2.19.56,3.28.56,4.14,0,8.01-2.59,9.44-6.72,1.82-5.22-.94-10.92-6.16-12.73Z"/>
        <path class="cls-1" d="m119.67,168.03c-5.49-.61-10.44,3.34-11.05,8.83-.61,5.49,3.34,10.44,8.83,11.05.38.04.75.06,1.12.06,5.03,0,9.36-3.78,9.93-8.89.61-5.49-3.34-10.43-8.83-11.05Z"/>
        <path class="cls-1" d="m93.29,201.29c-4.67,2.94-6.07,9.12-3.12,13.79,1.9,3.02,5.15,4.67,8.47,4.67,1.82,0,3.66-.5,5.32-1.54,4.67-2.95,6.07-9.12,3.13-13.8-2.95-4.67-9.13-6.07-13.8-3.12Z"/>
        <path class="cls-1" d="m69.5,120.25c-5.49.63-9.43,5.59-8.8,11.08.59,5.09,4.91,8.86,9.93,8.86.38,0,.76-.02,1.15-.07,5.48-.63,9.42-5.59,8.79-11.07-.63-5.49-5.58-9.43-11.07-8.8Z"/>
      </g>
      <g>
        <path class="cls-1" d="m1454.12,484.96c-4.14,0-7.5,3.36-7.5,7.5v48c0,4.14,3.36,7.5,7.5,7.5s7.5-3.36,7.5-7.5v-48c0-4.14-3.36-7.5-7.5-7.5Z"/>
        <path class="cls-1" d="m1478.62,509.46h-48c-4.14,0-7.5,3.36-7.5,7.5s3.36,7.5,7.5,7.5h48c4.14,0,7.5-3.36,7.5-7.5s-3.36-7.5-7.5-7.5Z"/>
      </g>
      <g>
        <path class="cls-1" d="m1422.21,1150c-4.14,0-7.5,3.36-7.5,7.5v48c0,4.14,3.36,7.5,7.5,7.5s7.5-3.36,7.5-7.5v-48c0-4.14-3.36-7.5-7.5-7.5Z"/>
        <path class="cls-1" d="m1446.71,1174.5h-48c-4.14,0-7.5,3.36-7.5,7.5s3.36,7.5,7.5,7.5h48c4.14,0,7.5-3.36,7.5-7.5s-3.36-7.5-7.5-7.5Z"/>
      </g>
      <g>
        <path class="cls-1" d="m358.66,1035.08c-4.14,0-7.5,3.36-7.5,7.5v48c0,4.14,3.36,7.5,7.5,7.5s7.5-3.36,7.5-7.5v-48c0-4.14-3.36-7.5-7.5-7.5Z"/>
        <path class="cls-1" d="m383.16,1059.58h-48c-4.14,0-7.5,3.36-7.5,7.5s3.36,7.5,7.5,7.5h48c4.14,0,7.5-3.36,7.5-7.5s-3.36-7.5-7.5-7.5Z"/>
      </g>
      <g>
        <path class="cls-1" d="m1034.26,37.15c-4.14,0-7.5,3.36-7.5,7.5v48c0,4.14,3.36,7.5,7.5,7.5s7.5-3.36,7.5-7.5v-48c0-4.14-3.36-7.5-7.5-7.5Z"/>
        <path class="cls-1" d="m1058.76,61.65h-48c-4.14,0-7.5,3.36-7.5,7.5s3.36,7.5,7.5,7.5h48c4.14,0,7.5-3.36,7.5-7.5s-3.36-7.5-7.5-7.5Z"/>
      </g>
      <path class="cls-1" d="m1389.13,584.98c-.43.05-.88.07-1.33.04-4.53-.27-8.14-4.66-8.05-9.8.02-1.01.03-2.01.04-3.01.06-5.15,3.78-9.13,8.31-8.91,4.53.23,8.17,4.59,8.11,9.74-.01,1.05-.03,2.09-.04,3.14-.08,4.63-3.12,8.3-7.03,8.79Zm-2.76-59.01s-.07,0-.11.01c-4.5.5-8.62-3.26-9.2-8.39-.18-1.57-.37-3.13-.56-4.69-1.07-8.52-2.42-17.03-4.01-25.3-.97-5.07,1.83-9.94,6.26-10.88,4.43-.93,8.81,2.41,9.78,7.47,1.67,8.72,3.09,17.68,4.22,26.66.21,1.64.4,3.28.59,4.93.58,5.09-2.54,9.62-6.98,10.18Zm-19.22-84.68c-3.65.46-7.32-1.95-8.77-6.05-3.33-9.43-7.09-18.76-11.17-27.74-2.11-4.64-.57-10.22,3.44-12.47,4.01-2.25,8.98-.32,11.09,4.32,4.34,9.52,8.33,19.43,11.86,29.43,1.71,4.84-.32,10.2-4.52,11.98-.63.27-1.28.44-1.93.52Zm-38.21-76.46c-2.82.35-5.76-.97-7.64-3.77-5.4-8.05-11.25-15.95-17.37-23.47-3.13-3.85-3-9.75.28-13.18,3.28-3.43,8.48-3.09,11.61.76,6.48,7.98,12.68,16.35,18.41,24.88,2.79,4.16,2.16,10-1.41,13.04-1.17,1-2.51,1.57-3.89,1.74Zm-54.66-62.65c-2.09.26-4.29-.39-6.11-2.01-6.99-6.24-14.37-12.29-21.95-18-3.84-2.89-4.99-8.69-2.58-12.96,2.42-4.27,7.49-5.39,11.32-2.5,7.97,5.99,15.73,12.36,23.09,18.92,3.62,3.23,4.35,9.11,1.62,13.12-1.36,2-3.32,3.16-5.39,3.42Zm-65.9-46.48c-1.5.19-3.07-.09-4.55-.91-7.99-4.41-16.33-8.62-24.77-12.52-4.25-1.96-6.41-7.42-4.82-12.18,1.59-4.77,6.32-7.04,10.57-5.08,8.79,4.06,17.48,8.45,25.81,13.04,4.13,2.28,5.96,7.88,4.09,12.5-1.2,2.97-3.64,4.81-6.32,5.15Zm-72.3-31.13c-1.03.13-2.11.04-3.18-.31-8.54-2.77-17.38-5.35-26.26-7.66-4.45-1.16-7.35-6.16-6.48-11.19.87-5.02,5.19-8.16,9.64-7,9.18,2.38,18.31,5.05,27.14,7.91,4.4,1.43,7.06,6.6,5.95,11.55-.84,3.75-3.6,6.29-6.8,6.69Zm-477.34,39.63c-3.72.47-7.45-2.05-8.84-6.26-1.61-4.88.53-10.18,4.77-11.85,8.59-3.38,17.3-6.68,25.89-9.8,4.27-1.56,8.97,1.16,10.48,6.08,1.51,4.91-.73,10.16-5.01,11.72-8.47,3.08-17.06,6.34-25.54,9.67-.58.23-1.16.38-1.75.45Zm401.95-57.48c-.66.08-1.34.07-2.03-.03-8.8-1.38-17.86-2.57-26.91-3.52-4.53-.48-7.98-5.03-7.7-10.16.27-5.13,4.17-8.91,8.69-8.42,9.29.99,18.59,2.2,27.64,3.62,4.51.71,7.78,5.42,7.31,10.53-.4,4.32-3.36,7.54-6.99,8Zm-329.45,31.95c-3.94.49-7.81-2.34-9.01-6.84-1.33-4.98,1.11-10.1,5.45-11.45,8.81-2.74,17.72-5.37,26.46-7.82,4.37-1.22,8.9,1.84,10.12,6.85,1.22,5.01-1.33,10.06-5.7,11.28-8.62,2.41-17.39,5.01-26.07,7.7-.42.13-.83.22-1.25.27Zm252.94-38.65c-.35.04-.71.06-1.07.05-8.89-.2-17.99-.22-27.05-.04-4.53.09-8.39-4.02-8.61-9.17-.23-5.15,3.26-9.43,7.79-9.49,9.26-.18,18.56-.17,27.66.04,4.53.1,8.26,4.36,8.32,9.52.05,4.74-3.01,8.58-7.04,9.09Zm-178.93,18.87c-4.18.53-8.2-2.69-9.16-7.49-1.01-5.06,1.75-9.96,6.17-10.95,8.99-2,18.07-3.88,26.99-5.57,4.45-.83,8.77,2.59,9.66,7.68.89,5.08-2,9.89-6.44,10.73-8.77,1.66-17.7,3.51-26.54,5.48-.23.05-.45.09-.68.12Zm102.47-16.19c-.08.01-.17.02-.25.03-8.51.77-17.17,1.71-25.76,2.78l-1.13.14c-4.49.56-8.65-3.13-9.29-8.26-.64-5.12,2.47-9.73,6.96-10.3l1.11-.14c8.78-1.1,17.61-2.06,26.28-2.84,4.51-.41,8.57,3.43,9.08,8.57.5,5.04-2.62,9.46-6.99,10.01Z"/>
    </g>
  </g>
</svg>