<?xml version="1.0" encoding="UTF-8"?>
<svg id="Layer_2" data-name="Layer 2" xmlns="http://www.w3.org/2000/svg" viewBox="0 0 1586.03 1224.6">
  <defs>
    <style>
      .cls-1 {
        fill: #fff;
      }

      .cls-2, .cls-3 {
        fill: #1e243a;
      }

      .cls-3 {
        stroke: #231f20;
        stroke-miterlimit: 10;
        stroke-width: 10px;
      }
    </style>
  </defs>
  <g id="FLIGHT">
    <g>
      <path class="cls-3" d="m488.84,354.92c-2.55,0-4.63,2.07-4.63,4.63v279.31h-64.29v-279.31c0-2.56-2.07-4.63-4.63-4.63s-4.63,2.07-4.63,4.63v283.93c0,2.56,2.07,4.63,4.63,4.63h73.54c2.55,0,4.63-2.07,4.63-4.63v-283.93c0-2.56-2.07-4.63-4.63-4.63Z"/>
      <path class="cls-3" d="m488.84,354.92h-73.54c-2.55,0-4.63,2.07-4.63,4.63s2.07,4.63,4.63,4.63h73.54c2.55,0,4.63-2.07,4.63-4.63s-2.07-4.63-4.63-4.63Z"/>
      <path class="cls-3" d="m456.95,297.7c-.83-1.37-2.31-2.22-3.91-2.24-1.59-.01-3.1.8-3.96,2.15l-37.69,59.46c-1.37,2.16-.73,5.02,1.43,6.38,2.16,1.37,5.02.73,6.38-1.43l33.68-53.14,31.99,53.05c.87,1.44,2.4,2.24,3.97,2.24.81,0,1.64-.21,2.38-.66,2.19-1.32,2.89-4.16,1.57-6.35l-35.86-59.46Z"/>
      <path class="cls-3" d="m573.84,401.36l-82.72-45.92c-2.23-1.24-5.05-.43-6.29,1.8-1.24,2.23-.43,5.05,1.8,6.29l67.1,37.25h-203.32l67.1-37.25c2.23-1.24,3.04-4.06,1.8-6.29-1.24-2.23-4.06-3.04-6.29-1.8l-82.72,45.92c-1.84,1.02-2.76,3.16-2.23,5.2.53,2.04,2.37,3.47,4.48,3.47h239.05c2.11,0,3.95-1.43,4.48-3.47.53-2.04-.39-4.18-2.23-5.2Z"/>
      <path class="cls-3" d="m573.84,527.11l-82.72-45.92c-2.23-1.24-5.05-.43-6.29,1.8-1.24,2.23-.43,5.05,1.8,6.29l67.1,37.25h-203.32l67.1-37.25c2.23-1.24,3.04-4.06,1.8-6.29-1.24-2.23-4.06-3.04-6.29-1.8l-82.72,45.92c-1.84,1.02-2.76,3.16-2.23,5.2.53,2.04,2.37,3.47,4.48,3.47h239.05c2.11,0,3.95-1.43,4.48-3.47.53-2.04-.39-4.18-2.23-5.2Z"/>
      <g>
        <path class="cls-2" d="m418.5,356.21c-1.84-1.77-4.77-1.71-6.54.14-1.77,1.84-1.71,4.77.14,6.54l73.54,70.5c.9.86,2.05,1.29,3.2,1.29,1.22,0,2.43-.48,3.34-1.43,1.77-1.84,1.71-4.77-.14-6.54l-73.54-70.5Z"/>
        <path class="cls-2" d="m418.5,441.48c-1.84-1.77-4.77-1.71-6.54.14-1.77,1.84-1.71,4.77.14,6.54l73.54,70.5c.9.86,2.05,1.29,3.2,1.29,1.22,0,2.43-.48,3.34-1.43,1.77-1.84,1.71-4.77-.14-6.54l-73.54-70.5Z"/>
        <path class="cls-2" d="m418.5,526.75c-1.84-1.77-4.77-1.71-6.54.14-1.77,1.84-1.71,4.77.14,6.54l73.54,70.5c.9.86,2.05,1.29,3.2,1.29,1.22,0,2.43-.48,3.34-1.43,1.77-1.84,1.71-4.77-.14-6.54l-73.54-70.5Z"/>
      </g>
      <g>
        <path class="cls-2" d="m485.64,356.21l-73.54,70.5c-1.84,1.77-1.91,4.7-.14,6.54.91.95,2.12,1.43,3.34,1.43,1.15,0,2.3-.43,3.2-1.29l73.54-70.5c1.84-1.77,1.91-4.7.14-6.54-1.77-1.84-4.7-1.91-6.54-.14Z"/>
        <path class="cls-2" d="m485.64,441.48l-73.54,70.5c-1.84,1.77-1.91,4.7-.14,6.54.91.95,2.12,1.43,3.34,1.43,1.15,0,2.3-.43,3.2-1.29l73.54-70.5c1.84-1.77,1.91-4.7.14-6.54s-4.7-1.91-6.54-.14Z"/>
        <path class="cls-2" d="m485.64,526.75l-73.54,70.5c-1.84,1.77-1.91,4.7-.14,6.54.91.95,2.12,1.43,3.34,1.43,1.15,0,2.3-.43,3.2-1.29l73.54-70.5c1.84-1.77,1.91-4.7.14-6.54-1.77-1.84-4.7-1.91-6.54-.14Z"/>
      </g>
      <g>
        <path class="cls-2" d="m502.66,700.59l-84.71-59.35c-2.09-1.47-4.98-.96-6.44,1.13-1.47,2.09-.96,4.98,1.13,6.44l84.71,59.35c.81.57,1.73.84,2.65.84,1.46,0,2.89-.69,3.79-1.97,1.47-2.09.96-4.98-1.13-6.44Z"/>
        <path class="cls-2" d="m525.25,801.69l-120.83-84.66c-2.09-1.47-4.98-.96-6.44,1.13-1.47,2.09-.96,4.98,1.13,6.44l120.83,84.66c.81.57,1.73.84,2.65.84,1.46,0,2.89-.69,3.79-1.97,1.47-2.09.96-4.98-1.13-6.44Z"/>
      </g>
      <g>
        <path class="cls-2" d="m486.19,641.25l-84.92,59.5c-2.09,1.47-2.6,4.35-1.13,6.44.9,1.28,2.33,1.97,3.79,1.97.92,0,1.84-.27,2.65-.84l84.92-59.5c2.09-1.47,2.6-4.35,1.13-6.44-1.47-2.09-4.35-2.6-6.44-1.13Z"/>
        <path class="cls-2" d="m499.73,717.03l-116.86,81.88c-2.09,1.47-2.6,4.35-1.13,6.44.9,1.28,2.33,1.97,3.79,1.97.92,0,1.84-.27,2.65-.84l116.86-81.88c2.09-1.47,2.6-4.35,1.13-6.44-1.47-2.09-4.35-2.6-6.44-1.13Z"/>
      </g>
      <path class="cls-3" d="m493.37,642.54c-.52-2.5-2.97-4.1-5.47-3.59-2.5.52-4.11,2.97-3.59,5.47l35.43,170.06h-135.35l35.43-170.06c.52-2.5-1.08-4.95-3.59-5.47-2.5-.52-4.95,1.08-5.47,3.59l-36.59,175.63c-.28,1.36.06,2.78.94,3.86.88,1.08,2.2,1.71,3.59,1.71h146.72c1.39,0,2.71-.63,3.59-1.71.88-1.08,1.22-2.5.94-3.86l-36.59-175.63Z"/>
      <path class="cls-3" d="m436.08,815.94c-2.15-1.38-5.01-.74-6.39,1.41l-77.57,121.48c-1.37,2.15-.74,5.01,1.41,6.39.77.49,1.63.73,2.49.73,1.53,0,3.02-.75,3.9-2.14l77.57-121.48c1.37-2.15.74-5.01-1.41-6.39Z"/>
      <path class="cls-3" d="m380.69,814.93c-2.31-1.09-5.07-.11-6.16,2.2l-46.85,99.04c-1.09,2.31-.11,5.07,2.2,6.16.64.3,1.31.45,1.97.45,1.73,0,3.39-.98,4.18-2.65l46.85-99.04c1.09-2.31.11-5.07-2.2-6.16Z"/>
      <path class="cls-3" d="m474.45,817.35c-1.38-2.15-4.23-2.78-6.39-1.41-2.15,1.38-2.78,4.23-1.41,6.39l77.57,121.48c.88,1.38,2.38,2.14,3.9,2.14.85,0,1.71-.24,2.49-.73,2.15-1.38,2.78-4.23,1.41-6.39l-77.57-121.48Z"/>
      <path class="cls-3" d="m529.61,817.85c-1.1-2.31-3.86-3.29-6.16-2.19-2.31,1.1-3.29,3.86-2.19,6.16l57.81,121.48c.79,1.67,2.45,2.64,4.18,2.64.67,0,1.34-.14,1.98-.45,2.31-1.1,3.29-3.86,2.19-6.16l-57.81-121.48Z"/>
      <path class="cls-3" d="m366.71,918.05h-32.9c-2.55,0-4.63,2.07-4.63,4.63s2.07,4.63,4.63,4.63h32.9c2.55,0,4.63-2.07,4.63-4.63s-2.07-4.63-4.63-4.63Z"/>
      <path class="cls-3" d="m574.05,918.05h-36.99c-2.55,0-4.63,2.07-4.63,4.63s2.07,4.63,4.63,4.63h36.99c2.55,0,4.63-2.07,4.63-4.63s-2.07-4.63-4.63-4.63Z"/>
      <path class="cls-3" d="m332.55,400.78c-2.55,0-4.63,2.07-4.63,4.63v22.44c0,2.56,2.07,4.63,4.63,4.63s4.63-2.07,4.63-4.63v-22.44c0-2.56-2.07-4.63-4.63-4.63Z"/>
      <path class="cls-3" d="m571.59,400.78c-2.55,0-4.63,2.07-4.63,4.63v22.44c0,2.56,2.07,4.63,4.63,4.63s4.63-2.07,4.63-4.63v-22.44c0-2.56-2.07-4.63-4.63-4.63Z"/>
      <path class="cls-3" d="m571.59,526.52c-2.55,0-4.63,2.07-4.63,4.63v22.44c0,2.56,2.07,4.63,4.63,4.63s4.63-2.07,4.63-4.63v-22.44c0-2.56-2.07-4.63-4.63-4.63Z"/>
      <path class="cls-3" d="m332.55,526.52c-2.55,0-4.63,2.07-4.63,4.63v22.44c0,2.56,2.07,4.63,4.63,4.63s4.63-2.07,4.63-4.63v-22.44c0-2.56-2.07-4.63-4.63-4.63Z"/>
      <path class="cls-3" d="m601.25,936.69H194.17c-2.55,0-4.63,2.07-4.63,4.63s2.07,4.63,4.63,4.63h407.07c2.55,0,4.63-2.07,4.63-4.63s-2.07-4.63-4.63-4.63Z"/>
      <path class="cls-3" d="m1453.4,313.52c-.86-3.31-3.84-5.62-7.26-5.62h-593.2c-3.42,0-6.41,2.31-7.26,5.62l-105.61,408.38c-.58,2.25-.09,4.64,1.33,6.47s3.61,2.91,5.93,2.91h804.43c2.32,0,4.51-1.07,5.93-2.91s1.91-4.22,1.33-6.47l-105.61-408.38Zm-696.39,402.75l101.73-393.38h581.59l101.73,393.38h-785.06Z"/>
      <path class="cls-2" d="m1465.5,402.95h-631.05c-4.14,0-7.5,3.36-7.5,7.5s3.36,7.5,7.5,7.5h631.05c4.14,0,7.5-3.36,7.5-7.5s-3.36-7.5-7.5-7.5Z"/>
      <path class="cls-2" d="m1501.14,550.81h-701.46c-4.14,0-7.5,3.36-7.5,7.5s3.36,7.5,7.5,7.5h701.46c4.14,0,7.5-3.36,7.5-7.5s-3.36-7.5-7.5-7.5Z"/>
      <path class="cls-2" d="m966.44,310.21c-4.08-.71-7.97,2.02-8.68,6.1l-70.41,403.97c-.71,4.08,2.02,7.96,6.1,8.68.44.08.87.11,1.3.11,3.58,0,6.74-2.57,7.38-6.21l70.41-403.97c.71-4.08-2.02-7.96-6.1-8.68Z"/>
      <path class="cls-2" d="m1341.31,316.31c-.71-4.08-4.59-6.81-8.68-6.1-4.08.71-6.81,4.6-6.1,8.68l70.41,403.97c.64,3.64,3.8,6.21,7.38,6.21.43,0,.86-.04,1.3-.11,4.08-.71,6.81-4.6,6.1-8.68l-70.41-403.97Z"/>
      <path class="cls-2" d="m1149.54,313.18c-4.14,0-7.5,3.36-7.5,7.5v403.09c0,4.14,3.36,7.5,7.5,7.5s7.5-3.36,7.5-7.5v-403.09c0-4.14-3.36-7.5-7.5-7.5Z"/>
      <circle class="cls-1" cx="949.75" cy="410.45" r="25.45"/>
      <path class="cls-2" d="m949.75,372.95c-20.68,0-37.5,16.82-37.5,37.5s16.82,37.5,37.5,37.5,37.5-16.82,37.5-37.5-16.82-37.5-37.5-37.5Zm0,50.9c-7.39,0-13.4-6.01-13.4-13.4s6.01-13.4,13.4-13.4,13.4,6.01,13.4,13.4-6.01,13.4-13.4,13.4Z"/>
      <circle class="cls-1" cx="925.11" cy="558.31" r="25.45"/>
      <path class="cls-2" d="m925.11,520.81c-20.68,0-37.5,16.82-37.5,37.5s16.82,37.5,37.5,37.5,37.5-16.82,37.5-37.5-16.82-37.5-37.5-37.5Zm0,50.9c-7.39,0-13.4-6.01-13.4-13.4s6.01-13.4,13.4-13.4,13.4,6.01,13.4,13.4-6.01,13.4-13.4,13.4Z"/>
      <circle class="cls-1" cx="1150.42" cy="410.45" r="25.45" transform="translate(-65.02 289.41) rotate(-13.95)"/>
      <path class="cls-2" d="m1150.42,372.95c-20.68,0-37.5,16.82-37.5,37.5s16.82,37.5,37.5,37.5,37.5-16.82,37.5-37.5-16.82-37.5-37.5-37.5Zm0,50.9c-7.39,0-13.4-6.01-13.4-13.4s6.01-13.4,13.4-13.4,13.4,6.01,13.4,13.4-6.01,13.4-13.4,13.4Z"/>
      <circle class="cls-1" cx="1150.42" cy="558.31" r="25.45" transform="translate(24.83 1165.13) rotate(-54.22)"/>
      <path class="cls-2" d="m1150.42,520.81c-20.68,0-37.5,16.82-37.5,37.5s16.82,37.5,37.5,37.5,37.5-16.82,37.5-37.5-16.82-37.5-37.5-37.5Zm0,50.9c-7.39,0-13.4-6.01-13.4-13.4s6.01-13.4,13.4-13.4,13.4,6.01,13.4,13.4-6.01,13.4-13.4,13.4Z"/>
      <circle class="cls-1" cx="1350.2" cy="410.45" r="25.45" transform="translate(-58.33 323.46) rotate(-13.37)"/>
      <path class="cls-2" d="m1350.2,372.95c-20.68,0-37.5,16.82-37.5,37.5s16.82,37.5,37.5,37.5,37.5-16.82,37.5-37.5-16.82-37.5-37.5-37.5Zm0,50.9c-7.39,0-13.4-6.01-13.4-13.4s6.01-13.4,13.4-13.4,13.4,6.01,13.4,13.4-6.01,13.4-13.4,13.4Z"/>
      <circle class="cls-1" cx="1373.09" cy="558.31" r="25.45" transform="translate(-91.18 328.08) rotate(-13.19)"/>
      <path class="cls-2" d="m1373.09,520.81c-20.68,0-37.5,16.82-37.5,37.5s16.82,37.5,37.5,37.5,37.5-16.82,37.5-37.5-16.82-37.5-37.5-37.5Zm0,50.9c-7.39,0-13.4-6.01-13.4-13.4s6.01-13.4,13.4-13.4,13.4,6.01,13.4,13.4-6.01,13.4-13.4,13.4Z"/>
      <path class="cls-3" d="m1100.25,718.91c-4.14,0-7.5,3.36-7.5,7.5v179.98c0,4.14,3.36,7.5,7.5,7.5s7.5-3.36,7.5-7.5v-179.98c0-4.14-3.36-7.5-7.5-7.5Z"/>
      <path class="cls-3" d="m1198.82,718.91c-4.14,0-7.5,3.36-7.5,7.5v179.98c0,4.14,3.36,7.5,7.5,7.5s7.5-3.36,7.5-7.5v-179.98c0-4.14-3.36-7.5-7.5-7.5Z"/>
      <path class="cls-3" d="m1131.33,900.22h-71.73c-2.41,0-4.68,1.16-6.09,3.12l-35.21,48.89c-2.42,3.36-1.66,8.05,1.7,10.47,1.33.96,2.86,1.41,4.38,1.41,2.33,0,4.63-1.08,6.09-3.12l32.96-45.77h67.89c4.14,0,7.5-3.36,7.5-7.5s-3.36-7.5-7.5-7.5Z"/>
      <path class="cls-3" d="m1254.46,903.4c-1.55-2.62-4.04-4.18-6.68-4.18h-71.27c-4.56,0-8.26,4.53-8.26,10.12s3.7,10.12,8.26,10.12h67.06l19.33,32.65c1.62,2.73,4.14,4.18,6.69,4.18,1.68,0,3.38-.63,4.84-1.93,3.69-3.28,4.51-9.61,1.83-14.14l-21.81-36.82Z"/>
      <path class="cls-3" d="m1573.53,951.75h-655c-4.14,0-7.5,3.36-7.5,7.5s3.36,7.5,7.5,7.5h655c4.14,0,7.5-3.36,7.5-7.5s-3.36-7.5-7.5-7.5Z"/>
      <path class="cls-3" d="m1414.45,992.23h-714.22c-4.14,0-7.5,3.36-7.5,7.5s3.36,7.5,7.5,7.5h714.22c4.14,0,7.5-3.36,7.5-7.5s-3.36-7.5-7.5-7.5Z"/>
      <path class="cls-3" d="m1150.42,111.81c-82.71,0-149.99,67.29-149.99,149.99,0,4.14,3.36,7.5,7.5,7.5s7.5-3.36,7.5-7.5c0-74.44,60.56-134.99,134.99-134.99s134.99,60.56,134.99,134.99c0,4.14,3.36,7.5,7.5,7.5s7.5-3.36,7.5-7.5c0-82.71-67.29-149.99-149.99-149.99Z"/>
      <path class="cls-2" d="m1103.66,155.37c-15.93,8.36-30.04,20.44-40.79,34.93-2.47,3.33-1.77,8.02,1.56,10.49,1.34,1,2.91,1.48,4.46,1.48,2.29,0,4.56-1.05,6.03-3.03,9.41-12.69,21.76-23.26,35.71-30.59,3.67-1.93,5.08-6.46,3.15-10.13-1.92-3.67-6.46-5.08-10.13-3.15Z"/>
      <path class="cls-2" d="m1053.83,221.79c-3.96-1.2-8.15,1.03-9.36,4.99-3.44,11.31-5.19,23.09-5.19,35.02,0,4.14,3.36,7.5,7.5,7.5s7.5-3.36,7.5-7.5c0-10.45,1.53-20.76,4.54-30.65,1.21-3.96-1.03-8.15-4.99-9.36Z"/>
      <path class="cls-3" d="m1399.72,254.3h-106.81c-4.14,0-7.5,3.36-7.5,7.5s3.36,7.5,7.5,7.5h106.81c4.14,0,7.5-3.36,7.5-7.5s-3.36-7.5-7.5-7.5Z"/>
      <path class="cls-3" d="m1007.92,254.3h-106.81c-4.14,0-7.5,3.36-7.5,7.5s3.36,7.5,7.5,7.5h106.81c4.14,0,7.5-3.36,7.5-7.5s-3.36-7.5-7.5-7.5Z"/>
      <path class="cls-3" d="m1321.4,80.22l-56.93,56.93c-2.93,2.93-2.93,7.68,0,10.61,1.46,1.46,3.38,2.2,5.3,2.2s3.84-.73,5.3-2.2l56.93-56.93c2.93-2.93,2.93-7.68,0-10.61-2.93-2.93-7.68-2.93-10.61,0Z"/>
      <path class="cls-3" d="m1150.42,5c-4.14,0-7.5,3.36-7.5,7.5v78.3c0,4.14,3.36,7.5,7.5,7.5s7.5-3.36,7.5-7.5V12.5c0-4.14-3.36-7.5-7.5-7.5Z"/>
      <path class="cls-3" d="m979.44,80.22c-2.93-2.93-7.68-2.93-10.61,0-2.93,2.93-2.93,7.68,0,10.61l56.93,56.93c1.46,1.46,3.38,2.2,5.3,2.2s3.84-.73,5.3-2.2c2.93-2.93,2.93-7.68,0-10.61l-56.93-56.93Z"/>
      <path class="cls-2" d="m110.87,192.72c-5.21,1.83-7.95,7.53-6.12,12.74,1.44,4.12,5.31,6.69,9.43,6.69,1.1,0,2.22-.18,3.32-.56,5.21-1.83,7.95-7.54,6.12-12.75s-7.54-7.95-12.75-6.12Z"/>
      <path class="cls-2" d="m178.45,164.25s.03.03.04.05c1.95,1.95,4.51,2.92,7.07,2.92s5.12-.97,7.07-2.92c3.91-3.91,3.91-10.24,0-14.15-.03-.03-.07-.07-.1-.1t0-.01c-3.91-3.89-10.25-3.87-14.14.05-3.89,3.91-3.88,10.24.04,14.14.01.01.02.01.03.02Z"/>
      <path class="cls-2" d="m144.03,219.2c-5.21-1.82-10.91.94-12.73,6.16-1.81,5.21.95,10.91,6.16,12.73,1.09.37,2.2.55,3.29.55,4.14,0,8.01-2.59,9.44-6.71,1.82-5.22-.94-10.92-6.16-12.73Z"/>
      <path class="cls-2" d="m123.63,156.39c-4.68-2.93-10.86-1.51-13.79,3.16-2.93,4.68-1.51,10.86,3.17,13.79,1.65,1.03,3.48,1.53,5.3,1.53,3.33,0,6.58-1.67,8.48-4.69,2.93-4.68,1.52-10.86-3.16-13.79Z"/>
      <path class="cls-2" d="m199.07,182.69c-5.49-.62-10.44,3.34-11.05,8.82-.61,5.49,3.34,10.44,8.83,11.05.37.05.75.07,1.12.07,5.02,0,9.36-3.78,9.93-8.9.61-5.48-3.34-10.43-8.83-11.04Z"/>
      <path class="cls-2" d="m148.9,134.91c-5.49.62-9.43,5.58-8.8,11.07.58,5.1,4.91,8.86,9.92,8.86.38,0,.77-.02,1.15-.06,5.49-.63,9.43-5.59,8.8-11.08-.63-5.48-5.59-9.42-11.07-8.79Z"/>
      <path class="cls-2" d="m172.69,215.94c-4.67,2.95-6.07,9.13-3.12,13.8,1.9,3.01,5.14,4.66,8.46,4.66,1.83,0,3.67-.49,5.33-1.54,4.67-2.95,6.07-9.12,3.12-13.79-2.94-4.67-9.12-6.07-13.79-3.13Z"/>
      <path class="cls-2" d="m678.21,137.23c-5.21,1.83-7.95,7.54-6.13,12.75,1.45,4.11,5.31,6.69,9.44,6.69,1.1,0,2.22-.18,3.31-.57,5.21-1.83,7.95-7.53,6.12-12.74-1.82-5.22-7.53-7.96-12.74-6.13Z"/>
      <path class="cls-2" d="m745.78,108.77s.03.03.05.04c1.95,1.95,4.51,2.93,7.07,2.93s5.11-.98,7.07-2.93c3.9-3.9,3.9-10.24,0-14.14-.02-.01-.03-.03-.04-.04-.03-.02-.05-.05-.07-.07-3.92-3.9-10.25-3.88-14.14.04-3.9,3.92-3.88,10.25.04,14.14.01,0,.02.02.02.03Z"/>
      <path class="cls-2" d="m690.96,100.91c-4.68-2.94-10.85-1.52-13.78,3.16-2.94,4.68-1.52,10.85,3.16,13.78,1.65,1.04,3.49,1.53,5.3,1.53,3.33,0,6.58-1.66,8.48-4.69,2.94-4.68,1.52-10.85-3.16-13.78Z"/>
      <path class="cls-2" d="m716.23,79.42c-5.49.63-9.42,5.59-8.79,11.07.58,5.1,4.9,8.87,9.92,8.87.38,0,.76-.02,1.15-.07,5.49-.63,9.42-5.58,8.79-11.07-.62-5.49-5.58-9.43-11.07-8.8Z"/>
      <path class="cls-2" d="m766.4,127.2c-5.49-.61-10.43,3.34-11.05,8.83-.61,5.49,3.34,10.44,8.83,11.05.38.04.75.06,1.13.06,5.02,0,9.35-3.78,9.92-8.89.61-5.49-3.34-10.44-8.83-11.05Z"/>
      <path class="cls-2" d="m740.02,160.46h0c-4.68,2.95-6.08,9.12-3.13,13.79,1.9,3.02,5.15,4.67,8.47,4.67,1.82,0,3.67-.5,5.32-1.54,4.67-2.95,6.07-9.13,3.13-13.8-2.95-4.67-9.12-6.07-13.8-3.12Z"/>
      <path class="cls-2" d="m711.37,163.71c-5.22-1.81-10.92.94-12.73,6.16-1.82,5.22.94,10.92,6.16,12.73,1.09.38,2.19.56,3.28.56,4.14,0,8.01-2.59,9.45-6.72,1.81-5.21-.95-10.91-6.16-12.73Z"/>
      <path class="cls-2" d="m1393.86,1121.46c-5.21,1.83-7.95,7.53-6.12,12.75,1.44,4.11,5.31,6.69,9.43,6.69,1.1,0,2.22-.18,3.31-.57,5.21-1.83,7.96-7.54,6.13-12.75-1.83-5.21-7.54-7.95-12.75-6.12Z"/>
      <path class="cls-2" d="m1406.61,1085.13c-4.68-2.93-10.85-1.51-13.78,3.17-2.93,4.68-1.52,10.85,3.16,13.78,1.65,1.04,3.49,1.53,5.3,1.53,3.33,0,6.59-1.66,8.49-4.69,2.93-4.68,1.51-10.85-3.17-13.79Z"/>
      <path class="cls-2" d="m1461.51,1093.07c1.95,1.93,4.5,2.9,7.04,2.9s5.12-.98,7.07-2.93c3.9-3.91,3.9-10.24,0-14.14-.01-.02-.03-.03-.04-.04-.02-.03-.05-.05-.07-.08-3.92-3.89-10.25-3.87-14.14.05-3.9,3.91-3.88,10.24.04,14.14.03.03.07.07.1.1Z"/>
      <path class="cls-2" d="m1427.02,1147.94c-5.21-1.82-10.91.94-12.73,6.16-1.81,5.21.94,10.91,6.16,12.73,1.09.38,2.2.56,3.29.56,4.14,0,8.01-2.59,9.44-6.72,1.81-5.22-.94-10.92-6.16-12.73Z"/>
      <path class="cls-2" d="m1431.88,1063.65c-5.48.63-9.42,5.59-8.79,11.07.58,5.1,4.91,8.86,9.92,8.87.38,0,.76-.03,1.15-.07,5.49-.63,9.43-5.59,8.8-11.08-.63-5.48-5.59-9.42-11.08-8.79Z"/>
      <path class="cls-2" d="m1482.06,1111.43c-5.49-.62-10.44,3.34-11.05,8.83-.62,5.49,3.34,10.43,8.83,11.04.37.05.75.07,1.12.07,5.02,0,9.35-3.78,9.92-8.89.62-5.49-3.34-10.44-8.82-11.05Z"/>
      <path class="cls-2" d="m1455.68,1144.69c-4.67,2.94-6.07,9.12-3.13,13.79,1.9,3.01,5.15,4.67,8.47,4.67,1.83,0,3.67-.5,5.33-1.55,4.67-2.94,6.07-9.12,3.12-13.79-2.95-4.67-9.12-6.07-13.79-3.12Z"/>
      <path class="cls-2" d="m468.01,203.28c-4.14,0-7.5,3.36-7.5,7.5v48c0,4.14,3.36,7.5,7.5,7.5s7.5-3.36,7.5-7.5v-48c0-4.14-3.36-7.5-7.5-7.5Z"/>
      <path class="cls-2" d="m492.51,227.78h-48c-4.14,0-7.5,3.36-7.5,7.5s3.36,7.5,7.5,7.5h48c4.14,0,7.5-3.36,7.5-7.5s-3.36-7.5-7.5-7.5Z"/>
      <path class="cls-2" d="m173.05,1116.09c-4.14,0-7.5,3.36-7.5,7.5v48c0,4.14,3.36,7.5,7.5,7.5s7.5-3.36,7.5-7.5v-48c0-4.14-3.36-7.5-7.5-7.5Z"/>
      <path class="cls-2" d="m197.55,1140.59h-48c-4.14,0-7.5,3.36-7.5,7.5s3.36,7.5,7.5,7.5h48c4.14,0,7.5-3.36,7.5-7.5s-3.36-7.5-7.5-7.5Z"/>
      <path class="cls-2" d="m1161.92,1161.6c-4.14,0-7.5,3.36-7.5,7.5v48c0,4.14,3.36,7.5,7.5,7.5s7.5-3.36,7.5-7.5v-48c0-4.14-3.36-7.5-7.5-7.5Z"/>
      <path class="cls-2" d="m1186.42,1186.1h-48c-4.14,0-7.5,3.36-7.5,7.5s3.36,7.5,7.5,7.5h48c4.14,0,7.5-3.36,7.5-7.5s-3.36-7.5-7.5-7.5Z"/>
      <path class="cls-2" d="m1465,123.78c-4.14,0-7.5,3.36-7.5,7.5v48c0,4.14,3.36,7.5,7.5,7.5s7.5-3.36,7.5-7.5v-48c0-4.14-3.36-7.5-7.5-7.5Z"/>
      <path class="cls-2" d="m1489.5,148.28h-48c-4.14,0-7.5,3.36-7.5,7.5s3.36,7.5,7.5,7.5h48c4.14,0,7.5-3.36,7.5-7.5s-3.36-7.5-7.5-7.5Z"/>
      <path class="cls-2" d="m193.49,452.79c-4.14,0-7.5,3.36-7.5,7.5v48c0,4.14,3.36,7.5,7.5,7.5s7.5-3.36,7.5-7.5v-48c0-4.14-3.36-7.5-7.5-7.5Z"/>
      <path class="cls-2" d="m217.99,477.29h-48c-4.14,0-7.5,3.36-7.5,7.5s3.36,7.5,7.5,7.5h48c4.14,0,7.5-3.36,7.5-7.5s-3.36-7.5-7.5-7.5Z"/>
      <path class="cls-2" d="m331.17,825.07H7.5c-4.14,0-7.5,3.36-7.5,7.5s3.36,7.5,7.5,7.5h323.67c4.14,0,7.5-3.36,7.5-7.5s-3.36-7.5-7.5-7.5Z"/>
      <g>
        <path class="cls-2" d="m110.74,733.95c-4.14,0-7.5,3.36-7.5,7.5v81.84c0,4.14,3.36,7.5,7.5,7.5s7.5-3.36,7.5-7.5v-81.84c0-4.14-3.36-7.5-7.5-7.5Z"/>
        <path class="cls-2" d="m110.74,698.67c-5.49,0-9.95,4.46-9.95,9.95s4.46,9.95,9.95,9.95,9.95-4.46,9.95-9.95-4.46-9.95-9.95-9.95Zm0,15c-2.78,0-5.05-2.27-5.05-5.05s2.27-5.05,5.05-5.05,5.05,2.27,5.05,5.05-2.27,5.05-5.05,5.05Z"/>
        <path class="cls-2" d="m110.74,623.2c-4.14,0-7.5,3.36-7.5,7.5v49.99c0,4.14,3.36,7.5,7.5,7.5s7.5-3.36,7.5-7.5v-49.99c0-4.14-3.36-7.5-7.5-7.5Z"/>
        <g>
          <path class="cls-2" d="m135.38,714.56c-2.93-2.93-7.68-2.93-10.61,0-2.93,2.93-2.93,7.68,0,10.61l35.35,35.35c1.46,1.46,3.38,2.2,5.3,2.2s3.84-.73,5.3-2.2c2.93-2.93,2.93-7.68,0-10.61l-35.35-35.35Z"/>
          <path class="cls-2" d="m86.1,714.56l-35.35,35.35c-2.93,2.93-2.93,7.68,0,10.61,1.46,1.46,3.38,2.2,5.3,2.2s3.84-.73,5.3-2.2l35.35-35.35c2.93-2.93,2.93-7.68,0-10.61-2.93-2.93-7.68-2.93-10.61,0Z"/>
        </g>
      </g>
      <g>
        <path class="cls-2" d="m252.88,754.91c-4.14,0-7.5,3.36-7.5,7.5v68.62c0,4.14,3.36,7.5,7.5,7.5s7.5-3.36,7.5-7.5v-68.62c0-4.14-3.36-7.5-7.5-7.5Z"/>
        <path class="cls-2" d="m252.88,725.32c-5.27,0-9.55,4.29-9.55,9.55s4.29,9.55,9.55,9.55,9.55-4.29,9.55-9.55-4.29-9.55-9.55-9.55Zm0,15c-3,0-5.45-2.44-5.45-5.45s2.44-5.45,5.45-5.45,5.45,2.44,5.45,5.45-2.44,5.45-5.45,5.45Z"/>
        <path class="cls-2" d="m252.88,662.05c-4.14,0-7.5,3.36-7.5,7.5v41.91c0,4.14,3.36,7.5,7.5,7.5s7.5-3.36,7.5-7.5v-41.91c0-4.14-3.36-7.5-7.5-7.5Z"/>
        <g>
          <path class="cls-2" d="m274.4,739c-2.93-2.93-7.68-2.93-10.61,0-2.93,2.93-2.93,7.68,0,10.61l29.63,29.63c1.46,1.46,3.38,2.2,5.3,2.2s3.84-.73,5.3-2.2c2.93-2.93,2.93-7.68,0-10.61l-29.63-29.63Z"/>
          <path class="cls-2" d="m231.36,739l-29.63,29.63c-2.93,2.93-2.93,7.68,0,10.61,1.46,1.46,3.38,2.2,5.3,2.2s3.84-.73,5.3-2.2l29.63-29.63c2.93-2.93,2.93-7.68,0-10.61-2.93-2.93-7.68-2.93-10.61,0Z"/>
        </g>
      </g>
      <path class="cls-2" d="m471.61,1117.87c-.09-.06-.19-.12-.28-.18-7.37-5.06-14.26-10.35-20.48-15.71-3.14-2.7-3.49-7.44-.78-10.58,2.7-3.14,7.44-3.49,10.58-.78,5.81,5,12.26,9.95,19.18,14.71,3.41,2.35,4.28,7.02,1.93,10.43-2.28,3.32-6.76,4.23-10.15,2.12Zm38.9,22.56c-3.22-2.01-4.46-6.18-2.75-9.67,1.83-3.72,6.32-5.25,10.04-3.42,7.14,3.51,14.66,6.92,22.36,10.12,3.82,1.6,5.64,5.98,4.05,9.8-1.59,3.83-5.98,5.64-9.8,4.05-7.99-3.32-15.8-6.85-23.22-10.51-.23-.11-.46-.24-.67-.37Zm65.17,25.47c-2.81-1.75-4.21-5.23-3.2-8.55,1.21-3.96,5.4-6.2,9.36-4.99,7.76,2.36,15.75,4.58,23.75,6.59,4.02,1.01,6.45,5.09,5.44,9.1-1.01,4.02-5.09,6.45-9.1,5.44-8.24-2.07-16.47-4.36-24.46-6.79-.65-.2-1.25-.47-1.79-.81Zm-153.55-96.87c-.94-.59-1.77-1.4-2.39-2.41-4.98-8.03-8.74-16.28-11.16-24.5-1.17-3.97,1.1-8.14,5.07-9.31,3.97-1.17,8.14,1.1,9.31,5.07,2.05,6.94,5.25,13.95,9.52,20.84,2.18,3.52,1.1,8.14-2.42,10.33-2.51,1.56-5.58,1.45-7.93-.01Zm221.74,112.67c-2.49-1.55-3.93-4.5-3.43-7.57.67-4.09,4.52-6.86,8.61-6.2,8.09,1.32,16.3,2.46,24.4,3.4,4.11.48,7.06,4.2,6.59,8.31-.48,4.11-4.2,7.06-8.31,6.59-8.34-.96-16.78-2.14-25.09-3.5-1.01-.17-1.95-.53-2.76-1.04Zm69.65,6.7c-2.19-1.36-3.61-3.82-3.53-6.58.12-4.14,3.57-7.4,7.71-7.28,8.25.24,16.54.27,24.64.09,4.14-.09,7.57,3.19,7.66,7.33.09,4.14-3.19,7.57-7.33,7.66-8.35.19-16.9.16-25.41-.09-1.38-.04-2.66-.45-3.75-1.13Zm69.91-3.11c-1.85-1.16-3.19-3.11-3.47-5.45-.5-4.11,2.42-7.85,6.53-8.36,8.21-1.01,16.37-2.27,24.25-3.74,4.07-.76,7.99,1.93,8.75,6,.76,4.07-1.93,7.99-6,8.75-8.19,1.53-16.66,2.83-25.17,3.88-1.77.22-3.48-.2-4.88-1.08Zm68.33-14.76c-1.45-.91-2.6-2.31-3.16-4.06-1.27-3.94.9-8.17,4.84-9.44,7.84-2.52,15.54-5.35,22.89-8.39,3.83-1.59,8.21.24,9.8,4.06,1.58,3.83-.23,8.21-4.06,9.8-7.72,3.2-15.81,6.16-24.03,8.81-2.19.7-4.47.35-6.27-.78Zm63.46-29.13c-.93-.58-1.75-1.38-2.37-2.37-2.2-3.51-1.15-8.14,2.36-10.34,6.89-4.33,13.55-9.01,19.78-13.91,3.26-2.56,7.97-2,10.53,1.26,2.56,3.25,2,7.97-1.26,10.53-6.64,5.23-13.73,10.22-21.07,14.83-2.51,1.58-5.61,1.48-7.97,0Z"/>
    </g>
  </g>
</svg>