<svg id="visual" viewBox="0 0 1920 1080" width="1920" height="1080" xmlns="http://www.w3.org/2000/svg" xmlns:xlink="http://www.w3.org/1999/xlink" version="1.1"><g fill="none" stroke="#f3d7ff" stroke-width="1"><circle r="110" cx="589" cy="939"></circle><circle r="5" cx="1308" cy="163"></circle><circle r="93" cx="1435" cy="774"></circle><circle r="75" cx="1781" cy="832"></circle><circle r="16" cx="931" cy="688"></circle><circle r="17" cx="42" cy="516"></circle><circle r="68" cx="1273" cy="480"></circle><circle r="27" cx="895" cy="1055"></circle><circle r="82" cx="711" cy="528"></circle><circle r="39" cx="381" cy="828"></circle><circle r="108" cx="1066" cy="295"></circle><circle r="8" cx="250" cy="414"></circle><circle r="96" cx="31" cy="910"></circle><circle r="105" cx="1834" cy="309"></circle><circle r="53" cx="555" cy="138"></circle><circle r="92" cx="1529" cy="469"></circle><circle r="106" cx="1560" cy="980"></circle><circle r="51" cx="1605" cy="247"></circle><circle r="54" cx="225" cy="89"></circle><circle r="4" cx="785" cy="298"></circle></g></svg>