<?xml version="1.0" encoding="UTF-8"?>
<svg id="Layer_2" data-name="Layer 2" xmlns="http://www.w3.org/2000/svg" viewBox="0 0 1610.25 1321.5">
  <defs>
    <style>
      .cls-1, .cls-2 {
        fill: #1e243a;
      }

      .cls-2 {
        stroke: #231f20;
        stroke-miterlimit: 10;
        stroke-width: 10px;
      }
    </style>
  </defs>
  <g id="RAILROADS">
    <g>
      <path class="cls-2" d="m1535.5,646.5h-84c-4.14,0-7.5-3.36-7.5-7.5v-240.98c0-22.9,18.63-41.52,41.52-41.52h15.95c22.9,0,41.52,18.63,41.52,41.52v240.98c0,4.14-3.36,7.5-7.5,7.5Zm-76.5-15h69v-233.48c0-14.62-11.9-26.52-26.52-26.52h-15.95c-14.62,0-26.52,11.9-26.52,26.52v233.48Z"/>
      <path class="cls-2" d="m1457.48,224.14c-.44,0-.88-.04-1.32-.12l-35.96-6.42c-3.08-.55-5.49-2.95-6.06-6.03l-6.6-35.93c-.44-2.42.33-4.9,2.06-6.65l43.55-43.77-43.77-43.55c-1.61-1.61-2.41-3.86-2.17-6.13l4.15-38.22c.38-3.49,3.12-6.25,6.61-6.64l38.2-4.34c2.27-.26,4.52.53,6.14,2.14l43.77,43.55,43.55-43.77c1.88-1.89,4.61-2.64,7.19-1.97l33.7,8.69c2.63.68,4.69,2.73,5.38,5.35l8.86,33.66c.68,2.57-.06,5.31-1.94,7.2l-43.55,43.77,43.77,43.55c1.71,1.7,2.5,4.12,2.12,6.5l-5.85,36.52c-.51,3.18-3,5.69-6.18,6.21l-36.5,6.03c-2.38.39-4.8-.38-6.51-2.08l-43.77-43.55-43.55,43.77c-1.42,1.43-3.34,2.21-5.32,2.21Zm134.42-13.77h0,0Zm-163.94-6.62l26.98,4.82,46.07-46.3c2.92-2.94,7.67-2.95,10.61-.03l46.36,46.13,27.38-4.53,4.39-27.4-46.36-46.13c-1.41-1.4-2.2-3.31-2.21-5.3,0-1.99.78-3.9,2.18-5.31l45.81-46.04-6.64-25.25-25.28-6.52-45.81,46.04c-2.92,2.94-7.67,2.95-10.61.03l-46.53-46.3-28.65,3.25-3.11,28.67,46.53,46.3c2.94,2.92,2.95,7.67.03,10.61l-46.07,46.3,4.95,26.95Z"/>
      <path class="cls-2" d="m1506.5,371.5c-4.14,0-7.49-3.35-7.5-7.49l-.28-194.5c0-4.14,3.35-7.5,7.49-7.51h.01c4.14,0,7.49,3.35,7.5,7.49l.28,194.5c0,4.14-3.35,7.5-7.49,7.51h-.01Z"/>
      <g>
        <path class="cls-2" d="m1450.5,457.25h-332.12c-27.23,0-49.38-22.15-49.38-49.38s21.4-48.99,48.73-51.35c.21-.02.43-.03.65-.03h366.15c4.14,0,7.5,3.36,7.5,7.5s-3.36,7.5-7.5,7.5h-365.81c-19.49,1.84-34.71,17.76-34.71,36.38s15.42,34.38,34.38,34.38h332.12c4.14,0,7.5,3.36,7.5,7.5s-3.36,7.5-7.5,7.5Z"/>
        <path class="cls-2" d="m1224.41,456.5c-1.78,0-3.57-.63-5.01-1.92l-90-80.74c-3.08-2.77-3.34-7.51-.57-10.59s7.51-3.34,10.59-.57l90,80.74c3.08,2.77,3.34,7.51.57,10.59-1.48,1.65-3.53,2.49-5.58,2.49Z"/>
        <path class="cls-2" d="m1296.41,455.5c-1.78,0-3.57-.63-5.01-1.92l-90-80.74c-3.08-2.77-3.34-7.51-.57-10.59,2.77-3.08,7.51-3.34,10.59-.57l90,80.74c3.08,2.77,3.34,7.51.57,10.59-1.48,1.65-3.53,2.49-5.58,2.49Z"/>
        <path class="cls-2" d="m1367.41,455.5c-1.78,0-3.57-.63-5.01-1.92l-90-80.74c-3.08-2.77-3.34-7.51-.57-10.59,2.77-3.08,7.51-3.34,10.59-.57l90,80.74c3.08,2.77,3.34,7.51.57,10.59-1.48,1.65-3.53,2.49-5.58,2.49Z"/>
        <path class="cls-2" d="m1437.41,455.5c-1.78,0-3.57-.63-5.01-1.92l-90-80.74c-3.08-2.77-3.34-7.51-.57-10.59,2.77-3.08,7.51-3.34,10.59-.57l90,80.74c3.08,2.77,3.34,7.51.57,10.59-1.48,1.65-3.53,2.49-5.58,2.49Z"/>
      </g>
      <path class="cls-2" d="m1499.5,613.5c-4.14,0-7.5-3.36-7.5-7.5v-27.36c0-4.14,3.36-7.5,7.5-7.5s7.5,3.36,7.5,7.5v27.36c0,4.14-3.36,7.5-7.5,7.5Z"/>
      <path class="cls-2" d="m1499.5,537.64c-4.14,0-7.5-3.36-7.5-7.5v-121.14c0-4.14,3.36-7.5,7.5-7.5s7.5,3.36,7.5,7.5v121.14c0,4.14-3.36,7.5-7.5,7.5Z"/>
      <path class="cls-1" d="m1347.41,329.5h-80.62c-4.14,0-7.5-3.36-7.5-7.5s3.36-7.5,7.5-7.5h80.62c4.14,0,7.5,3.36,7.5,7.5s-3.36,7.5-7.5,7.5Z"/>
      <path class="cls-1" d="m1076.51,338.92c-2.6,0-5.13-1.35-6.51-3.77-2.06-3.59-.82-8.18,2.78-10.24,11.89-6.81,25.45-10.41,39.23-10.41h67.41c4.14,0,7.5,3.36,7.5,7.5s-3.36,7.5-7.5,7.5h-67.41c-11.16,0-22.15,2.91-31.77,8.43-1.18.67-2.46.99-3.72.99Z"/>
      <path class="cls-1" d="m1156.8,499.5h-46.8c-43.56,0-79-35.44-79-79,0-4.14,3.36-7.5,7.5-7.5s7.5,3.36,7.5,7.5c0,35.29,28.71,64,64,64h46.8c4.14,0,7.5,3.36,7.5,7.5s-3.36,7.5-7.5,7.5Z"/>
      <path class="cls-1" d="m1365.41,499.5h-100.61c-4.14,0-7.5-3.36-7.5-7.5s3.36-7.5,7.5-7.5h100.61c4.14,0,7.5,3.36,7.5,7.5s-3.36,7.5-7.5,7.5Z"/>
      <path class="cls-1" d="m676.44,173.66c-2.58,0-5.09-1.33-6.49-3.72-2.09-3.58-.88-8.17,2.7-10.26,4.33-2.53,8.77-5.05,13.18-7.5,3.62-2.01,8.19-.7,10.2,2.92,2.01,3.62.7,8.19-2.92,10.2-4.31,2.39-8.65,4.86-12.9,7.34-1.19.69-2.49,1.02-3.77,1.02Zm46.77-24.95c-2.78,0-5.45-1.55-6.75-4.22-1.81-3.73-.26-8.21,3.46-10.02,4.51-2.2,9.13-4.38,13.73-6.5,3.76-1.73,8.22-.09,9.95,3.67,1.73,3.76.09,8.22-3.67,9.95-4.5,2.08-9.03,4.22-13.45,6.37-1.06.51-2.17.76-3.27.76Zm48.51-21.46c-2.97,0-5.79-1.78-6.96-4.71-1.54-3.84.33-8.21,4.17-9.75,4.67-1.87,9.43-3.73,14.15-5.51,3.87-1.47,8.2.49,9.67,4.36,1.47,3.87-.49,8.2-4.36,9.67-4.63,1.75-9.29,3.57-13.87,5.41-.92.37-1.86.54-2.79.54Zm49.88-18.07c-3.16,0-6.1-2.01-7.13-5.18-1.28-3.94.87-8.17,4.81-9.45,4.78-1.56,9.65-3.09,14.47-4.56,3.96-1.21,8.15,1.02,9.36,4.98,1.21,3.96-1.02,8.15-4.98,9.36-4.73,1.44-9.51,2.95-14.21,4.48-.77.25-1.55.37-2.32.37Zm50.92-14.81c-3.34,0-6.39-2.25-7.26-5.63-1.03-4.01,1.38-8.1,5.39-9.13,4.86-1.25,9.79-2.48,14.68-3.65,4.03-.97,8.08,1.52,9.04,5.54.97,4.03-1.52,8.08-5.54,9.04-4.8,1.15-9.66,2.36-14.43,3.59-.63.16-1.26.24-1.88.24Zm488.38-11.4c-.45,0-.91-.04-1.37-.13-4.77-.88-9.71-1.76-14.67-2.6-4.08-.69-6.83-4.57-6.14-8.65.69-4.08,4.56-6.83,8.65-6.14,5.03.85,10.04,1.74,14.89,2.64,4.07.75,6.77,4.66,6.01,8.74-.67,3.61-3.82,6.14-7.37,6.14Zm-436.7-.32c-3.51,0-6.65-2.48-7.35-6.05-.8-4.06,1.84-8.01,5.91-8.81,4.91-.97,9.91-1.91,14.86-2.81,4.07-.74,7.98,1.97,8.72,6.05.74,4.08-1.97,7.98-6.05,8.72-4.87.88-9.79,1.81-14.62,2.76-.49.1-.98.14-1.46.14Zm384.33-8.02c-.34,0-.68-.02-1.02-.07-4.87-.66-9.84-1.31-14.79-1.92-4.11-.51-7.03-4.25-6.52-8.36.51-4.11,4.26-7.03,8.36-6.52,5.01.62,10.05,1.28,14.97,1.95,4.1.56,6.98,4.34,6.42,8.44-.51,3.76-3.73,6.49-7.42,6.49Zm-332.08-.81c-3.67,0-6.88-2.7-7.42-6.45-.58-4.1,2.27-7.9,6.37-8.48,4.93-.7,9.97-1.38,14.98-2.02,4.11-.52,7.86,2.38,8.39,6.49.52,4.11-2.38,7.86-6.49,8.39-4.93.63-9.9,1.3-14.76,1.99-.36.05-.71.08-1.06.08Zm279.4-5.23c-.23,0-.47-.01-.71-.03-4.92-.46-9.92-.9-14.86-1.31-4.13-.34-7.2-3.96-6.86-8.09.34-4.13,3.96-7.2,8.09-6.86,5,.41,10.06.86,15.03,1.32,4.12.39,7.15,4.04,6.77,8.17-.37,3.89-3.63,6.8-7.46,6.8Zm-226.75-.9c-3.83,0-7.1-2.92-7.46-6.82-.38-4.12,2.66-7.77,6.79-8.15,4.98-.46,10.04-.88,15.05-1.27,4.12-.32,7.74,2.77,8.06,6.9.32,4.13-2.77,7.74-6.9,8.06-4.94.38-9.94.81-14.85,1.26-.23.02-.46.03-.69.03Zm173.88-2.99c-.13,0-.27,0-.4-.01-4.94-.26-9.96-.5-14.9-.7-4.14-.17-7.35-3.66-7.18-7.8.17-4.14,3.69-7.34,7.8-7.18,5,.21,10.08.45,15.08.71,4.14.22,7.31,3.75,7.09,7.89-.21,4-3.52,7.1-7.48,7.1Zm-120.99-.6c-3.99,0-7.31-3.14-7.49-7.17-.18-4.14,3.02-7.64,7.16-7.83,5-.22,10.07-.42,15.09-.58,4.12-.16,7.6,3.12,7.74,7.26.13,4.14-3.12,7.6-7.26,7.74-4.95.16-9.96.35-14.9.57-.11,0-.23,0-.34,0Zm68-1.11s-.06,0-.09,0c-4.67-.05-9.41-.08-14.08-.08h-.84c-4.14,0-7.5-3.36-7.5-7.5s3.36-7.5,7.5-7.5h.84c4.73,0,9.52.03,14.25.08,4.14.05,7.46,3.44,7.41,7.59-.05,4.11-3.4,7.41-7.5,7.41Z"/>
      <path class="cls-1" d="m774.87,1110.89h0c-5.21-1.81-7.97-7.51-6.16-12.73h0c1.82-5.22,7.52-7.97,12.74-6.16h0c5.21,1.82,7.97,7.51,6.15,12.73h0c-1.43,4.13-5.3,6.72-9.44,6.72h0c-1.09,0-2.2-.18-3.28-.56Zm32.1-8.35c-2.95-4.67-1.55-10.84,3.12-13.79h0c4.67-2.95,10.85-1.55,13.79,3.12h0c2.95,4.67,1.55,10.85-3.12,13.8h0c-1.66,1.04-3.5,1.54-5.32,1.54h0c-3.32,0-6.57-1.65-8.47-4.67Zm-64.82-24.27c-1.83-5.21.91-10.92,6.12-12.75h0c5.22-1.83,10.92.91,12.75,6.13h0c1.83,5.21-.91,10.91-6.12,12.74h0c-1.1.39-2.22.57-3.31.57h0c-4.13,0-7.99-2.58-9.44-6.69Zm92.1-2.9c-5.49-.62-9.44-5.56-8.83-11.05h0c.61-5.49,5.56-9.44,11.05-8.83h0c5.49.61,9.44,5.56,8.83,11.05h0c-.57,5.11-4.9,8.89-9.93,8.89h0c-.37,0-.74-.02-1.12-.06Zm-83.84-29.23c-4.68-2.93-6.1-9.1-3.17-13.78h0c2.94-4.68,9.11-6.1,13.79-3.16h0c4.68,2.93,6.09,9.1,3.16,13.78h0c-1.9,3.03-5.15,4.69-8.48,4.69h0c-1.82,0-3.65-.49-5.3-1.53Zm65.48-9.04h0s-.08-.08-.12-.12h0c-3.86-3.9-3.87-10.19.01-14.09h0c3.89-3.92,10.23-3.94,14.14-.04h0c.05.05.1.09.15.14h0c3.87,3.91,3.86,10.22-.04,14.11h0c-1.95,1.95-4.51,2.93-7.07,2.93h0c-2.56,0-5.12-.98-7.07-2.93Zm-38.39-18.32c-.63-5.48,3.31-10.44,8.8-11.07h0c5.49-.63,10.44,3.31,11.07,8.8h0c.63,5.48-3.31,10.44-8.79,11.07h0c-.39.05-.78.07-1.16.07h0c-5.01,0-9.33-3.77-9.92-8.87Z"/>
      <path class="cls-1" d="m1193.37,258.39c-5.22-1.82-7.98-7.52-6.16-12.73h0c1.81-5.22,7.51-7.98,12.73-6.16h0c5.21,1.81,7.97,7.51,6.16,12.73h0c-1.44,4.13-5.31,6.71-9.45,6.71h0c-1.09,0-2.2-.18-3.28-.55Zm32.1-8.35c-2.95-4.67-1.55-10.85,3.12-13.8h0c4.67-2.94,10.85-1.54,13.8,3.13h0c2.94,4.67,1.54,10.84-3.13,13.79h0c-1.65,1.05-3.5,1.55-5.32,1.55h0c-3.32-.01-6.57-1.66-8.47-4.67Zm-64.82-24.28h0c-1.83-5.21.91-10.91,6.13-12.74h0c5.21-1.83,10.92.91,12.74,6.12h0c1.83,5.21-.91,10.92-6.12,12.75h0c-1.1.38-2.21.57-3.31.57h0c-4.13,0-7.99-2.58-9.44-6.7Zm92.1-2.9c-5.49-.61-9.44-5.56-8.83-11.04h0c.62-5.49,5.56-9.45,11.05-8.83h0c5.49.61,9.44,5.56,8.83,11.04h0c-.57,5.12-4.9,8.9-9.93,8.9h0c-.37,0-.74-.02-1.12-.07Zm-83.84-29.22c-4.68-2.93-6.1-9.1-3.16-13.78h0c2.93-4.68,9.1-6.1,13.78-3.17h0c4.68,2.94,6.09,9.11,3.16,13.79h0c-1.9,3.03-5.15,4.69-8.48,4.69h0c-1.81,0-3.65-.5-5.3-1.53Zm65.48-9.04s-.02-.03-.04-.04h0s-.02-.02-.03-.03h0c-3.91-3.9-3.93-10.23-.04-14.15h0c3.9-3.91,10.23-3.93,14.14-.04h0s.08.08.12.11h0c3.9,3.91,3.9,10.24,0,14.15h0c-1.96,1.95-4.52,2.93-7.08,2.93h0c-2.56,0-5.11-.98-7.07-2.93Zm-38.39-18.32c-.63-5.49,3.31-10.44,8.8-11.07h0c5.49-.63,10.45,3.31,11.07,8.79h0c.63,5.49-3.31,10.45-8.79,11.08h0c-.39.04-.77.06-1.15.06h0c-5.02,0-9.34-3.76-9.93-8.86Z"/>
      <path class="cls-1" d="m711.37,574.39c-5.22-1.82-7.98-7.52-6.16-12.73h0c1.81-5.22,7.51-7.98,12.73-6.16h0c5.21,1.81,7.97,7.51,6.16,12.73h0c-1.44,4.13-5.31,6.72-9.45,6.71h0c-1.09,0-2.2-.17-3.28-.55Zm32.1-8.35c-2.95-4.67-1.55-10.85,3.12-13.8h0c4.67-2.94,10.85-1.54,13.8,3.13h0c2.94,4.67,1.54,10.85-3.13,13.79h0c-1.65,1.05-3.5,1.54-5.32,1.54h0c-3.32,0-6.57-1.65-8.47-4.66Zm-64.82-24.27h0c-1.83-5.22.92-10.92,6.13-12.75h0c5.21-1.83,10.92.91,12.74,6.12h0c1.83,5.21-.91,10.92-6.12,12.75h0c-1.1.38-2.21.57-3.31.57h0c-4.13,0-7.99-2.58-9.44-6.69Zm92.1-2.91c-5.49-.61-9.44-5.56-8.83-11.04h0c.62-5.49,5.56-9.45,11.05-8.83h0c5.49.61,9.44,5.56,8.83,11.04h0c-.57,5.12-4.9,8.9-9.93,8.9h0c-.37,0-.74-.02-1.12-.07Zm-83.84-29.22c-4.68-2.93-6.1-9.1-3.17-13.78h0c2.94-4.68,9.11-6.1,13.79-3.17h0c4.68,2.94,6.1,9.11,3.16,13.79h0c-1.9,3.03-5.15,4.69-8.48,4.69h0c-1.81,0-3.65-.5-5.3-1.53Zm65.48-9.04h0s-.07-.08-.11-.12h0c-3.87-3.9-3.87-10.2,0-14.09h0c3.9-3.92,10.23-3.94,14.15-.05h0s.04.05.07.08h0s.02.02.04.03h0c3.9,3.91,3.9,10.24,0,14.15h0c-1.96,1.95-4.51,2.92-7.07,2.92h0c-2.56,0-5.12-.97-7.08-2.92Zm-38.39-18.32c-.63-5.49,3.31-10.44,8.8-11.07h0c5.49-.63,10.44,3.31,11.07,8.79h0c.63,5.49-3.31,10.45-8.79,11.08h0c-.39.04-.77.06-1.15.06h0c-5.02,0-9.34-3.76-9.93-8.86Z"/>
      <g>
        <path class="cls-1" d="m705.52,371c-4.14,0-7.5-3.36-7.5-7.5v-48c0-4.14,3.36-7.5,7.5-7.5s7.5,3.36,7.5,7.5v48c0,4.14-3.36,7.5-7.5,7.5Z"/>
        <path class="cls-1" d="m705.52,371c-4.14,0-7.5-3.36-7.5-7.5v-48c0-4.14,3.36-7.5,7.5-7.5s7.5,3.36,7.5,7.5v48c0,4.14-3.36,7.5-7.5,7.5Z"/>
        <path class="cls-1" d="m729,347.5h-46c-4.14,0-7.5-3.36-7.5-7.5s3.36-7.5,7.5-7.5h46c4.14,0,7.5,3.36,7.5,7.5s-3.36,7.5-7.5,7.5Z"/>
      </g>
      <g>
        <path class="cls-1" d="m1539.03,906.52c-4.14,0-7.5-3.36-7.5-7.5v-48c0-4.14,3.36-7.5,7.5-7.5s7.5,3.36,7.5,7.5v48c0,4.14-3.36,7.5-7.5,7.5Z"/>
        <path class="cls-1" d="m1539.03,906.52c-4.14,0-7.5-3.36-7.5-7.5v-48c0-4.14,3.36-7.5,7.5-7.5s7.5,3.36,7.5,7.5v48c0,4.14-3.36,7.5-7.5,7.5Z"/>
        <path class="cls-1" d="m1562.5,883.02h-46c-4.14,0-7.5-3.36-7.5-7.5s3.36-7.5,7.5-7.5h46c4.14,0,7.5,3.36,7.5,7.5s-3.36,7.5-7.5,7.5Z"/>
      </g>
      <g>
        <path class="cls-1" d="m305.56,1191.5c-4.14,0-7.5-3.36-7.5-7.5v-48c0-4.14,3.36-7.5,7.5-7.5s7.5,3.36,7.5,7.5v48c0,4.14-3.36,7.5-7.5,7.5Z"/>
        <path class="cls-1" d="m305.56,1191.5c-4.14,0-7.5-3.36-7.5-7.5v-48c0-4.14,3.36-7.5,7.5-7.5s7.5,3.36,7.5,7.5v48c0,4.14-3.36,7.5-7.5,7.5Z"/>
        <path class="cls-1" d="m329.03,1168h-46c-4.14,0-7.5-3.36-7.5-7.5s3.36-7.5,7.5-7.5h46c4.14,0,7.5,3.36,7.5,7.5s-3.36,7.5-7.5,7.5Z"/>
      </g>
      <g>
        <path class="cls-1" d="m824.52,269c-4.14,0-7.5-3.36-7.5-7.5v-45c0-4.14,3.36-7.5,7.5-7.5s7.5,3.36,7.5,7.5v45c0,4.14-3.36,7.5-7.5,7.5Z"/>
        <path class="cls-1" d="m824.52,269c-4.14,0-7.5-3.36-7.5-7.5v-45c0-4.14,3.36-7.5,7.5-7.5s7.5,3.36,7.5,7.5v45c0,4.14-3.36,7.5-7.5,7.5Z"/>
        <path class="cls-1" d="m848,246.97h-46c-4.14,0-7.5-3.36-7.5-7.5s3.36-7.5,7.5-7.5h46c4.14,0,7.5,3.36,7.5,7.5s-3.36,7.5-7.5,7.5Z"/>
      </g>
      <g>
        <path class="cls-1" d="m1322.17,624c-4.14,0-7.5-3.36-7.5-7.5v-48c0-4.14,3.36-7.5,7.5-7.5s7.5,3.36,7.5,7.5v48c0,4.14-3.36,7.5-7.5,7.5Z"/>
        <path class="cls-1" d="m1322.17,624c-4.14,0-7.5-3.36-7.5-7.5v-48c0-4.14,3.36-7.5,7.5-7.5s7.5,3.36,7.5,7.5v48c0,4.14-3.36,7.5-7.5,7.5Z"/>
        <path class="cls-1" d="m1350.37,600.5h-55.24c-4.14,0-7.5-3.36-7.5-7.5s3.36-7.5,7.5-7.5h55.24c4.14,0,7.5,3.36,7.5,7.5s-3.36,7.5-7.5,7.5Z"/>
      </g>
      <path class="cls-2" d="m640,20h-63.86c-4.14,0-7.5-3.36-7.5-7.5s3.36-7.5,7.5-7.5h63.86c4.14,0,7.5,3.36,7.5,7.5s-3.36,7.5-7.5,7.5Z"/>
      <path class="cls-2" d="m457.51,20H43c-4.14,0-7.5-3.36-7.5-7.5s3.36-7.5,7.5-7.5h414.51c4.14,0,7.5,3.36,7.5,7.5s-3.36,7.5-7.5,7.5Z"/>
      <g>
        <path class="cls-2" d="m617,1311h-354.14c-4.14,0-7.5-3.36-7.5-7.5s3.36-7.5,7.5-7.5h354.14c4.14,0,7.5,3.36,7.5,7.5s-3.36,7.5-7.5,7.5Z"/>
        <path class="cls-2" d="m184.48,1311h-31.48c-4.14,0-7.5-3.36-7.5-7.5s3.36-7.5,7.5-7.5h31.48c4.14,0,7.5,3.36,7.5,7.5s-3.36,7.5-7.5,7.5Z"/>
      </g>
      <path class="cls-2" d="m384,1260h-62.04c-4.14,0-7.5-3.36-7.5-7.5s3.36-7.5,7.5-7.5h62.04c4.14,0,7.5,3.36,7.5,7.5s-3.36,7.5-7.5,7.5Z"/>
      <path class="cls-2" d="m230.13,1260H53c-4.14,0-7.5-3.36-7.5-7.5s3.36-7.5,7.5-7.5h177.13c4.14,0,7.5,3.36,7.5,7.5s-3.36,7.5-7.5,7.5Z"/>
      <path class="cls-2" d="m1387.5,1316.5h0c-4.14,0-7.5-3.36-7.49-7.51l.43-602.99h-472.87c-4.14,0-7.5-3.36-7.5-7.5s3.36-7.5,7.5-7.5h480.38c1.99,0,3.9.79,5.3,2.2,1.41,1.41,2.2,3.32,2.2,5.31l-.43,610.5c0,4.14-3.36,7.49-7.5,7.49Z"/>
      <path class="cls-2" d="m1126.42,1150.46c-107.49,0-194.94-87.45-194.94-194.94s87.45-194.94,194.94-194.94,194.94,87.45,194.94,194.94-87.45,194.94-194.94,194.94Zm0-374.87c-99.22,0-179.94,80.72-179.94,179.94s80.72,179.94,179.94,179.94,179.94-80.72,179.94-179.94-80.72-179.94-179.94-179.94Z"/>
      <path class="cls-2" d="m1267.05,839.12c-4.14,0-7.5-3.36-7.5-7.5v-133.12c0-4.14,3.36-7.5,7.5-7.5s7.5,3.36,7.5,7.5v133.12c0,4.14-3.36,7.5-7.5,7.5Z"/>
      <path class="cls-2" d="m981.97,839.12c-4.14,0-7.5-3.36-7.5-7.5v-133.12c0-4.14,3.36-7.5,7.5-7.5s7.5,3.36,7.5,7.5v133.12c0,4.14-3.36,7.5-7.5,7.5Z"/>
      <path class="cls-2" d="m1126.42,973.69c-10.02,0-18.16-8.15-18.16-18.16s8.15-18.16,18.16-18.16,18.16,8.15,18.16,18.16-8.15,18.16-18.16,18.16Zm0-21.33c-1.74,0-3.16,1.42-3.16,3.16s1.42,3.16,3.16,3.16,3.16-1.42,3.16-3.16-1.42-3.16-3.16-3.16Z"/>
      <g>
        <path class="cls-2" d="m1126.42,820.6c-4.14,0-7.5-3.36-7.5-7.5v-10.57c0-4.14,3.36-7.5,7.5-7.5s7.5,3.36,7.5,7.5v10.57c0,4.14-3.36,7.5-7.5,7.5Z"/>
        <path class="cls-2" d="m1126.42,1116.02c-4.14,0-7.5-3.36-7.5-7.5v-9.02c0-4.14,3.36-7.5,7.5-7.5s7.5,3.36,7.5,7.5v9.02c0,4.14-3.36,7.5-7.5,7.5Z"/>
      </g>
      <g>
        <path class="cls-2" d="m1025.71,862.31c-1.92,0-3.84-.73-5.3-2.2l-7.47-7.47c-2.93-2.93-2.93-7.68,0-10.61,2.93-2.93,7.68-2.93,10.61,0l7.47,7.47c2.93,2.93,2.93,7.68,0,10.61-1.46,1.46-3.38,2.2-5.3,2.2Z"/>
        <path class="cls-2" d="m1234.6,1071.21c-1.92,0-3.84-.73-5.3-2.2l-6.38-6.38c-2.93-2.93-2.93-7.68,0-10.61,2.93-2.93,7.68-2.93,10.61,0l6.38,6.38c2.93,2.93,2.93,7.68,0,10.61-1.46,1.46-3.38,2.2-5.3,2.2Z"/>
      </g>
      <g>
        <path class="cls-2" d="m1018.23,1071.21c-1.92,0-3.84-.73-5.3-2.2-2.93-2.93-2.93-7.68,0-10.61l7.47-7.47c2.93-2.93,7.68-2.93,10.61,0,2.93,2.93,2.93,7.68,0,10.61l-7.47,7.47c-1.46,1.46-3.38,2.2-5.3,2.2Z"/>
        <path class="cls-2" d="m1228.23,861.22c-1.92,0-3.84-.73-5.3-2.2-2.93-2.93-2.93-7.68,0-10.61l6.38-6.38c2.93-2.93,7.68-2.93,10.61,0,2.93,2.93,2.93,7.68,0,10.61l-6.38,6.38c-1.46,1.46-3.38,2.2-5.3,2.2Z"/>
      </g>
      <g>
        <path class="cls-2" d="m983.99,963.02h-10.57c-4.14,0-7.5-3.36-7.5-7.5s3.36-7.5,7.5-7.5h10.57c4.14,0,7.5,3.36,7.5,7.5s-3.36,7.5-7.5,7.5Z"/>
        <path class="cls-2" d="m1279.42,963.02h-9.02c-4.14,0-7.5-3.36-7.5-7.5s3.36-7.5,7.5-7.5h9.02c4.14,0,7.5,3.36,7.5,7.5s-3.36,7.5-7.5,7.5Z"/>
      </g>
      <path class="cls-2" d="m1125.3,950.48c-4.14,0-7.5-3.36-7.5-7.5v-67.7c0-4.14,3.36-7.5,7.5-7.5s7.5,3.36,7.5,7.5v67.7c0,4.14-3.36,7.5-7.5,7.5Z"/>
      <path class="cls-2" d="m1110.12,963.02h-89.3c-4.14,0-7.5-3.36-7.5-7.5s3.36-7.5,7.5-7.5h89.3c4.14,0,7.5,3.36,7.5,7.5s-3.36,7.5-7.5,7.5Z"/>
      <path class="cls-2" d="m1387.93,792.71c-3.45,0-6.55-2.39-7.32-5.9-8.55-39.13-37.02-65.67-87.04-81.14-3.96-1.22-6.17-5.42-4.95-9.38,1.22-3.96,5.43-6.17,9.38-4.95,54.86,16.97,87.59,48.01,97.26,92.27.88,4.05-1.68,8.04-5.73,8.93-.54.12-1.08.17-1.61.17Z"/>
      <path class="cls-1" d="m1248.64,775.58c-1.4,0-2.81-.39-4.07-1.21-35.01-22.7-75.67-34.7-117.59-34.7-39.71,0-78.53,10.84-112.27,31.36-3.54,2.15-8.15,1.03-10.3-2.51-2.15-3.54-1.03-8.15,2.51-10.3,36.09-21.94,77.61-33.54,120.06-33.54,44.82,0,88.3,12.83,125.75,37.11,3.48,2.25,4.47,6.9,2.21,10.37-1.44,2.21-3.84,3.42-6.3,3.42Z"/>
      <path class="cls-1" d="m1003.6,1150.48c-1.42,0-2.86-.4-4.13-1.25-65.06-43.04-103.9-115.24-103.9-193.14,0-24.29,3.75-48.22,11.14-71.13,1.27-3.94,5.5-6.11,9.44-4.83,3.94,1.27,6.11,5.5,4.83,9.44-6.91,21.42-10.41,43.8-10.41,66.52,0,72.86,36.33,140.38,97.18,180.63,3.45,2.29,4.4,6.94,2.12,10.39-1.44,2.18-3.83,3.36-6.26,3.36Z"/>
      <path class="cls-1" d="m1126.98,1187.5c-4.14,0-7.5-3.36-7.5-7.5s3.36-7.5,7.5-7.5c7.27,0,14.6-.36,21.79-1.08,110.95-11.09,194.62-103.66,194.62-215.33,0-43.81-13.02-85.99-37.64-122.01-2.34-3.42-1.46-8.09,1.96-10.42,3.42-2.34,8.09-1.46,10.42,1.96,26.34,38.52,40.26,83.63,40.26,130.47,0,57.75-21.39,113.05-60.24,155.73-38.58,42.38-91.1,68.85-147.89,74.53-7.68.77-15.52,1.16-23.29,1.16Z"/>
      <g>
        <path class="cls-2" d="m523.4,804.85H95.73c-24.16,0-43.82-19.66-43.82-43.82V221.13c0-4.19,3.39-7.58,7.58-7.58s7.58,3.39,7.58,7.58v539.9c0,15.8,12.86,28.66,28.66,28.66h427.67c15.8,0,28.66-12.86,28.66-28.66V221.13c0-4.19,3.39-7.58,7.58-7.58s7.58,3.39,7.58,7.58v539.9c0,24.16-19.66,43.82-43.82,43.82Z"/>
        <path class="cls-2" d="m560.22,228.68h-98.06c-4.19,0-7.58-3.39-7.58-7.58s3.39-7.58,7.58-7.58h87.77l-18.62-60.21c-6.48-20.95-25.56-35.02-47.49-35.02H136.69c-23.06,0-43.14,15.05-48.83,36.61-.03.1-.06.2-.09.31l-18.04,58.32h300.11c4.19,0,7.58,3.39,7.58,7.58s-3.39,7.58-7.58,7.58H59.45c-2.41,0-4.67-1.14-6.1-3.08-1.43-1.94-1.85-4.44-1.14-6.74l21.03-67.99c7.5-28.12,33.57-47.74,63.45-47.74h347.14c28.61,0,53.52,18.37,61.97,45.7l21.66,70.03c.71,2.3.29,4.8-1.14,6.74-1.43,1.94-3.69,3.08-6.1,3.08Z"/>
        <path class="cls-2" d="m549.41,482.08H60.53c-4.13,0-7.47-3.35-7.47-7.47s3.35-7.47,7.47-7.47h488.88c4.13,0,7.47,3.35,7.47,7.47s-3.35,7.47-7.47,7.47Z"/>
        <path class="cls-2" d="m203.12,723.16h-98.67c-4.19,0-7.58-3.39-7.58-7.58v-41.96c0-4.19,3.39-7.58,7.58-7.58h98.67c4.19,0,7.58,3.39,7.58,7.58v41.96c0,4.19-3.39,7.58-7.58,7.58Zm-91.09-15.16h83.5v-26.8h-83.5v26.8Z"/>
        <path class="cls-2" d="m519.54,723.16h-98.67c-4.19,0-7.58-3.39-7.58-7.58v-41.96c0-4.19,3.39-7.58,7.58-7.58h98.67c4.19,0,7.58,3.39,7.58,7.58v41.96c0,4.19-3.39,7.58-7.58,7.58Zm-91.09-15.16h83.5v-26.8h-83.5v26.8Z"/>
        <path class="cls-2" d="m378.83,481.59c-1.68,0-3.38-.56-4.78-1.7l-225.06-183.13c-3.25-2.64-3.74-7.42-1.1-10.67,2.64-3.25,7.42-3.74,10.67-1.1l225.06,183.13c3.25,2.64,3.74,7.42,1.1,10.67-1.5,1.84-3.68,2.8-5.89,2.8Z"/>
        <path class="cls-2" d="m111.28,264.07c-1.68,0-3.38-.56-4.78-1.7l-41.55-33.81c-3.25-2.64-3.74-7.42-1.1-10.67,2.64-3.25,7.42-3.74,10.67-1.1l41.55,33.81c3.25,2.64,3.74,7.42,1.1,10.67-1.5,1.84-3.68,2.8-5.89,2.8Z"/>
        <path class="cls-2" d="m509.25,481.59c-1.65,0-3.32-.54-4.71-1.65l-57.12-45.41c-3.28-2.61-3.82-7.38-1.22-10.65,2.61-3.28,7.38-3.82,10.65-1.22l57.12,45.41c3.28,2.61,3.82,7.38,1.22,10.65-1.5,1.88-3.71,2.86-5.94,2.86Z"/>
        <path class="cls-2" d="m399.94,394.68c-1.65,0-3.32-.54-4.71-1.65l-208.79-166c-3.28-2.61-3.82-7.38-1.22-10.65,2.61-3.28,7.38-3.82,10.65-1.22l208.79,166c3.28,2.61,3.82,7.38,1.22,10.65-1.5,1.88-3.71,2.86-5.94,2.86Z"/>
        <path class="cls-2" d="m609.13,1068.5H12.58c-2.46,0-4.76-1.19-6.18-3.19-1.42-2-1.79-4.57-.98-6.89l91.86-263.68c1.06-3.05,3.93-5.09,7.16-5.09h415.09c3.25,0,6.13,2.07,7.18,5.14l89.6,263.68c.79,2.32.41,4.87-1.01,6.86-1.42,1.99-3.72,3.17-6.16,3.17Zm-585.88-15.16h575.29l-84.44-248.52H109.83l-86.58,248.52Z"/>
        <path class="cls-2" d="m561.5,955.65H58.51c-4.19,0-7.58-3.39-7.58-7.58s3.39-7.58,7.58-7.58h502.99c4.19,0,7.58,3.39,7.58,7.58s-3.39,7.58-7.58,7.58Z"/>
        <path class="cls-2" d="m534.79,863.59H86.55c-4.19,0-7.58-3.39-7.58-7.58s3.39-7.58,7.58-7.58h448.24c4.19,0,7.58,3.39,7.58,7.58s-3.39,7.58-7.58,7.58Z"/>
        <path class="cls-2" d="m371.99,555.09H65.66c-4.19,0-7.58-3.39-7.58-7.58s3.39-7.58,7.58-7.58h306.33c4.19,0,7.58,3.39,7.58,7.58s-3.39,7.58-7.58,7.58Z"/>
        <path class="cls-2" d="m545.88,185.45H213.27c-4.19,0-7.58-3.39-7.58-7.58s3.39-7.58,7.58-7.58h332.62c4.19,0,7.58,3.39,7.58,7.58s-3.39,7.58-7.58,7.58Z"/>
        <path class="cls-2" d="m130.36,185.45h-59.65c-4.19,0-7.58-3.39-7.58-7.58s3.39-7.58,7.58-7.58h59.65c4.19,0,7.58,3.39,7.58,7.58s-3.39,7.58-7.58,7.58Z"/>
        <path class="cls-2" d="m340.65,764.7H64.65c-4.19,0-7.58-3.39-7.58-7.58s3.39-7.58,7.58-7.58h276c4.19,0,7.58,3.39,7.58,7.58s-3.39,7.58-7.58,7.58Z"/>
        <path class="cls-2" d="m554.98,764.7h-125.36c-4.19,0-7.58-3.39-7.58-7.58s3.39-7.58,7.58-7.58h125.36c4.19,0,7.58,3.39,7.58,7.58s-3.39,7.58-7.58,7.58Z"/>
      </g>
      <path class="cls-1" d="m1002.85,1290.42c-2.97,0-5.96-.02-8.96-.05-4.14-.04-7.47-3.37-7.42-7.51.04-4.12,3.39-7.36,7.5-7.36h15c4.12,0,7.47,3.27,7.5,7.4.03,4.14-3.31,7.5-7.45,7.53-2.05.01-4.1,0-6.17,0Zm44.1-1.11c-3.97,0-7.28-3.11-7.48-7.12-.21-4.14,2.98-7.66,7.11-7.87,4.9-.25,9.9-.54,14.85-.87,4.13-.28,7.71,2.85,7.99,6.98.28,4.13-2.85,7.71-6.98,7.99-5.03.34-10.12.64-15.1.89-.13,0-.26,0-.38,0Zm-90.95-.16c-.14,0-.28,0-.41-.01-5.01-.27-10.09-.59-15.1-.96-4.13-.3-7.24-3.89-6.94-8.02.3-4.13,3.89-7.24,8.02-6.94,4.92.36,9.92.67,14.84.94,4.14.23,7.31,3.76,7.08,7.9-.22,4-3.53,7.09-7.48,7.09Zm143.78-4.08c-3.77,0-7.02-2.84-7.45-6.68-.45-4.12,2.52-7.82,6.63-8.28,4.9-.54,9.87-1.13,14.77-1.75,4.1-.52,7.86,2.38,8.39,6.49.52,4.11-2.38,7.86-6.49,8.39-4.99.63-10.04,1.23-15.02,1.78-.28.03-.56.05-.83.05Zm-196.58-.45c-.29,0-.59-.02-.89-.05-4.99-.59-10.04-1.23-15.01-1.9-4.1-.56-6.98-4.34-6.42-8.44.56-4.1,4.34-6.98,8.44-6.42,4.88.66,9.84,1.29,14.75,1.87,4.11.48,7.06,4.21,6.57,8.33-.45,3.82-3.69,6.62-7.44,6.62Zm249.07-6.91c-3.59,0-6.76-2.58-7.38-6.24-.7-4.08,2.05-7.96,6.13-8.65,4.87-.83,9.79-1.71,14.65-2.62,4.07-.76,7.99,1.92,8.75,5.99.76,4.07-1.92,7.99-5.99,8.75-4.93.93-9.95,1.82-14.89,2.67-.43.07-.85.11-1.27.11Zm-301.48-.96c-.45,0-.9-.04-1.36-.12-4.96-.91-9.96-1.87-14.86-2.86-4.06-.82-6.69-4.78-5.87-8.84.82-4.06,4.77-6.69,8.84-5.87,4.81.97,9.72,1.92,14.59,2.81,4.07.75,6.77,4.65,6.03,8.73-.66,3.62-3.82,6.15-7.37,6.15Zm353.45-9.49c-3.41,0-6.49-2.34-7.3-5.8-.94-4.03,1.57-8.07,5.61-9,4.81-1.12,9.68-2.29,14.46-3.49,4.02-1.01,8.09,1.43,9.1,5.45,1.01,4.02-1.43,8.09-5.45,9.1-4.87,1.22-9.82,2.42-14.71,3.55-.57.13-1.14.2-1.7.2Zm-405.25-1.72c-.6,0-1.22-.07-1.83-.23-4.87-1.22-9.8-2.5-14.65-3.81-4-1.08-6.36-5.2-5.28-9.2,1.08-4,5.2-6.37,9.2-5.28,4.76,1.29,9.6,2.55,14.38,3.74,4.02,1.01,6.46,5.08,5.45,9.1-.85,3.41-3.91,5.68-7.27,5.68Zm456.49-11.89c-3.23,0-6.2-2.1-7.18-5.34-1.19-3.97,1.06-8.15,5.03-9.34,4.77-1.43,9.55-2.92,14.19-4.41,3.94-1.27,8.17.9,9.44,4.84,1.27,3.94-.9,8.17-4.84,9.44-4.74,1.52-9.61,3.04-14.47,4.5-.72.22-1.45.32-2.16.32Zm-507.45-2.65c-.76,0-1.53-.12-2.29-.36-4.79-1.54-9.63-3.14-14.37-4.75-3.92-1.34-6.01-5.6-4.68-9.52,1.34-3.92,5.6-6.01,9.52-4.68,4.66,1.59,9.4,3.16,14.11,4.67,3.94,1.27,6.12,5.49,4.85,9.43-1.02,3.18-3.97,5.21-7.14,5.21Zm557.65-14.47c-3,0-5.83-1.81-6.99-4.78-1.51-3.86.4-8.21,4.26-9.71,8.74-3.41,13.47-5.56,13.52-5.58,3.77-1.72,8.22-.05,9.93,3.72,1.72,3.77.05,8.21-3.71,9.93-.2.09-5.11,2.32-14.29,5.9-.9.35-1.82.51-2.72.51Zm-607.56-3.33c-.91,0-1.84-.17-2.74-.52-4.66-1.83-9.38-3.74-14.03-5.67-3.83-1.59-5.64-5.97-4.06-9.8,1.59-3.83,5.98-5.64,9.8-4.06,4.57,1.9,9.21,3.77,13.78,5.57,3.85,1.52,5.75,5.87,4.23,9.73-1.16,2.95-3.99,4.76-6.98,4.76Zm-48.66-20.97c-1.07,0-2.15-.23-3.18-.71-4.53-2.13-9.12-4.33-13.64-6.55-3.72-1.83-5.25-6.32-3.43-10.04,1.83-3.72,6.32-5.25,10.04-3.43,4.44,2.18,8.95,4.35,13.4,6.44,3.75,1.76,5.36,6.23,3.6,9.98-1.28,2.72-3.98,4.32-6.79,4.32Zm-47.24-24c-1.22,0-2.45-.3-3.6-.92-4.39-2.41-8.83-4.89-13.2-7.38-3.6-2.05-4.85-6.63-2.8-10.23,2.05-3.6,6.63-4.85,10.23-2.8,4.29,2.45,8.66,4.89,12.98,7.26,3.63,1.99,4.96,6.55,2.97,10.18-1.36,2.49-3.93,3.9-6.58,3.9Zm-45.67-26.86c-1.37,0-2.75-.37-3.99-1.15-4.25-2.68-8.54-5.42-12.73-8.16-3.47-2.27-4.44-6.91-2.18-10.38,2.27-3.47,6.91-4.44,10.38-2.18,4.12,2.69,8.34,5.4,12.52,8.03,3.51,2.21,4.56,6.84,2.35,10.34-1.43,2.26-3.86,3.51-6.35,3.51Zm-44.02-29.54c-1.49,0-2.99-.45-4.31-1.38,0,0-.08-.06-.09-.07-3.37-2.41-4.14-7.1-1.72-10.47,2.41-3.37,7.1-4.14,10.47-1.72,3.36,2.41,4.17,7.11,1.76,10.48-1.47,2.06-3.77,3.16-6.11,3.16Z"/>
      <path class="cls-1" d="m1505.68,1117.5h0c-5.21-1.81-7.97-7.51-6.16-12.73h0c1.82-5.22,7.52-7.97,12.74-6.16h0c5.21,1.82,7.97,7.51,6.15,12.73h0c-1.43,4.13-5.3,6.72-9.44,6.72h0c-1.09,0-2.2-.18-3.28-.56Zm32.1-8.35c-2.95-4.67-1.55-10.84,3.12-13.79h0c4.67-2.95,10.85-1.55,13.79,3.12h0c2.95,4.67,1.55,10.85-3.12,13.8h0c-1.66,1.04-3.5,1.54-5.32,1.54h0c-3.32,0-6.57-1.65-8.47-4.67Zm-64.82-24.27c-1.83-5.21.91-10.92,6.12-12.75h0c5.22-1.83,10.92.91,12.75,6.13h0c1.83,5.21-.91,10.91-6.12,12.74h0c-1.1.39-2.22.57-3.31.57h0c-4.13,0-7.99-2.58-9.44-6.69Zm92.1-2.9c-5.49-.62-9.44-5.56-8.83-11.05h0c.61-5.49,5.56-9.44,11.05-8.83h0c5.49.61,9.44,5.56,8.83,11.05h0c-.57,5.11-4.9,8.89-9.93,8.89h0c-.37,0-.74-.02-1.12-.06Zm-83.84-29.23c-4.68-2.93-6.1-9.1-3.17-13.78h0c2.94-4.68,9.11-6.1,13.79-3.16h0c4.68,2.93,6.09,9.1,3.16,13.78h0c-1.9,3.03-5.15,4.69-8.48,4.69h0c-1.82,0-3.65-.49-5.3-1.53Zm65.48-9.04h0s-.08-.08-.12-.12h0c-3.86-3.9-3.87-10.19.01-14.09h0c3.89-3.92,10.23-3.94,14.14-.04h0c.05.05.1.09.15.14h0c3.87,3.91,3.86,10.22-.04,14.11h0c-1.95,1.95-4.51,2.93-7.07,2.93h0c-2.56,0-5.12-.98-7.07-2.93Zm-38.39-18.32c-.63-5.48,3.31-10.44,8.8-11.07h0c5.49-.63,10.44,3.31,11.07,8.8h0c.63,5.48-3.31,10.44-8.79,11.07h0c-.39.05-.78.07-1.16.07h0c-5.01,0-9.33-3.77-9.92-8.87Z"/>
    </g>
  </g>
</svg>