<?xml version="1.0" encoding="UTF-8"?>
<svg id="Layer_2" data-name="Layer 2" xmlns="http://www.w3.org/2000/svg" xmlns:xlink="http://www.w3.org/1999/xlink" viewBox="0 0 177.16 118.11">
  <defs>
    <style>
      .cls-1, .cls-2 {
        fill: none;
      }

      .cls-3 {
        fill: url(#linear-gradient);
      }

      .cls-4 {
        fill: url(#linear-gradient-8);
      }

      .cls-5 {
        fill: url(#linear-gradient-9);
      }

      .cls-6 {
        fill: url(#linear-gradient-3);
      }

      .cls-7 {
        fill: url(#linear-gradient-4);
      }

      .cls-8 {
        fill: url(#linear-gradient-2);
      }

      .cls-9 {
        fill: url(#linear-gradient-6);
      }

      .cls-10 {
        fill: url(#linear-gradient-7);
      }

      .cls-11 {
        fill: url(#linear-gradient-5);
      }

      .cls-12 {
        fill: url(#linear-gradient-14);
      }

      .cls-13 {
        fill: url(#linear-gradient-18);
      }

      .cls-14 {
        fill: url(#linear-gradient-22);
      }

      .cls-15 {
        fill: url(#linear-gradient-20);
      }

      .cls-16 {
        fill: url(#linear-gradient-21);
      }

      .cls-17 {
        fill: url(#linear-gradient-23);
      }

      .cls-18 {
        fill: url(#linear-gradient-15);
      }

      .cls-19 {
        fill: url(#linear-gradient-19);
      }

      .cls-20 {
        fill: url(#linear-gradient-16);
      }

      .cls-21 {
        fill: url(#linear-gradient-17);
      }

      .cls-22 {
        fill: url(#linear-gradient-13);
      }

      .cls-23 {
        fill: url(#linear-gradient-12);
      }

      .cls-24 {
        fill: url(#linear-gradient-10);
      }

      .cls-25 {
        fill: url(#linear-gradient-11);
      }

      .cls-26 {
        fill: url(#linear-gradient-27);
      }

      .cls-27 {
        fill: url(#linear-gradient-24);
      }

      .cls-28 {
        fill: url(#linear-gradient-26);
      }

      .cls-29 {
        fill: url(#linear-gradient-25);
      }

      .cls-30 {
        fill: url(#linear-gradient-28);
      }

      .cls-31 {
        fill: url(#linear-gradient-29);
      }

      .cls-32 {
        fill: url(#linear-gradient-30);
      }

      .cls-33 {
        fill: url(#linear-gradient-32);
      }

      .cls-34 {
        fill: url(#linear-gradient-31);
      }

      .cls-2 {
        clip-path: url(#clippath);
      }
    </style>
    <clipPath id="clippath">
      <rect class="cls-1" width="177.16" height="118.11"/>
    </clipPath>
    <linearGradient id="linear-gradient" x1="22.32" y1="631.4" x2="173.75" y2="631.23" gradientTransform="translate(287.82 -575.86) rotate(-170.96) scale(1 -1)" gradientUnits="userSpaceOnUse">
      <stop offset="0" stop-color="#eb642f"/>
      <stop offset=".23" stop-color="#ff00e1"/>
      <stop offset=".27" stop-color="#e40ee4"/>
      <stop offset=".38" stop-color="#b12beb"/>
      <stop offset=".45" stop-color="#913def"/>
      <stop offset=".5" stop-color="#8644f1"/>
      <stop offset=".81" stop-color="#29c4fa"/>
      <stop offset=".97" stop-color="aqua"/>
    </linearGradient>
    <linearGradient id="linear-gradient-2" x1="22.32" y1="631.06" x2="173.75" y2="630.89" xlink:href="#linear-gradient"/>
    <linearGradient id="linear-gradient-3" x1="22.32" y1="630.73" x2="173.75" y2="630.56" xlink:href="#linear-gradient"/>
    <linearGradient id="linear-gradient-4" x1="22.32" y1="630.4" x2="173.75" y2="630.23" xlink:href="#linear-gradient"/>
    <linearGradient id="linear-gradient-5" x1="22.32" y1="630.07" x2="173.75" y2="629.9" xlink:href="#linear-gradient"/>
    <linearGradient id="linear-gradient-6" x1="22.32" y1="629.72" x2="173.75" y2="629.55" xlink:href="#linear-gradient"/>
    <linearGradient id="linear-gradient-7" x1="22.32" y1="629.4" x2="173.75" y2="629.23" xlink:href="#linear-gradient"/>
    <linearGradient id="linear-gradient-8" x1="22.32" y1="629.08" x2="173.75" y2="628.92" xlink:href="#linear-gradient"/>
    <linearGradient id="linear-gradient-9" x1="22.32" y1="628.73" x2="173.75" y2="628.56" xlink:href="#linear-gradient"/>
    <linearGradient id="linear-gradient-10" x1="22.32" y1="628.42" x2="173.75" y2="628.25" xlink:href="#linear-gradient"/>
    <linearGradient id="linear-gradient-11" x1="22.32" y1="628.08" x2="173.75" y2="627.92" xlink:href="#linear-gradient"/>
    <linearGradient id="linear-gradient-12" x1="22.32" y1="627.77" x2="173.75" y2="627.6" xlink:href="#linear-gradient"/>
    <linearGradient id="linear-gradient-13" x1="22.32" y1="627.43" x2="173.75" y2="627.26" xlink:href="#linear-gradient"/>
    <linearGradient id="linear-gradient-14" x1="22.32" y1="627.11" x2="173.75" y2="626.95" xlink:href="#linear-gradient"/>
    <linearGradient id="linear-gradient-15" x1="22.31" y1="626.8" x2="173.75" y2="626.63" xlink:href="#linear-gradient"/>
    <linearGradient id="linear-gradient-16" x1="22.31" y1="626.49" x2="173.75" y2="626.32" xlink:href="#linear-gradient"/>
    <linearGradient id="linear-gradient-17" x1="22.31" y1="626.17" x2="173.75" y2="626" xlink:href="#linear-gradient"/>
    <linearGradient id="linear-gradient-18" x1="22.31" y1="625.86" x2="173.75" y2="625.69" xlink:href="#linear-gradient"/>
    <linearGradient id="linear-gradient-19" x1="22.31" y1="625.53" x2="173.75" y2="625.36" xlink:href="#linear-gradient"/>
    <linearGradient id="linear-gradient-20" x1="22.31" y1="625.21" x2="173.75" y2="625.04" xlink:href="#linear-gradient"/>
    <linearGradient id="linear-gradient-21" x1="22.31" y1="624.91" x2="173.75" y2="624.75" xlink:href="#linear-gradient"/>
    <linearGradient id="linear-gradient-22" x1="22.31" y1="624.63" x2="173.75" y2="624.47" xlink:href="#linear-gradient"/>
    <linearGradient id="linear-gradient-23" x1="22.31" y1="624.31" x2="173.75" y2="624.15" xlink:href="#linear-gradient"/>
    <linearGradient id="linear-gradient-24" x1="22.31" y1="624.01" x2="173.75" y2="623.84" xlink:href="#linear-gradient"/>
    <linearGradient id="linear-gradient-25" x1="22.31" y1="623.71" x2="173.74" y2="623.55" xlink:href="#linear-gradient"/>
    <linearGradient id="linear-gradient-26" x1="22.31" y1="623.43" x2="173.74" y2="623.26" xlink:href="#linear-gradient"/>
    <linearGradient id="linear-gradient-27" x1="22.31" y1="623.13" x2="173.74" y2="622.96" xlink:href="#linear-gradient"/>
    <linearGradient id="linear-gradient-28" x1="22.31" y1="622.81" x2="173.74" y2="622.65" xlink:href="#linear-gradient"/>
    <linearGradient id="linear-gradient-29" x1="22.31" y1="622.53" x2="173.74" y2="622.36" xlink:href="#linear-gradient"/>
    <linearGradient id="linear-gradient-30" x1="22.31" y1="622.26" x2="173.74" y2="622.09" xlink:href="#linear-gradient"/>
    <linearGradient id="linear-gradient-31" x1="22.31" y1="621.96" x2="173.74" y2="621.79" xlink:href="#linear-gradient"/>
    <linearGradient id="linear-gradient-32" x1="22.31" y1="621.69" x2="173.74" y2="621.52" xlink:href="#linear-gradient"/>
  </defs>
  <g id="Layer_2-2" data-name="Layer 2">
    <g id="Layer_1-2" data-name="Layer 1-2">
      <g class="cls-2">
        <g>
          <path class="cls-3" d="m62.73,14.42c-.85-.13-1.68-.18-2.49-.14-1.6.08-3.08.51-4.38,1.28-1.32.77-2.43,1.87-3.29,3.25-3.06,4.91-5.98,7.4-8.67,7.4-2.88,0-4.94-2.87-6.17-5.28-1.38-2.7-2.67-4.77-3.97-6.3-1.19-1.42-2.39-2.39-3.65-2.97-2.39-1.1-4.85-.7-7.69-.23-2.65.44-5.66.94-9.43.41l-.02.09c3.79.53,6.8.02,9.45-.42,5.78-.96,9.6-1.59,15.24,9.46.81,1.59,1.7,2.86,2.66,3.74,1.12,1.04,2.32,1.57,3.57,1.58,2.72,0,5.65-2.49,8.73-7.44,1.7-2.74,4.4-4.34,7.61-4.5,6.41-.33,13.49,4.7,18.96,13.46,2.24,3.59,4.46,6.3,6.58,8.05,1,.81,2,1.45,2.98,1.87.93.4,1.87.63,2.8.67,3.09.14,6.12-1.66,9.52-5.69,2.65-3.13,5.58-4.5,8.27-3.84,3.61.88,6.58,5.16,8.59,12.39.95,3.44,1.25,5.69,1.42,7.05.13.98.19,1.43.39,1.5s.49-.24,1.13-.93c1.49-1.62,4.98-5.41,13.28-10.16,5.13-2.93,8.95-4.8,11.69-5.71,1.28-.43,2.33-.65,3.19-.67.8-.02,1.42.14,1.89.47,1.23.86,1.3,2.83,1.39,5.11.07,2.01.16,4.29,1.07,6.24.57,1.21,1.29,2.2,2.17,2.95.84.71,1.8,1.21,2.89,1.47,1.8.45,3.87.25,6.13-.56,2.17-.78,4.46-2.15,6.65-3.95,2.77-2.28,7.06-1.88,10.18-1.13,3.38.8,6.17,2.19,6.17,2.19l.02-.09s-2.78-1.39-6.17-2.19c-1.99-.47-3.8-.66-5.38-.57-1.98.12-3.61.7-4.85,1.72-4.52,3.72-9.16,5.37-12.72,4.5-2.22-.54-3.9-2.02-5-4.38-.9-1.94-.99-4.2-1.06-6.21-.08-2.31-.16-4.29-1.42-5.18-.49-.34-1.11-.5-1.92-.47-.86.02-1.91.24-3.21.67-2.74.91-6.57,2.78-11.7,5.72-8.31,4.76-11.81,8.55-13.3,10.17-.58.63-.9.97-1.06.91-.16-.06-.23-.55-.34-1.44-.18-1.35-.48-3.62-1.43-7.06-1.03-3.74-2.34-6.71-3.88-8.84-1.43-1.97-3.03-3.18-4.77-3.6-1.38-.34-2.81-.16-4.25.52-1.4.67-2.78,1.79-4.09,3.34-3.39,4-6.4,5.8-9.47,5.65-3.97-.19-8-3.65-12.31-10.56-1.45-2.32-3.03-4.41-4.69-6.2-1.57-1.69-3.22-3.13-4.91-4.26-2.32-1.56-4.67-2.53-6.93-2.89v.02Z"/>
          <path class="cls-8" d="m62.38,14.05c-.23-.04-.45-.07-.67-.09-1.11-.12-2.19-.08-3.21.12-2.62.5-4.79,2-6.29,4.33-3.09,4.83-6.04,7.29-8.76,7.31-2.25.01-4.38-1.69-6.17-4.95-1.06-1.94-2.06-3.54-3.08-4.88-2-2.62-3.96-4.1-6.17-4.64-.22-.06-.45-.1-.68-.14-1.81-.28-3.67-.01-5.79.3-2.58.38-5.5.82-9.08.32l-.02.09c3.59.5,6.52.07,9.1-.32,4.81-.71,8.28-1.23,12.59,4.46,1.01,1.34,2.01,2.93,3.07,4.87.82,1.51,1.72,2.7,2.68,3.53,1.12.97,2.31,1.46,3.54,1.45,2.75-.02,5.71-2.49,8.82-7.34,1.48-2.32,3.64-3.8,6.24-4.3,4.28-.82,9.31,1.14,13.8,5.38,2.32,2.19,4.49,4.89,6.47,8.03,2.17,3.44,4.33,6.05,6.41,7.78,1.9,1.57,3.81,2.44,5.67,2.6,1.53.13,3.08-.22,4.62-1.05,1.35-.72,2.7-1.81,4.13-3.3.4-.42.79-.85,1.17-1.29,2.63-3.01,5.44-4.27,8.12-3.62,3.64.88,6.68,5.17,8.78,12.4.94,3.21,1.29,5.4,1.51,6.71.17,1.07.25,1.55.48,1.63.22.08.53-.25,1.2-.98,1.28-1.39,3.66-3.96,8.7-7.31,1.31-.87,2.79-1.76,4.52-2.71,7.34-4.04,12.24-5.95,15-5.83,1.31.05,2.13.59,2.6,1.69.43.99.51,2.38.6,3.84.12,1.94.26,4.13,1.19,6.01,1.1,2.21,2.74,3.61,4.87,4.16,1,.26,2.09.32,3.26.19,1.14-.13,2.34-.44,3.59-.92,2.01-.79,4.1-2.02,6.2-3.66,2.82-2.21,7.1-1.74,10.19-.95,3.36.85,6.11,2.27,6.11,2.27l.02-.09s-2.75-1.41-6.11-2.27c-1.97-.5-3.78-.72-5.36-.65-1.99.08-3.63.63-4.89,1.62-2.08,1.64-4.16,2.86-6.18,3.65-5.29,2.07-9.53.84-11.63-3.39-.92-1.86-1.06-4.05-1.18-5.97-.09-1.47-.17-2.86-.6-3.88-.41-.98-1.1-1.52-2.14-1.69-.17-.02-.34-.04-.52-.05-2.78-.12-7.7,1.79-15.04,5.83-1.73.95-3.22,1.84-4.53,2.71-5.04,3.36-7.43,5.94-8.71,7.32-.62.66-.95,1.03-1.13.96-.19-.06-.27-.6-.43-1.57-.21-1.32-.57-3.51-1.51-6.73-1.09-3.73-2.43-6.71-4-8.83-1.46-1.98-3.09-3.2-4.84-3.62-1.36-.32-2.76-.17-4.16.47-1.38.63-2.73,1.69-4.02,3.17-.38.43-.78.87-1.17,1.28-3,3.15-5.84,4.56-8.69,4.32-3.91-.32-7.85-3.72-12.03-10.35-1.99-3.14-4.16-5.85-6.49-8.04-2.32-2.19-4.74-3.76-7.19-4.68-.93-.35-1.87-.6-2.78-.75h-.02Z"/>
          <path class="cls-6" d="m62.06,13.67c-.17-.03-.33-.05-.5-.07-1.09-.13-2.16-.1-3.18.07-1.32.23-2.55.72-3.65,1.45-1.11.74-2.06,1.71-2.85,2.89-3.13,4.74-6.11,7.17-8.86,7.22-2.26.04-4.33-1.51-6.16-4.61-1.09-1.87-2.12-3.4-3.15-4.7-2.07-2.59-4.09-4.06-6.39-4.61-2.1-.5-4.19-.23-6.62.09-2.5.33-5.35.7-8.73.23l-.02.09c3.4.47,6.25.09,8.76-.23,4.74-.62,8.48-1.11,12.94,4.5,1.03,1.3,2.06,2.83,3.15,4.69.84,1.43,1.75,2.54,2.7,3.32,1.11.91,2.29,1.35,3.52,1.34,2.76-.05,5.76-2.49,8.91-7.26,1.56-2.35,3.79-3.84,6.46-4.3,4.27-.74,9.22,1.26,13.57,5.49,2.31,2.23,4.47,4.94,6.46,8.05,2.15,3.37,4.29,5.93,6.36,7.62,1.9,1.54,3.8,2.41,5.66,2.56,1.55.13,3.14-.21,4.71-1.04,1.36-.72,2.73-1.8,4.18-3.28.46-.47.84-.88,1.19-1.26,2.56-2.86,5.3-4.03,7.93-3.39,3.67.88,6.79,5.18,9.01,12.41.92,2.99,1.31,5.02,1.57,6.37.23,1.17.33,1.71.59,1.79.24.08.6-.29,1.29-1.04,1.29-1.39,3.68-3.96,8.62-7.23,1.25-.82,2.73-1.68,4.54-2.63,7.01-3.7,12.03-5.48,14.93-5.28,1.3.09,2.14.64,2.62,1.73.44.99.57,2.34.69,3.76.17,1.86.36,3.97,1.31,5.77,1.13,2.13,2.78,3.46,4.91,3.97.99.24,2.09.29,3.26.15,1.13-.14,2.35-.45,3.6-.93,1.98-.77,4.08-1.96,6.23-3.55,2.88-2.14,7.14-1.59,10.21-.76,3.33.9,6.03,2.34,6.03,2.34l.04-.08s-2.71-1.45-6.05-2.35c-1.95-.54-3.75-.78-5.34-.74-1.99.05-3.64.56-4.92,1.51-2.15,1.59-4.24,2.78-6.21,3.54-5.36,2.07-9.52.96-11.7-3.15-.94-1.78-1.13-3.88-1.29-5.73-.25-2.74-.46-5.12-2.97-5.52-.13-.02-.27-.03-.41-.05-2.91-.2-7.95,1.58-14.97,5.28-1.81.96-3.29,1.82-4.54,2.64-4.95,3.29-7.35,5.86-8.64,7.25-.66.7-1.01,1.09-1.22,1.02-.21-.07-.32-.62-.54-1.73-.26-1.35-.66-3.39-1.58-6.38-1.15-3.72-2.53-6.69-4.14-8.82-1.5-1.99-3.15-3.21-4.92-3.64-.16-.04-.31-.06-.47-.09-1.18-.18-2.39-.02-3.6.51-1.35.58-2.67,1.59-3.93,3-.34.38-.73.8-1.18,1.26-3.06,3.14-5.95,4.55-8.83,4.3-3.92-.34-7.83-3.66-11.97-10.15-1.98-3.12-4.16-5.83-6.46-8.07-2.26-2.19-4.62-3.78-7.04-4.72-.97-.37-1.94-.64-2.9-.79h0Z"/>
          <path class="cls-7" d="m61.72,13.31c-1.19-.18-2.35-.19-3.49-.02-1.36.21-2.63.69-3.77,1.42-1.15.74-2.14,1.72-2.95,2.91-3.18,4.66-6.2,7.06-8.97,7.14-2.24.06-4.3-1.38-6.14-4.29-1.14-1.8-2.2-3.28-3.22-4.51-2.14-2.56-4.24-4.01-6.62-4.58-2.15-.52-4.28-.28-6.74,0-2.43.27-5.18.59-8.38.15l-.02.09c3.21.44,5.97.13,8.4-.15,4.85-.55,8.68-.99,13.3,4.55,1.03,1.22,2.08,2.7,3.22,4.5,1.84,2.93,3.93,4.38,6.19,4.32,2.79-.07,5.82-2.48,9.02-7.17,1.63-2.39,3.94-3.88,6.68-4.31,4.25-.66,9.11,1.38,13.32,5.59,2.28,2.28,4.44,5,6.43,8.08,2.13,3.29,4.25,5.8,6.33,7.46,1.89,1.51,3.79,2.36,5.65,2.53,1.58.14,3.19-.21,4.79-1.04,1.38-.72,2.77-1.79,4.23-3.27.44-.45.81-.83,1.19-1.24,2.51-2.71,5.19-3.81,7.76-3.18,3.7.9,6.88,5.2,9.22,12.43.89,2.77,1.33,4.72,1.62,6.01.28,1.29.42,1.87.7,1.96.27.09.65-.31,1.37-1.09,1.3-1.38,3.69-3.95,8.55-7.16,1.22-.8,2.66-1.61,4.55-2.57,8.47-4.28,12.75-4.93,14.87-4.73,1.29.13,2.14.69,2.65,1.77.46.98.62,2.28.78,3.67.2,1.8.45,3.82,1.42,5.54,1.15,2.03,2.81,3.31,4.95,3.76,2,.43,4.31.15,6.89-.83,1.94-.74,4.04-1.9,6.25-3.45,2.93-2.06,7.18-1.45,10.23-.57,3.31.95,5.98,2.43,5.98,2.43l.04-.08s-2.67-1.48-5.99-2.43c-1.95-.56-3.73-.84-5.32-.83-1.99.01-3.66.49-4.96,1.41-2.21,1.54-4.3,2.7-6.24,3.43-5.36,2.04-9.54,1.01-11.75-2.91-.96-1.7-1.19-3.72-1.41-5.5-.32-2.71-.59-5.06-3.2-5.47-.1-.02-.19-.03-.29-.04-1.37-.14-3.19.12-5.39.77-2.64.78-5.84,2.11-9.51,3.97-1.89.96-3.34,1.78-4.56,2.57-4.88,3.22-7.28,5.79-8.57,7.17-.69.74-1.08,1.14-1.31,1.07-.25-.08-.39-.69-.66-1.9-.29-1.3-.73-3.25-1.63-6.02-1.2-3.71-2.64-6.68-4.27-8.81-1.53-2-3.21-3.23-5-3.67-2.6-.63-5.3.48-7.82,3.2-.37.4-.74.79-1.19,1.24-3.1,3.14-6.04,4.55-8.97,4.28-3.93-.35-7.84-3.61-11.93-9.95-1.99-3.09-4.15-5.81-6.44-8.09-2.19-2.19-4.5-3.79-6.88-4.74-1.03-.41-2.03-.69-3.02-.85h0Z"/>
          <path class="cls-11" d="m61.37,12.98c-1.12-.18-2.21-.2-3.29-.04-1.39.2-2.7.67-3.88,1.39-1.18.74-2.21,1.73-3.07,2.94-3.22,4.58-6.27,6.95-9.07,7.06-2.22.09-4.28-1.25-6.13-3.97-1.18-1.72-2.25-3.14-3.29-4.33-2.21-2.52-4.39-3.96-6.84-4.55-.28-.06-.56-.12-.83-.16-1.95-.31-3.95-.12-6.05.09-2.35.23-5.01.49-8.02.07l-.02.09c3.02.41,5.69.16,8.03-.07,4.95-.49,8.87-.86,13.66,4.6,1.04,1.18,2.11,2.6,3.29,4.32,1.87,2.74,3.94,4.08,6.19,4,1.34-.05,2.75-.62,4.18-1.69,1.59-1.18,3.25-3,4.94-5.41,1.7-2.43,4.09-3.91,6.89-4.3,4.3-.59,8.94,1.42,13.09,5.69,2.26,2.32,4.41,5.04,6.41,8.1,2.08,3.18,4.16,5.61,6.2,7.24,1.86,1.48,3.74,2.34,5.58,2.54,1.64.18,3.31-.15,4.97-.98,1.42-.72,2.85-1.79,4.35-3.29l.13-.13c.36-.35.72-.72,1.07-1.08,2.44-2.56,5.06-3.59,7.58-2.98,3.72.9,6.98,5.2,9.43,12.44.86,2.54,1.34,4.4,1.65,5.63.36,1.4.52,2.04.83,2.13.29.09.68-.33,1.44-1.14,1.29-1.38,3.7-3.94,8.5-7.08,1.19-.78,2.56-1.53,4.57-2.5,8.19-3.96,12.57-4.46,14.79-4.18,2.81.35,3.15,2.68,3.55,5.38.26,1.72.54,3.67,1.53,5.31,1.17,1.95,2.85,3.14,4.98,3.56,1.99.4,4.32.1,6.91-.87,1.93-.73,3.98-1.82,6.28-3.34,3-1.99,7.23-1.31,10.25-.39,3.28,1,5.91,2.5,5.91,2.5l.04-.08s-2.64-1.51-5.92-2.51c-1.93-.59-3.71-.9-5.3-.91-1.99-.03-3.67.41-5,1.3-2.29,1.52-4.34,2.61-6.26,3.33-5.36,2.02-9.56,1.08-11.82-2.66-.99-1.63-1.27-3.58-1.52-5.28-.4-2.68-.74-5-3.45-5.43-.05,0-.11,0-.16-.02-2.23-.28-6.62.21-14.83,4.18-2.01.97-3.38,1.72-4.57,2.5-4.81,3.15-7.21,5.71-8.51,7.1-.72.77-1.12,1.2-1.37,1.12-.27-.08-.45-.75-.78-2.08-.32-1.23-.79-3.09-1.66-5.64-1.26-3.71-2.74-6.68-4.4-8.8-1.57-2.01-3.28-3.25-5.08-3.69-.16-.04-.32-.07-.49-.1-2.4-.38-4.86.68-7.16,3.09-.35.37-.72.73-1.07,1.08l-.13.13c-3.2,3.19-6.23,4.58-9.26,4.25-3.84-.43-7.79-3.71-11.73-9.74-1.99-3.06-4.16-5.79-6.41-8.11-2.12-2.2-4.38-3.8-6.72-4.77-1.05-.45-2.1-.74-3.13-.91v.05Z"/>
          <path class="cls-9" d="m61.09,12.58c-.46-.08-.93-.12-1.39-.14-1.78-.07-3.45.28-4.98,1.04s-2.84,1.88-3.91,3.36c-3.26,4.49-6.35,6.84-9.17,6.98-2.19.11-4.25-1.12-6.11-3.65-1.21-1.64-2.32-3-3.37-4.15-2.29-2.47-4.54-3.91-7.08-4.52-2.29-.54-4.58-.35-7.01-.16-2.38.19-4.83.39-7.65,0l-.02.09c2.84.4,5.29.2,7.67,0,4.87-.39,9.06-.73,14.04,4.66,1.05,1.15,2.16,2.51,3.36,4.14,1.88,2.55,3.95,3.79,6.17,3.68,1.35-.07,2.77-.64,4.22-1.7,1.6-1.17,3.28-2.96,4.99-5.33,2.13-2.95,5.27-4.5,8.82-4.36,3.8.15,7.66,2.17,11.14,5.86,2.24,2.37,4.38,5.1,6.38,8.13,2.07,3.14,4.16,5.54,6.21,7.13,1.87,1.45,3.76,2.27,5.62,2.45,3.06.3,6.12-1.09,9.36-4.27.12-.12.24-.24.36-.35.28-.27.58-.56.85-.84,2.37-2.41,4.93-3.37,7.4-2.77,3.74.92,7.08,5.23,9.66,12.48.82,2.32,1.31,4.01,1.66,5.25.43,1.54.64,2.24.99,2.33.32.08.73-.34,1.53-1.19,1.29-1.37,3.7-3.93,8.43-7.01,1.47-.96,3.14-1.77,4.58-2.43,8.13-3.74,12.49-4.03,14.73-3.62,2.77.52,3.18,2.75,3.66,5.35.29,1.64.64,3.49,1.66,5.07,1.2,1.86,2.89,2.99,5.02,3.36,1.99.35,4.33.04,6.93-.92,1.86-.69,3.93-1.75,6.3-3.23,3.05-1.91,7.27-1.15,10.27-.19,3.25,1.05,5.85,2.58,5.85,2.58l.04-.08s-2.6-1.53-5.86-2.58c-1.92-.61-3.7-.95-5.28-.99-1.99-.05-3.69.35-5.04,1.2-2.37,1.47-4.42,2.53-6.29,3.22-5.36,1.99-9.58,1.13-11.88-2.42-1.01-1.55-1.33-3.32-1.65-5.03-.24-1.29-.46-2.51-.98-3.48-.58-1.07-1.45-1.69-2.73-1.93-1.41-.27-3.22-.17-5.38.3-2.67.56-5.83,1.69-9.38,3.32-1.45.66-3.12,1.47-4.59,2.43-4.74,3.08-7.15,5.64-8.45,7.02-.75.81-1.17,1.25-1.46,1.17-.32-.08-.53-.82-.95-2.28-.36-1.24-.84-2.93-1.67-5.25-1.32-3.72-2.85-6.68-4.55-8.81-1.61-2.02-3.35-3.27-5.16-3.71-1.25-.31-2.52-.22-3.79.26-1.25.47-2.48,1.32-3.68,2.53-.28.28-.57.57-.85.84-.12.12-.24.24-.36.35-3.22,3.16-6.26,4.55-9.31,4.25-3.88-.38-7.85-3.6-11.78-9.55-2-3.03-4.15-5.78-6.39-8.15-1.77-1.89-3.67-3.35-5.63-4.35-1.39-.7-2.78-1.17-4.16-1.39h.03Z"/>
          <path class="cls-10" d="m60.72,12.22c-.44-.07-.89-.12-1.33-.14-1.76-.07-3.44.27-4.99,1.03s-2.87,1.88-3.97,3.34c-3.29,4.41-6.4,6.74-9.26,6.91-2.18.13-4.23-.99-6.1-3.34-1.24-1.56-2.37-2.86-3.44-3.96-2.37-2.44-4.7-3.86-7.32-4.49-.33-.08-.66-.14-.99-.19-2.01-.32-4.03-.2-6.14-.06-2.28.15-4.63.3-7.27-.07l-.02.09c2.65.37,5.01.22,7.29.07,4.97-.31,9.26-.58,14.42,4.73,1.07,1.11,2.19,2.4,3.43,3.96,1.88,2.37,3.95,3.5,6.16,3.36,1.37-.09,2.8-.66,4.27-1.71,1.62-1.16,3.31-2.92,5.05-5.24,2.19-2.93,5.36-4.48,8.9-4.33,3.81.16,7.62,2.21,11.05,5.94,2.21,2.41,4.35,5.15,6.36,8.16,2.07,3.09,4.16,5.45,6.23,7.02,1.87,1.42,3.77,2.22,5.64,2.38,3.07.27,6.15-1.13,9.4-4.27.18-.17.35-.33.51-.49.23-.22.48-.45.71-.68,2.31-2.27,4.81-3.16,7.21-2.57,3.76.91,7.18,5.23,9.89,12.5.77,2.08,1.28,3.68,1.65,4.84.53,1.69.77,2.47,1.16,2.56.35.08.77-.37,1.61-1.26,1.29-1.38,3.7-3.93,8.36-6.94,1.46-.94,3.07-1.68,4.6-2.36,7.68-3.36,12.21-3.52,14.65-3.07,2.76.51,3.23,2.7,3.78,5.24.36,1.66.73,3.38,1.77,4.89,1.22,1.76,2.92,2.82,5.05,3.16h.02c2,.31,4.34,0,6.95-.97,1.82-.67,3.83-1.66,6.32-3.12,3.11-1.83,7.32-1.01,10.3,0,3.23,1.1,5.78,2.66,5.78,2.66l.04-.08s-2.56-1.56-5.8-2.66c-1.9-.64-3.67-1.01-5.26-1.08-1.98-.09-3.7.27-5.08,1.09-2.48,1.46-4.49,2.45-6.31,3.12-5.44,2-9.57,1.25-11.94-2.17-1.03-1.49-1.41-3.2-1.76-4.86-.27-1.27-.53-2.46-1.07-3.41-.6-1.06-1.48-1.67-2.77-1.9-2.45-.46-6.99-.3-14.69,3.07-1.54.67-3.16,1.43-4.61,2.36-4.66,3.02-7.08,5.58-8.38,6.95-.8.84-1.23,1.3-1.55,1.22-.36-.09-.61-.9-1.12-2.5-.37-1.16-.87-2.75-1.65-4.84-1.39-3.71-2.97-6.68-4.69-8.81-1.66-2.04-3.42-3.3-5.25-3.74-.17-.04-.34-.07-.51-.1-1.05-.17-2.13-.07-3.18.32-1.22.44-2.43,1.23-3.59,2.37-.24.23-.48.46-.71.68-.17.16-.34.33-.51.49-3.23,3.12-6.3,4.5-9.35,4.24-3.91-.34-7.9-3.49-11.83-9.36-2.01-3.01-4.15-5.76-6.36-8.17-1.75-1.9-3.63-3.39-5.57-4.4-1.38-.72-2.78-1.19-4.18-1.42h0Z"/>
          <path class="cls-4" d="m60.38,11.86c-.43-.06-.86-.11-1.29-.13-1.77-.07-3.45.26-5.01,1.01-1.55.74-2.9,1.86-4.02,3.32-3.33,4.33-6.48,6.64-9.36,6.85-2.17.16-4.22-.85-6.09-3.03-1.28-1.48-2.43-2.72-3.51-3.78-2.45-2.4-4.86-3.82-7.57-4.47-2.42-.58-4.78-.46-7.27-.35-2.18.1-4.43.21-6.89-.14l-.02.09c2.47.35,4.73.24,6.91.14,5.07-.23,9.45-.44,14.8,4.8,1.09,1.06,2.24,2.3,3.51,3.78,1.89,2.19,3.95,3.22,6.14,3.05,1.38-.11,2.84-.69,4.32-1.73,1.63-1.15,3.35-2.88,5.1-5.16,2.26-2.93,5.45-4.46,8.97-4.3,3.8.17,7.59,2.26,10.96,6.02,2.18,2.45,4.32,5.2,6.33,8.19,2.07,3.05,4.17,5.38,6.25,6.91,1.87,1.38,3.79,2.17,5.68,2.3,3.09.24,6.18-1.16,9.44-4.25.21-.2.42-.39.63-.58.2-.18.41-.37.6-.56,2.27-2.16,4.63-2.96,7.01-2.38,3.77.92,7.27,5.26,10.12,12.55.73,1.85,1.24,3.32,1.61,4.4.64,1.85.94,2.71,1.37,2.81.38.09.85-.4,1.71-1.31,1.39-1.46,3.72-3.92,8.29-6.86,1.45-.93,3.07-1.65,4.61-2.29,7.43-3.08,12.04-3.07,14.59-2.52,2.73.59,3.27,2.71,3.89,5.17.4,1.6.82,3.25,1.89,4.69,1.24,1.67,2.96,2.67,5.1,2.96,2,.27,4.35-.07,6.98-1.02,2.26-.81,4.48-1.98,6.35-3.02,3.18-1.75,7.36-.87,10.32.18,3.21,1.14,5.72,2.73,5.72,2.73l.04-.08s-2.51-1.59-5.72-2.73c-1.89-.67-3.65-1.07-5.24-1.16-1.99-.13-3.72.21-5.13.98-1.87,1.03-4.09,2.19-6.34,3.01-5.45,1.97-9.6,1.3-12.01-1.93-1.06-1.42-1.47-3.07-1.88-4.66-.31-1.22-.6-2.38-1.16-3.3-.63-1.04-1.52-1.65-2.79-1.92-.19-.04-.39-.08-.6-.11-2.66-.43-7.14-.22-14.02,2.63-1.54.64-3.18,1.37-4.62,2.3-4.59,2.95-6.92,5.41-8.31,6.88-.83.88-1.29,1.37-1.64,1.29-.4-.1-.68-.93-1.32-2.76-.38-1.08-.88-2.56-1.61-4.41-1.45-3.71-3.08-6.67-4.84-8.81-1.7-2.06-3.49-3.33-5.33-3.78-1.19-.29-2.4-.24-3.58.17-1.19.4-2.35,1.15-3.49,2.22-.2.19-.41.38-.6.56-.21.19-.42.39-.63.58-3.24,3.09-6.32,4.47-9.39,4.24-3.96-.3-7.96-3.39-11.88-9.18-2.01-2.98-4.15-5.74-6.34-8.2-1.73-1.93-3.57-3.44-5.5-4.46-1.39-.74-2.8-1.23-4.21-1.45v.02Z"/>
          <path class="cls-5" d="m60.09,11.48c-.41-.06-.83-.1-1.25-.13-1.77-.08-3.45.26-5.02,1-1.56.74-2.94,1.85-4.08,3.3-3.25,4.08-6.32,6.36-9.15,6.75-2.28.32-4.43-.59-6.4-2.69-1.31-1.4-2.48-2.57-3.58-3.59-3.24-3.01-6.19-4.23-9.07-4.69-2.07-.33-4.1-.27-6.18-.21s-4.22.12-6.5-.19l-.02.09c2.29.32,4.44.26,6.52.19,4.96-.15,9.64-.28,15.2,4.87,1.1,1.02,2.27,2.19,3.58,3.59,4.46,4.75,9.73,3.39,15.64-4.07,4.35-5.49,12.58-6.61,19.9,1.82,2.17,2.5,4.29,5.26,6.32,8.22,2.06,3.01,4.17,5.31,6.26,6.8,1.89,1.35,3.81,2.1,5.72,2.22,3.1.2,6.2-1.19,9.48-4.26.24-.23.49-.44.72-.65.17-.15.35-.31.52-.47,2.2-2.02,4.5-2.76,6.82-2.2,3.78.93,7.37,5.28,10.36,12.6.66,1.61,1.15,2.9,1.54,3.94.77,2.04,1.11,2.97,1.6,3.08.42.09.91-.43,1.8-1.37,1.4-1.46,3.72-3.91,8.22-6.79,1.44-.92,3.08-1.62,4.63-2.22,5.76-2.25,10.64-2.91,14.52-1.96,2.71.67,3.31,2.71,4,5.09.45,1.53.91,3.12,2.01,4.49,1.26,1.58,3,2.51,5.13,2.76,2,.24,4.36-.12,7-1.06,2.21-.79,4.45-1.92,6.37-2.91,3.23-1.66,7.4-.71,10.33.38,3.19,1.19,5.65,2.81,5.65,2.81l.04-.08s-2.47-1.62-5.66-2.81c-1.88-.7-3.63-1.12-5.22-1.25-1.99-.16-3.73.13-5.17.88-1.93.99-4.16,2.11-6.37,2.9-5.45,1.95-9.62,1.37-12.07-1.68-1.09-1.35-1.55-2.93-2-4.46-.35-1.17-.67-2.28-1.25-3.19-.66-1.02-1.54-1.63-2.8-1.94-1.6-.39-3.41-.5-5.38-.34-2.76.23-5.85,1.01-9.18,2.31-1.56.61-3.2,1.3-4.65,2.23-4.51,2.89-6.84,5.34-8.23,6.81-.87.92-1.35,1.43-1.73,1.35-.45-.1-.8-1.02-1.55-3.03-.39-1.04-.87-2.33-1.53-3.95-1.52-3.71-3.2-6.67-4.99-8.82-1.74-2.08-3.56-3.37-5.43-3.82-1.16-.29-2.33-.24-3.48.13-1.15.37-2.29,1.07-3.39,2.08-.17.16-.35.32-.52.47-.23.21-.47.43-.72.65-3.26,3.05-6.35,4.43-9.43,4.23-4-.26-8.02-3.29-11.93-9-2.04-2.96-4.15-5.72-6.32-8.22-1.7-1.95-3.52-3.47-5.44-4.51-1.39-.75-2.81-1.25-4.22-1.47h.04Z"/>
          <path class="cls-24" d="m59.72,11.15c-.4-.07-.8-.11-1.2-.12-1.75-.09-3.44.24-5.03.98-1.57.73-2.96,1.84-4.14,3.27-5.91,7.22-11.16,8.67-15.63,4.31-1.36-1.33-2.56-2.44-3.66-3.42-1.39-1.23-2.76-2.19-4.18-2.94-1.27-.67-2.56-1.16-3.94-1.49-2.56-.61-4.98-.58-7.53-.55-1.96.03-3.99.05-6.09-.24l-.02.09c2.11.3,4.15.27,6.11.25,5.05-.06,9.83-.13,15.6,4.96,1.11.97,2.29,2.08,3.65,3.41.94.92,1.94,1.59,2.95,2,1.15.46,2.35.59,3.58.39,1.37-.23,2.79-.86,4.25-1.89,1.59-1.12,3.26-2.74,4.96-4.82,4.47-5.46,12.73-6.55,19.89,1.93,2.14,2.53,4.26,5.31,6.29,8.24,2.06,2.97,4.18,5.23,6.28,6.69,1.9,1.32,3.82,2.05,5.75,2.15,1.68.09,3.4-.29,5.12-1.13,1.45-.71,2.88-1.74,4.4-3.12.27-.24.54-.48.8-.71.15-.12.3-.26.45-.39,2.13-1.89,4.36-2.57,6.61-2.02,3.8.92,7.46,5.3,10.61,12.64.58,1.37,1.05,2.52,1.42,3.45.9,2.26,1.32,3.29,1.86,3.39.45.1.96-.45,1.9-1.43,1.39-1.45,3.72-3.89,8.15-6.72,1.37-.88,2.84-1.49,4.65-2.15,5.57-2.04,10.44-2.52,14.45-1.41,2.68.74,3.37,2.81,4.11,4.99.5,1.48,1.01,3.01,2.14,4.31,1.29,1.49,3.03,2.35,5.17,2.57,2,.2,4.37-.18,7.02-1.11,2.17-.77,4.33-1.8,6.4-2.8,3.3-1.59,7.46-.57,10.36.57,3.16,1.24,5.58,2.88,5.58,2.88l.04-.08s-2.44-1.65-5.6-2.89c-1.86-.73-3.61-1.18-5.2-1.34-1.99-.2-3.75.06-5.22.76-2.07,1-4.22,2.04-6.39,2.8-5.46,1.92-9.65,1.43-12.13-1.44-1.11-1.29-1.62-2.81-2.12-4.27-.74-2.2-1.44-4.29-4.16-5.04-.55-.15-1.11-.28-1.69-.37-3.68-.58-7.98.01-12.8,1.78-1.8.66-3.29,1.29-4.66,2.16-4.44,2.82-6.76,5.27-8.16,6.73-.92.96-1.42,1.49-1.84,1.4-.5-.11-.91-1.12-1.81-3.35-.37-.92-.83-2.07-1.42-3.45-3.15-7.37-6.84-11.76-10.65-12.69-.17-.04-.36-.07-.53-.11-2.09-.34-4.15.38-6.14,2.14-.15.13-.3.26-.45.39-.26.23-.54.47-.8.72-7.51,6.9-14.53,5.4-21.46-4.58-2.03-2.94-4.15-5.71-6.29-8.25-1.66-1.97-3.48-3.51-5.37-4.56-1.39-.78-2.81-1.27-4.24-1.51v.03Z"/>
          <path class="cls-25" d="m59.37,10.75c-.39-.06-.77-.11-1.16-.12-1.75-.1-3.44.23-5.04.97-1.58.73-2.99,1.83-4.2,3.26-5.92,7.02-11.22,8.55-15.72,4.55-1.41-1.25-2.63-2.31-3.73-3.23-1.44-1.2-2.86-2.15-4.34-2.9-1.31-.67-2.65-1.16-4.06-1.5-.52-.12-1.03-.22-1.54-.3-2.09-.33-4.14-.34-6.12-.35-1.85-.01-3.76-.02-5.68-.28l-.02.09c1.94.27,3.85.28,5.7.29,4.93.02,10.04.04,16.03,5.05,1.1.91,2.32,1.97,3.73,3.23.96.86,1.97,1.47,3,1.83,1.16.4,2.38.48,3.61.25,1.36-.27,2.8-.91,4.26-1.93,1.59-1.11,3.25-2.69,4.95-4.7,4.59-5.43,12.89-6.48,19.87,2.03,2.11,2.57,4.21,5.35,6.27,8.27,2.06,2.93,4.18,5.14,6.3,6.58,1.9,1.28,3.84,1.98,5.78,2.06,1.68.08,3.42-.31,5.15-1.15,1.45-.71,2.89-1.71,4.41-3.08.29-.26.59-.51.88-.75.13-.11.26-.22.39-.33,2.06-1.76,4.21-2.38,6.4-1.85,3.79.93,7.55,5.33,10.86,12.71.51,1.13.92,2.08,1.28,2.92,1.08,2.49,1.56,3.63,2.17,3.74.48.09,1.02-.46,1.99-1.49,1.39-1.45,3.73-3.89,8.08-6.65,1.38-.86,2.86-1.46,4.66-2.08,5.45-1.88,10.16-2.16,14.38-.87,2.64.8,3.41,2.79,4.21,4.89.54,1.42,1.11,2.89,2.27,4.13,1.31,1.4,3.07,2.2,5.21,2.37,2.01.16,4.38-.23,7.05-1.16,1.92-.67,3.83-1.53,5.68-2.36.25-.12.5-.23.74-.34,3.37-1.5,7.5-.41,10.39.77,3.13,1.27,5.52,2.95,5.52,2.95l.04-.08s-2.39-1.68-5.53-2.96c-1.85-.75-3.59-1.23-5.18-1.41-2-.24-3.76-.02-5.25.66-.25.12-.5.22-.74.34-1.85.83-3.75,1.69-5.68,2.35-5.53,1.93-9.63,1.52-12.19-1.19-1.15-1.23-1.72-2.69-2.25-4.1-.81-2.12-1.58-4.12-4.26-4.93-1.74-.53-3.49-.79-5.37-.79-2.78,0-5.82.55-9.05,1.66-1.81.62-3.3,1.21-4.68,2.08-4.36,2.77-6.69,5.2-8.09,6.67-.96,1-1.48,1.55-1.93,1.46-.57-.1-1.05-1.23-2.11-3.69-.36-.84-.77-1.79-1.28-2.92-3.32-7.4-7.08-11.82-10.9-12.75-.18-.04-.37-.08-.54-.11-2.02-.32-4.01.33-5.92,1.97-.13.12-.26.22-.39.33-.28.24-.59.48-.88.75-3.65,3.3-7.17,4.67-10.62,4.13-3.72-.59-7.34-3.43-10.93-8.53-2.05-2.92-4.17-5.71-6.28-8.27-1.64-1.99-3.42-3.54-5.31-4.6-1.39-.79-2.82-1.3-4.26-1.53h0Z"/>
          <path class="cls-23" d="m59.05,10.39c-.37-.06-.74-.1-1.11-.12-1.75-.1-3.45.22-5.06.96-1.59.72-3.02,1.81-4.26,3.24-5.96,6.84-11.28,8.46-15.81,4.8-1.23-1-2.54-2.06-3.8-3.05-6.24-4.95-11.45-5.06-16.49-5.16-1.8-.03-3.5-.07-5.25-.31l-.02.09c1.76.24,3.46.28,5.27.31,5.03.1,10.24.21,16.46,5.15,1.26,1,2.57,2.06,3.8,3.05.97.79,2,1.34,3.05,1.65,1.17.34,2.4.38,3.65.11,1.37-.3,2.8-.96,4.27-1.98,1.59-1.1,3.25-2.64,4.94-4.58,4.7-5.39,13.02-6.39,19.85,2.14,2.07,2.59,4.17,5.38,6.24,8.29,2.06,2.89,4.18,5.07,6.31,6.48,1.9,1.25,3.86,1.93,5.81,1.99,1.7.05,3.44-.35,5.19-1.19,1.46-.71,2.9-1.7,4.42-3.05.32-.28.64-.54.95-.79.11-.08.21-.18.33-.26,1.98-1.63,4.06-2.2,6.18-1.68,3.78.93,7.63,5.35,11.11,12.78.41.88.77,1.66,1.09,2.35,1.3,2.84,1.84,4.01,2.5,4.13h0c.52.08,1.08-.5,2.09-1.55,1.39-1.45,3.72-3.87,8.01-6.58,1.46-.93,3.11-1.51,4.68-2.01,7.82-2.49,12.71-.85,14.31-.31,2.59.88,3.43,2.77,4.3,4.78.6,1.36,1.21,2.77,2.42,3.95,2.61,2.55,6.75,2.87,12.31.96,1.69-.58,3.38-1.29,5.01-1.98.47-.2.97-.4,1.44-.6,3.42-1.43,7.55-.27,10.41.95,3.1,1.32,5.45,3.02,5.45,3.02l.04-.08s-2.34-1.71-5.45-3.04c-1.82-.78-3.56-1.28-5.15-1.5-2-.27-3.78-.09-5.3.54-.47.2-.97.4-1.44.6-1.63.69-3.3,1.4-5,1.98-5.55,1.91-9.67,1.59-12.25-.94-1.19-1.17-1.8-2.57-2.39-3.93-.89-2.02-1.72-3.93-4.35-4.82-1.14-.38-2.94-.91-5.37-1.02-2.79-.13-5.81.32-8.98,1.33-1.57.5-3.22,1.09-4.7,2.02-4.29,2.71-6.62,5.14-8.02,6.59-1,1.03-1.54,1.61-2.03,1.53h0c-.64-.11-1.21-1.36-2.46-4.09-.31-.68-.67-1.47-1.09-2.35-1.75-3.72-3.58-6.7-5.47-8.86-1.88-2.15-3.8-3.48-5.7-3.95-.18-.04-.37-.08-.54-.11-1.95-.31-3.87.29-5.7,1.81-.11.08-.21.18-.33.26-.31.25-.63.51-.95.79-7.68,6.82-14.76,5.44-21.64-4.22-2.07-2.92-4.18-5.71-6.25-8.3-1.61-2.01-3.38-3.58-5.24-4.65-1.39-.81-2.82-1.33-4.28-1.56h0Z"/>
          <path class="cls-22" d="m58.7,10.03c-.35-.06-.71-.1-1.07-.12-1.73-.1-3.45.21-5.08.94-1.6.72-3.05,1.8-4.32,3.21-5.98,6.67-11.33,8.36-15.9,5.04-1.29-.94-2.55-1.88-3.87-2.87-2.9-2.18-5.85-3.62-9.02-4.39-2.79-.69-5.4-.78-7.92-.88-1.66-.07-3.23-.12-4.8-.34l-.02.09c1.58.22,3.15.29,4.81.34,5.14.19,10.44.4,16.92,5.25,1.33.99,2.59,1.93,3.88,2.87,1,.72,2.05,1.22,3.11,1.47,1.18.28,2.42.26,3.68-.04,1.37-.33,2.81-1.01,4.28-2.02,1.58-1.09,3.24-2.59,4.92-4.47,4.82-5.36,13.17-6.3,19.83,2.25,2.01,2.59,4.1,5.39,6.22,8.32,2.06,2.85,4.2,4.99,6.34,6.37,1.91,1.23,3.88,1.87,5.85,1.92,1.71.03,3.47-.37,5.22-1.22,1.46-.7,2.91-1.69,4.43-3.02.33-.3.68-.56,1.01-.82.09-.07.18-.14.27-.21,1.91-1.51,3.93-2.03,5.97-1.53,3.78.92,7.7,5.37,11.36,12.85.31.63.58,1.21.84,1.73,1.52,3.15,2.15,4.45,2.89,4.57h0c.56.09,1.15-.52,2.21-1.62,1.39-1.44,3.72-3.86,7.93-6.5,1.47-.93,3.12-1.49,4.69-1.94,7.54-2.22,12.41-.43,14.24.24,2.55.94,3.44,2.75,4.38,4.66.64,1.32,1.32,2.68,2.56,3.79,2.64,2.37,6.8,2.61,12.38.72,1.48-.5,2.95-1.09,4.37-1.65.69-.28,1.41-.56,2.1-.82,3.49-1.34,7.61-.11,10.44,1.15,3.07,1.37,5.37,3.1,5.37,3.1l.05-.08s-2.3-1.73-5.38-3.1c-1.81-.81-3.53-1.34-5.13-1.59-2-.31-3.8-.16-5.35.43-.69.27-1.4.55-2.1.82-1.43.57-2.9,1.15-4.37,1.65-5.55,1.88-9.69,1.65-12.31-.7-1.23-1.12-1.9-2.46-2.54-3.77-.95-1.93-1.85-3.76-4.43-4.7-1.28-.47-3.06-1.04-5.37-1.25-2.8-.25-5.8.09-8.92,1.01-1.57.47-3.23,1.02-4.71,1.95-4.22,2.64-6.55,5.06-7.95,6.52-1.05,1.09-1.62,1.68-2.15,1.6-.7-.12-1.37-1.49-2.85-4.53-.25-.51-.53-1.1-.84-1.73-1.83-3.72-3.72-6.71-5.63-8.88-1.92-2.19-3.87-3.53-5.78-4.01-2.06-.51-4.09.01-6.03,1.54-.09.07-.18.14-.27.21-.33.26-.67.54-1.01.83-7.76,6.78-14.87,5.46-21.73-4.04-2.12-2.93-4.22-5.74-6.23-8.33-1.59-2.04-3.32-3.62-5.18-4.7-1.4-.82-2.84-1.35-4.3-1.58h-.02Z"/>
          <path class="cls-12" d="m58.4,9.68c-.34-.05-.69-.09-1.03-.11-1.73-.1-3.45.21-5.09.93-1.6.71-3.08,1.78-4.39,3.19-6.02,6.49-11.4,8.27-15.99,5.28-1.4-.92-2.69-1.79-3.95-2.69-6.77-4.81-12.43-5.12-17.42-5.39-1.51-.08-2.93-.15-4.33-.35l-.02.09c1.4.19,2.84.27,4.35.35,4.99.27,10.64.58,17.39,5.37,1.26.89,2.55,1.77,3.95,2.69,1.01.66,2.08,1.1,3.16,1.3,1.19.21,2.44.16,3.71-.18,1.37-.36,2.81-1.05,4.29-2.06,1.58-1.08,3.23-2.55,4.91-4.36,4.78-5.16,13.02-6.61,19.82,2.36,1.92,2.52,3.94,5.25,6.2,8.35,2.06,2.81,4.2,4.92,6.35,6.26,1.92,1.2,3.9,1.82,5.89,1.84,1.72.02,3.48-.4,5.25-1.25,1.46-.7,2.91-1.68,4.43-2.99.36-.31.73-.59,1.08-.85.07-.06.14-.1.21-.16,2.75-2.08,5.66-2.08,8.66,0,2.88,2,5.81,5.89,8.71,11.56.19.36.36.71.53,1.04,1.78,3.48,2.51,4.94,3.33,5.07h0c.6.09,1.21-.54,2.31-1.68,1.48-1.53,3.72-3.85,7.86-6.44,1.49-.93,3.14-1.45,4.71-1.87,7.27-1.95,12.11-.04,14.18.79,2.5.99,3.45,2.71,4.46,4.53.7,1.26,1.42,2.57,2.73,3.64,1.37,1.12,3.16,1.72,5.31,1.76,2.01.05,4.41-.39,7.12-1.3,1.27-.42,2.53-.9,3.76-1.36.95-.35,1.84-.69,2.74-1.01,3.55-1.25,7.65.04,10.46,1.35,3.05,1.41,5.3,3.16,5.3,3.16l.05-.08s-2.26-1.76-5.32-3.18c-1.79-.84-3.51-1.4-5.11-1.67-2-.34-3.82-.23-5.4.32-.9.32-1.79.66-2.74,1.01-1.22.46-2.49.93-3.75,1.36-5.57,1.87-9.73,1.72-12.38-.45-1.29-1.06-2.01-2.35-2.71-3.62-.49-.88-.99-1.79-1.67-2.57-.76-.89-1.69-1.53-2.82-1.99-1.49-.59-3.18-1.19-5.37-1.48-2.79-.38-5.77-.15-8.84.68-1.56.42-3.23.94-4.73,1.88-4.14,2.58-6.38,4.9-7.87,6.44-1.05,1.09-1.69,1.75-2.26,1.66-.79-.11-1.53-1.55-3.3-5.03-.17-.33-.34-.67-.53-1.04-2.91-5.69-5.84-9.59-8.74-11.59-1.18-.81-2.34-1.31-3.48-1.49-1.8-.28-3.57.21-5.26,1.5-.07.06-.14.1-.21.16-.35.27-.72.55-1.08.86-3.81,3.27-7.52,4.62-11.12,4.05-3.71-.59-7.29-3.22-10.71-7.9-2.26-3.09-4.29-5.83-6.2-8.35-2.76-3.63-5.98-5.81-9.41-6.35h0Z"/>
          <path class="cls-18" d="m58.05,9.33c-.33-.05-.65-.09-.99-.11-3.43-.22-6.82,1.22-9.55,4.08-6.05,6.33-11.46,8.19-16.07,5.52-1.45-.84-2.77-1.66-4.02-2.5-3.15-2.12-6.33-3.56-9.74-4.41-2.98-.74-5.75-.94-8.19-1.11-1.34-.09-2.62-.19-3.83-.35l-.02.09c1.22.16,2.49.26,3.84.35,5.08.36,10.85.77,17.9,5.51,1.25.84,2.57,1.66,4.02,2.5,2.14,1.25,4.49,1.52,6.96.81,1.38-.39,2.83-1.1,4.31-2.1,1.58-1.06,3.22-2.49,4.9-4.25,4.89-5.11,13.17-6.52,19.79,2.46.74.99,1.46,1.98,2.18,2.96,1.31,1.79,2.67,3.63,4,5.42,2.06,2.78,4.2,4.85,6.37,6.15,1.93,1.16,3.92,1.75,5.92,1.76,1.72,0,3.5-.43,5.28-1.28,1.47-.71,2.91-1.67,4.44-2.96.39-.33.78-.6,1.15-.88l.15-.11c2.71-1.98,5.62-1.89,8.63.27,2.83,2.03,5.79,5.9,8.78,11.52l.16.3c2.07,3.87,2.93,5.49,3.84,5.64h.02c.65.09,1.32-.6,2.43-1.75,1.49-1.53,3.72-3.84,7.78-6.36,1.51-.94,3.16-1.41,4.72-1.8,7-1.71,11.81.36,14.11,1.35,2.44,1.05,3.49,2.74,4.51,4.38.76,1.23,1.55,2.5,2.91,3.51,1.39,1.03,3.19,1.56,5.35,1.57,2.02,0,4.42-.45,7.15-1.35,1.06-.35,2.11-.73,3.13-1.09,1.17-.42,2.28-.82,3.39-1.17,3.62-1.16,7.71.2,10.49,1.55,3.02,1.46,5.23,3.23,5.23,3.23l.05-.08s-2.22-1.78-5.25-3.24c-1.78-.85-3.5-1.45-5.1-1.75-2-.38-3.83-.32-5.44.2-1.1.35-2.22.75-3.39,1.17-1.02.37-2.08.75-3.13,1.09-5.66,1.87-9.73,1.8-12.44-.21-1.35-1.01-2.13-2.26-2.89-3.49-1.03-1.65-2.08-3.35-4.54-4.41-1.19-.51-2.99-1.28-5.37-1.7-.11-.03-.23-.03-.34-.06-2.7-.43-5.54-.29-8.43.42-1.57.38-3.22.86-4.74,1.81-4.07,2.53-6.31,4.85-7.8,6.38-1.09,1.13-1.75,1.81-2.37,1.73-.87-.12-1.73-1.72-3.81-5.6l-.16-.3c-3-5.62-5.96-9.5-8.81-11.54-1.48-1.07-2.96-1.65-4.39-1.7-1.47-.07-2.92.41-4.31,1.43l-.15.11c-.37.27-.77.55-1.15.88-7.83,6.62-15.21,5.38-21.91-3.67-1.32-1.79-2.68-3.64-4-5.42-.73-.98-1.46-1.97-2.18-2.96-2.71-3.68-5.93-5.89-9.36-6.43h-.01Z"/>
          <path class="cls-20" d="m57.74,8.99c-.31-.05-.63-.09-.94-.11-3.41-.24-6.83,1.2-9.63,4.03-6.1,6.19-11.55,8.12-16.17,5.77-1.49-.76-2.83-1.51-4.09-2.32-5.05-3.21-9.51-4.47-13.4-5.09-1.81-.29-3.51-.44-5.07-.58-1.16-.1-2.26-.2-3.28-.34l-.02.09c1.03.14,2.13.24,3.29.34,4.93.44,11.05.97,18.45,5.66,1.26.8,2.61,1.56,4.1,2.32,4.65,2.37,10.12.42,16.24-5.78,5.01-5.07,13.32-6.42,19.78,2.57,2.27,3.15,4.28,5.9,6.16,8.4,2.05,2.74,4.2,4.77,6.38,6.05,1.93,1.13,3.93,1.7,5.96,1.69,1.73-.02,3.52-.45,5.31-1.31,1.47-.7,2.92-1.65,4.45-2.92.41-.34.82-.63,1.22-.91l.09-.06c2.69-1.87,5.59-1.69,8.6.54,2.77,2.06,5.76,5.92,8.86,11.48,2.24,4.01,3.19,5.65,4.15,5.77.7.08,1.4-.63,2.55-1.82,1.48-1.52,3.71-3.82,7.7-6.29,1.53-.95,3.18-1.39,4.74-1.73,6.75-1.47,11.4.67,13.9,1.83l.14.07c2.37,1.09,3.48,2.68,4.54,4.23.82,1.19,1.69,2.42,3.11,3.38,2.74,1.84,6.85,1.84,12.55-.02.83-.27,1.67-.55,2.47-.83,1.42-.49,2.75-.95,4.08-1.33,3.69-1.07,7.75.35,10.52,1.74,3,1.5,5.16,3.3,5.16,3.3l.04-.07s-2.18-1.8-5.18-3.31c-1.76-.88-3.48-1.5-5.08-1.84-2-.41-3.85-.38-5.49.09-1.33.38-2.67.85-4.08,1.33-.81.28-1.64.56-2.47.83-5.68,1.86-9.77,1.86-12.5.04-1.42-.96-2.26-2.18-3.09-3.37-1.08-1.55-2.19-3.15-4.57-4.25l-.14-.07c-1.43-.66-3.56-1.65-6.39-2.1-2.13-.34-4.64-.38-7.55.26-1.56.34-3.22.78-4.76,1.74-4,2.47-6.24,4.78-7.72,6.3-1.14,1.17-1.83,1.88-2.5,1.8-.94-.12-1.88-1.74-4.11-5.74-1.53-2.72-3.02-5.05-4.46-6.93-1.51-1.97-2.99-3.5-4.42-4.56-1.49-1.1-2.96-1.72-4.38-1.83-1.47-.11-2.92.32-4.3,1.29l-.09.06c-.39.28-.82.57-1.22.91-7.92,6.57-15.33,5.39-22.01-3.5-1.88-2.5-3.89-5.25-6.16-8.4-2.67-3.73-5.87-5.96-9.3-6.5v.02Z"/>
          <path class="cls-21" d="m57.39,8.61c-.3-.04-.59-.07-.9-.1-3.39-.25-6.83,1.17-9.7,3.99-6.15,6.04-11.62,8.06-16.25,6.02-1.54-.68-2.9-1.37-4.17-2.14-3.46-2.07-6.94-3.54-10.64-4.48-3.18-.8-5.98-1.1-8.44-1.35-.95-.09-1.85-.19-2.68-.3l-.02.09c.84.11,1.74.21,2.69.31,4.76.5,11.27,1.17,19.05,5.82,1.27.76,2.64,1.46,4.17,2.14,4.65,2.06,10.14.03,16.33-6.03,5.29-5.19,13.44-6.36,19.76,2.67,2.15,3.09,4.16,5.84,6.13,8.43,2.05,2.69,4.2,4.69,6.4,5.93,1.94,1.11,3.95,1.65,5.99,1.61,1.75-.03,3.55-.48,5.35-1.33,1.47-.7,2.92-1.64,4.45-2.89.44-.35.88-.64,1.3-.93h.02c2.7-1.82,5.5-1.55,8.58.8,2.74,2.09,5.66,5.83,8.92,11.43,2.27,3.89,3.29,5.48,4.29,5.6.75.09,1.47-.65,2.67-1.88,1.48-1.52,3.71-3.81,7.63-6.22,1.56-.96,3.27-1.38,4.75-1.67,6.51-1.25,11.17,1.07,13.67,2.3.11.05.2.1.3.15,2.28,1.13,3.42,2.62,4.53,4.05.95,1.22,1.83,2.38,3.35,3.28,1.45.87,3.22,1.26,5.41,1.18,2.05-.07,4.4-.54,7.2-1.44.58-.19,1.17-.38,1.75-.57,1.68-.56,3.27-1.08,4.83-1.48,3.75-.98,7.81.52,10.54,1.95,2.97,1.55,5.1,3.36,5.1,3.36l.04-.07s-2.14-1.83-5.11-3.37c-1.75-.92-3.46-1.56-5.06-1.92-2.01-.45-3.87-.46-5.54-.03-1.56.41-3.15.93-4.83,1.48-.57.19-1.15.38-1.75.57-5.7,1.84-9.81,1.93-12.56.28-1.5-.9-2.38-2.05-3.32-3.26-1.11-1.44-2.26-2.93-4.56-4.07-.1-.05-.2-.1-.3-.15-1.54-.77-3.9-1.94-7.01-2.43-1.94-.31-4.18-.35-6.69.13-1.49.28-3.21.7-4.78,1.67-3.92,2.41-6.16,4.71-7.64,6.23-1.18,1.21-1.89,1.95-2.61,1.86-.97-.12-1.98-1.7-4.24-5.57-3.27-5.61-6.19-9.36-8.94-11.45-1.49-1.14-2.96-1.8-4.36-1.95-1.47-.16-2.9.23-4.28,1.15h-.02c-.42.3-.86.6-1.3.95-4.04,3.3-7.93,4.64-11.66,4.05-3.65-.59-7.15-3.04-10.44-7.37-1.97-2.59-3.98-5.35-6.13-8.43-2.63-3.77-5.82-6.03-9.25-6.57h-.02Z"/>
          <path class="cls-13" d="m57.1,8.26c-.28-.05-.57-.08-.86-.1-3.36-.25-6.84,1.14-9.78,3.94-6.22,5.9-11.72,8-16.34,6.26-1.57-.59-2.95-1.22-4.24-1.95-3.66-2.06-7.32-3.54-11.21-4.55-3.32-.85-6.23-1.19-8.57-1.47-.71-.08-1.38-.16-1.99-.24l-.02.09c.62.08,1.29.16,2,.25,4.85.57,11.5,1.36,19.75,6.01,1.29.72,2.68,1.36,4.25,1.95,4.65,1.75,10.17-.36,16.41-6.27,5.4-5.11,13.59-6.24,19.73,2.78,2.1,3.1,4.1,5.86,6.11,8.46,2.05,2.65,4.21,4.61,6.42,5.83,1.95,1.07,3.98,1.59,6.03,1.54,1.74-.05,3.55-.5,5.37-1.37,1.46-.69,2.92-1.63,4.46-2.85.46-.37.94-.67,1.33-.92,2.66-1.7,5.46-1.35,8.54,1.08,2.67,2.1,5.61,5.82,9,11.39,1.1,1.81,1.97,3.19,2.68,4.08.69.88,1.23,1.29,1.75,1.34.8.08,1.56-.7,2.8-1.96,1.47-1.52,3.7-3.8,7.55-6.15,1.58-.97,3.3-1.35,4.77-1.6,6.3-1.05,10.96,1.44,13.45,2.76.16.09.31.16.45.24,2.18,1.14,3.36,2.52,4.5,3.85,1.03,1.21,2,2.34,3.62,3.2,1.46.78,3.24,1.09,5.45.98,2.05-.12,4.41-.6,7.23-1.5.31-.1.61-.2.92-.3,1.98-.63,3.86-1.23,5.68-1.65,3.82-.88,7.86.68,10.57,2.15,2.94,1.59,5.03,3.43,5.03,3.43l.04-.07s-2.09-1.84-5.04-3.44c-1.73-.94-3.42-1.62-5.03-2.01-2.01-.49-3.89-.54-5.59-.15-1.83.42-3.7,1.02-5.69,1.65-.31.1-.61.2-.92.3-5.73,1.82-9.86,1.99-12.62.52-1.6-.86-2.57-1.98-3.6-3.18-1.14-1.33-2.33-2.72-4.51-3.86-.15-.08-.29-.16-.45-.24-1.29-.69-3.06-1.63-5.33-2.29-.74-.22-1.5-.39-2.26-.51-1.95-.32-3.93-.3-5.9.02-1.47.24-3.2.62-4.79,1.6-3.87,2.36-6.09,4.65-7.57,6.17-1.23,1.26-1.96,2.02-2.74,1.94-1-.1-2.01-1.5-4.38-5.39-1.65-2.71-3.14-4.91-4.57-6.76-1.57-2.01-3.02-3.54-4.44-4.66-1.5-1.19-2.96-1.88-4.34-2.09-1.46-.21-2.91.12-4.28.99-.39.25-.87.55-1.34.93-8.11,6.48-15.58,5.43-22.19-3.14-2-2.6-4-5.37-6.11-8.45-1.45-2.13-3.08-3.79-4.85-4.93-1.39-.9-2.85-1.46-4.35-1.7h.02Z"/>
          <path class="cls-19" d="m56.8,7.9c-.27-.05-.55-.08-.82-.1-1.7-.13-3.44.16-5.15.85-1.65.66-3.24,1.69-4.71,3.04-6.28,5.77-11.81,7.95-16.43,6.5-1.6-.5-3.01-1.08-4.31-1.77-3.92-2.07-7.82-3.59-11.94-4.66-3.47-.9-6.35-1.28-8.67-1.58-.42-.05-.8-.11-1.17-.15l-.02.09c.36.05.75.09,1.17.15,4.67.61,11.72,1.53,20.58,6.23,1.3.69,2.71,1.28,4.32,1.78,2.22.7,4.69.55,7.32-.43,2.83-1.06,5.92-3.11,9.17-6.09,5.11-4.68,13.34-6.73,19.72,2.89,2.04,3.07,4.08,5.93,6.08,8.48,2.04,2.62,4.21,4.54,6.43,5.72,1.95,1.04,4,1.53,6.07,1.46,1.76-.07,3.58-.53,5.41-1.39,1.47-.69,2.93-1.62,4.47-2.82.45-.35.9-.64,1.34-.9,2.63-1.6,5.42-1.16,8.51,1.35,2.6,2.12,5.48,5.73,9.06,11.36,2.26,3.56,3.46,5.16,4.55,5.26.86.08,1.63-.71,2.92-2.04,1.47-1.51,3.7-3.78,7.48-6.08,1.61-.97,3.32-1.31,4.78-1.52,6.11-.85,10.76,1.8,13.25,3.23.2.11.39.23.57.32,2.05,1.14,3.25,2.41,4.4,3.63,1.13,1.19,2.21,2.33,3.95,3.14,1.47.69,3.26.94,5.48.78,2.05-.15,4.42-.66,7.26-1.55,2.21-.69,4.49-1.41,6.62-1.83,3.88-.78,7.9.84,10.6,2.35,2.92,1.64,4.96,3.49,4.96,3.49l.04-.07s-2.05-1.87-4.97-3.51c-1.72-.96-3.4-1.67-5.01-2.08-2.01-.53-3.9-.62-5.63-.27-2.13.43-4.42,1.15-6.63,1.84-5.85,1.84-9.88,2.08-12.69.77-1.73-.81-2.8-1.94-3.93-3.13-1.16-1.23-2.36-2.49-4.42-3.64-.18-.1-.37-.2-.57-.32-1.3-.74-3.08-1.76-5.32-2.48-2.64-.86-5.33-1.11-7.98-.74-1.47.21-3.19.54-4.81,1.53-3.79,2.31-6.02,4.59-7.49,6.09-1.27,1.3-2.04,2.09-2.86,2.01-1.08-.1-2.26-1.69-4.51-5.23-3.58-5.64-6.47-9.26-9.08-11.38-3.11-2.53-5.92-2.97-8.59-1.36-.43.26-.89.55-1.35.91-8.2,6.44-15.7,5.44-22.28-2.96-1.99-2.56-4.04-5.41-6.08-8.48-1.43-2.15-3.04-3.83-4.78-4.98-1.38-.9-2.84-1.48-4.36-1.72h.04Z"/>
          <path class="cls-15" d="m56.46,7.54c-.26-.04-.53-.07-.79-.09-1.69-.14-3.43.14-5.16.83-1.66.65-3.26,1.67-4.77,3.01-6.37,5.64-11.93,7.91-16.52,6.75-1.63-.41-3.06-.93-4.38-1.58-8.06-4.01-14.72-5.45-19.14-6.15-.95-.15-1.81-.27-2.54-.36l-.09-.02-.02.08.09.02c4.16.57,11.88,1.64,21.66,6.51,1.32.66,2.76,1.18,4.39,1.6,2.23.57,4.73.32,7.41-.74,2.83-1.12,5.91-3.15,9.16-6.02,5.21-4.62,13.5-6.6,19.69,2.99,2.01,3.12,4.05,5.98,6.07,8.52,2.04,2.58,4.22,4.47,6.45,5.62,1.96,1.01,4.01,1.47,6.1,1.38,1.77-.08,3.59-.56,5.44-1.42,1.46-.69,2.92-1.6,4.48-2.8.48-.36.94-.65,1.35-.88,2.61-1.51,5.38-.97,8.49,1.62,3.23,2.7,6.58,7.47,9.13,11.32,1.27,1.93,2.12,3.08,2.8,3.84.74.82,1.32,1.2,1.88,1.25.91.07,1.72-.76,3.05-2.11,1.55-1.59,3.69-3.76,7.4-6.01,1.64-.99,3.35-1.29,4.8-1.45,5.93-.66,10.4,2.06,13.07,3.68.25.15.48.29.7.42,1.89,1.12,3.13,2.31,4.23,3.37,1.31,1.26,2.44,2.35,4.35,3.12,1.49.6,3.3.79,5.51.59,2.03-.18,4.41-.71,7.28-1.6,2.05-.63,4.43-1.35,6.64-1.73,3.96-.69,7.97,1,10.63,2.55,2.89,1.68,4.89,3.56,4.89,3.56l.04-.07s-1.99-1.89-4.89-3.56c-1.7-.99-3.38-1.72-4.99-2.17-2.01-.56-3.92-.69-5.68-.39-2.21.39-4.59,1.1-6.65,1.73-5.89,1.82-9.95,2.14-12.75,1.01-1.9-.77-3.02-1.85-4.33-3.11-1.1-1.05-2.35-2.25-4.24-3.37-.21-.12-.45-.27-.7-.42-1.31-.8-3.09-1.88-5.3-2.69-1.21-.44-2.43-.76-3.62-.93-1.39-.21-2.8-.23-4.19-.07-1.46.17-3.17.47-4.82,1.47-3.72,2.25-5.86,4.42-7.42,6.02-1.33,1.35-2.12,2.16-3,2.09-1.02-.08-2.15-1.31-4.63-5.06-1.81-2.73-3.3-4.82-4.69-6.57-1.62-2.05-3.08-3.61-4.46-4.76-1.53-1.27-2.94-2.04-4.31-2.33-1.48-.32-2.87-.09-4.25.71-.4.24-.88.52-1.35.89-4.3,3.31-8.38,4.66-12.24,4.04-3.59-.57-6.98-2.84-10.14-6.81-2.02-2.54-4.05-5.4-6.06-8.51-1.4-2.17-2.99-3.86-4.72-5.02-1.37-.92-2.84-1.51-4.36-1.75l.02-.02Z"/>
          <path class="cls-16" d="m56.12,7.21c-.25-.04-.5-.07-.75-.09-1.69-.14-3.43.13-5.17.82-1.66.64-3.29,1.65-4.84,2.98-6.3,5.4-11.77,7.77-16.27,7.05-.11-.02-.22-.03-.33-.06-1.66-.33-3.12-.79-4.45-1.41-8.48-3.96-15.71-5.71-20.59-6.49-.4-.07-.8-.12-1.17-.17l-.02.09c4.85.67,12.57,2.38,21.76,6.66,1.33.62,2.79,1.09,4.46,1.41,4.58.89,10.18-1.46,16.66-7,3.07-2.63,6.91-4.32,10.74-3.71,3.13.5,6.25,2.52,8.94,6.81,1.98,3.15,4.01,6.03,6.04,8.54,2.04,2.53,4.22,4.38,6.47,5.5,1.97.98,4.03,1.42,6.14,1.31,3.17-.16,6.43-1.55,9.95-4.21.46-.35.93-.61,1.36-.85,2.6-1.44,5.29-.83,8.45,1.88,3.02,2.6,6.21,6.96,9.2,11.29,2.32,3.35,3.51,4.62,4.53,4.88,1.09.26,1.98-.64,3.46-2.15,1.55-1.58,3.68-3.75,7.32-5.93,1.67-1,3.45-1.27,4.81-1.39,5.76-.49,10.23,2.41,12.89,4.14.29.19.56.36.81.52,1.7,1.06,2.9,2.12,3.96,3.06,1.47,1.31,2.75,2.43,4.85,3.15,1.5.51,3.31.64,5.55.4,2.02-.22,4.41-.76,7.31-1.65,2.02-.61,4.39-1.28,6.67-1.62,4.03-.59,8.02,1.18,10.66,2.76,2.86,1.71,4.82,3.62,4.82,3.62l.04-.07s-1.95-1.9-4.82-3.63c-1.69-1.01-3.36-1.77-4.97-2.25-2.02-.61-3.95-.78-5.73-.52-2.28.33-4.66,1.01-6.68,1.63-6.02,1.84-9.97,2.23-12.81,1.26-2.09-.71-3.36-1.84-4.84-3.14-1.07-.94-2.27-2-3.97-3.06-.25-.15-.52-.33-.81-.52-1.31-.85-3.09-2.01-5.28-2.89-1.19-.48-2.38-.84-3.56-1.05-1.36-.25-2.74-.32-4.09-.2-1.37.12-3.16.39-4.84,1.4-3.65,2.19-5.78,4.36-7.34,5.95-1.46,1.49-2.34,2.39-3.39,2.13-1.02-.25-2.19-1.52-4.49-4.85-2.99-4.33-6.18-8.7-9.21-11.3-1.53-1.32-2.94-2.12-4.3-2.47-1.48-.37-2.86-.18-4.23.57-.43.24-.89.5-1.37.86-8.39,6.35-15.95,5.48-22.47-2.59-2.02-2.51-4.05-5.38-6.04-8.53-1.38-2.19-2.94-3.89-4.66-5.05-1.37-.94-2.83-1.52-4.36-1.77h0Z"/>
          <path class="cls-14" d="m55.78,6.88c-.24-.04-.48-.07-.72-.08-1.68-.14-3.43.13-5.19.81-1.67.64-3.32,1.62-4.91,2.94-6.58,5.42-12.2,7.86-16.7,7.23-1.7-.24-3.18-.64-4.53-1.23-4.53-1.97-9.05-3.63-13.45-4.89-4.48-1.3-7.31-1.75-8.31-1.9l-.02.09c4.18.58,12.39,2.71,21.76,6.79,1.35.59,2.83.99,4.53,1.23,4.52.63,10.15-1.81,16.75-7.25,5.69-4.69,13.84-6.31,19.66,3.2,1.95,3.2,3.98,6.08,6.02,8.57,2.04,2.5,4.22,4.31,6.48,5.4,1.97.95,4.05,1.37,6.17,1.23,3.18-.2,6.44-1.57,10-4.21.48-.36.96-.62,1.37-.83,2.57-1.33,5.25-.66,8.43,2.15,2.92,2.57,6.05,6.79,9.27,11.25,2.34,3.24,3.61,4.52,4.69,4.74,1.13.23,2.04-.7,3.55-2.24,1.55-1.57,3.67-3.73,7.25-5.86,1.33-.79,2.82-1.2,4.83-1.32,5.6-.32,10.05,2.75,12.71,4.59.33.23.64.44.91.62,1.45.96,2.57,1.87,3.55,2.68,1.75,1.44,3.14,2.58,5.5,3.25,1.5.43,3.33.49,5.57.2,2-.26,4.4-.82,7.34-1.7,2.69-.81,4.83-1.29,6.69-1.51,4.08-.48,8.07,1.36,10.68,2.97,2.84,1.75,4.75,3.67,4.75,3.67l.05-.07s-1.91-1.92-4.76-3.68c-1.66-1.03-3.33-1.82-4.94-2.33-2.02-.64-3.95-.86-5.77-.65-1.86.22-4,.7-6.7,1.51-6.08,1.83-10.06,2.3-12.88,1.5-2.35-.66-3.73-1.8-5.48-3.23-.98-.81-2.1-1.73-3.55-2.68-.28-.18-.58-.39-.91-.62-2.15-1.48-5.47-3.77-9.62-4.43-1-.16-2.04-.23-3.13-.16-2.02.11-3.52.52-4.86,1.32-3.58,2.14-5.71,4.29-7.26,5.87-2.96,3.01-3.66,3.72-8.14-2.49-3.22-4.46-6.36-8.68-9.28-11.26-1.53-1.36-2.94-2.21-4.28-2.59-.26-.08-.5-.13-.74-.17-1.19-.2-2.34,0-3.47.59-.4.21-.89.48-1.38.84-4.47,3.32-8.7,4.66-12.65,4.04-3.53-.56-6.85-2.71-9.91-6.45-2.04-2.49-4.05-5.37-6.01-8.56-1.35-2.21-2.9-3.92-4.59-5.09-1.37-.95-2.82-1.54-4.36-1.79h-.03Z"/>
          <path class="cls-17" d="m55.5,6.52c-.23-.03-.46-.07-.69-.09-1.67-.15-3.42.12-5.19.79-1.67.63-3.34,1.61-4.98,2.91-6.72,5.34-12.37,7.85-16.79,7.48-1.73-.15-3.23-.49-4.6-1.04C12.55,12.21,4.36,10.03,1.48,9.64l-.02.09c2.88.41,11.06,2.57,21.76,6.93,1.37.55,2.88.9,4.61,1.05,2.26.19,4.85-.37,7.7-1.65,2.75-1.25,5.82-3.21,9.13-5.84,7.5-5.96,14.85-4.72,19.64,3.32,1.93,3.24,3.95,6.13,5.99,8.59,2.04,2.46,4.24,4.24,6.5,5.29,1.98.93,4.07,1.31,6.21,1.16,3.17-.23,6.45-1.61,10.03-4.21.51-.36,1-.62,1.38-.81,2.51-1.22,5.13-.49,8.26,2.29,2.85,2.53,5.76,6.41,9.15,10.9l.33.44c2.34,3.11,3.7,4.39,4.84,4.58h.02c1.17.18,2.16-.82,3.65-2.33,1.55-1.56,3.66-3.71,7.17-5.79,1.35-.8,2.85-1.19,4.84-1.24,5.45-.16,9.89,3.09,12.54,5.03.37.27.71.52,1.01.73,1.15.79,2.09,1.53,2.93,2.19,2.12,1.65,3.66,2.85,6.35,3.45,2.84.63,6.72.11,12.97-1.75,2.6-.77,4.8-1.24,6.72-1.41,4.15-.37,8.11,1.52,10.7,3.18,2.81,1.8,4.67,3.73,4.67,3.73l.05-.07s-1.87-1.94-4.69-3.74c-1.65-1.06-3.31-1.87-4.92-2.42-2.01-.68-3.97-.93-5.82-.77-1.93.17-4.13.63-6.73,1.41-6.24,1.86-10.12,2.38-12.94,1.75-2.68-.61-4.21-1.8-6.32-3.45-.84-.66-1.8-1.4-2.94-2.2-.3-.21-.64-.46-1.01-.73-2.24-1.63-5.72-4.19-10.03-4.87-.83-.13-1.68-.19-2.56-.17-2.01.06-3.51.44-4.87,1.25-3.51,2.08-5.63,4.23-7.18,5.8-3,3.04-3.81,3.86-8.41-2.25l-.33-.44c-3.38-4.49-6.31-8.37-9.15-10.91-1.83-1.63-3.5-2.56-5.06-2.81-1.12-.18-2.2-.01-3.26.51-.38.18-.88.44-1.39.82-8.6,6.26-16.22,5.5-22.65-2.23-2.04-2.46-4.06-5.34-5.99-8.58-1.33-2.22-2.85-3.95-4.53-5.13-1.35-.95-2.82-1.56-4.35-1.81h0Z"/>
          <path class="cls-27" d="m55.2,6.18c-.22-.03-.44-.06-.66-.08-3.21-.28-6.76.97-10.25,3.64-6.98,5.34-12.5,7.86-16.87,7.72-1.76-.05-3.29-.34-4.67-.86C13.01,12.92,4.21,10.05,1.14,9.57c-.06,0-.13-.01-.17-.02l-.02.09c2.89.4,11.83,3.3,21.77,7.06,1.38.52,2.91.8,4.68.86,4.39.14,9.92-2.39,16.91-7.74,2.2-1.68,6.43-4.27,10.91-3.56,2.97.47,6.04,2.39,8.71,6.98,1.91,3.29,3.91,6.18,5.97,8.62,2.04,2.42,4.23,4.16,6.52,5.19,1.99.88,4.09,1.25,6.25,1.08,3.16-.26,6.46-1.63,10.07-4.21.4-.29.85-.54,1.39-.79,2.35-1.08,4.8-.42,7.71,2.09,2.65,2.27,5.37,5.76,8.51,9.79.51.65,1.02,1.31,1.55,1.98,2.41,3.06,3.81,4.29,5.02,4.43,1.23.14,2.23-.88,3.75-2.42,1.54-1.56,3.65-3.69,7.09-5.71,1.36-.8,2.91-1.17,4.86-1.17,5.31,0,9.74,3.43,12.38,5.48.42.32.78.6,1.1.84.89.64,1.68,1.27,2.38,1.82,2.39,1.88,4.11,3.24,7.13,3.54,1.61.16,3.45.07,5.65-.26,2.14-.33,4.55-.9,7.38-1.73,2.54-.75,4.76-1.17,6.74-1.3,4.22-.28,8.16,1.69,10.73,3.39,2.78,1.84,4.6,3.79,4.6,3.79l.05-.07s-1.83-1.96-4.62-3.8c-1.63-1.08-3.29-1.92-4.9-2.5-2.02-.72-4-1.02-5.87-.9-2,.13-4.21.55-6.76,1.3-5.71,1.67-9.84,2.3-13,1.99-3-.3-4.73-1.65-7.11-3.53-.69-.54-1.49-1.17-2.38-1.82-.32-.24-.68-.51-1.1-.84-2.3-1.78-5.96-4.62-10.39-5.32-.66-.11-1.34-.17-2.03-.16-1.97,0-3.52.37-4.89,1.19-3.45,2.03-5.56,4.16-7.11,5.73-3.04,3.07-3.95,3.99-8.66-2-.53-.67-1.05-1.34-1.55-1.98-3.14-4.03-5.86-7.51-8.52-9.8-2.94-2.52-5.41-3.19-7.78-2.1-.54.26-.99.51-1.4.8-4.74,3.38-9.07,4.75-13.07,4.11-3.46-.55-6.68-2.6-9.67-6.16-2.05-2.44-4.05-5.33-5.96-8.61-1.31-2.25-2.81-3.99-4.46-5.17-1.34-.97-2.81-1.57-4.35-1.82h.02Z"/>
          <path class="cls-29" d="m54.88,5.87c-.21-.04-.42-.06-.64-.08-1.65-.16-3.4.1-5.21.76-1.67.61-3.4,1.56-5.11,2.82-7.29,5.36-12.68,7.89-16.97,7.96-1.79.04-3.35-.19-4.74-.67-1.03-.36-2.05-.71-3.03-1.06C10.05,12.39,2.8,9.84.54,9.48l-.1-.02-.02.09c2.14.3,9.46,2.86,18.73,6.12.99.35,1.99.71,3.03,1.07,1.4.49,2.96.72,4.76.68,4.3-.08,9.7-2.61,17-7.97,7.9-5.81,15.05-4.53,19.61,3.53,1.89,3.33,3.89,6.23,5.95,8.65,2.04,2.38,4.24,4.08,6.54,5.07,2,.86,4.11,1.19,6.28,1,1.81-.16,3.68-.68,5.6-1.57,1.44-.67,2.92-1.53,4.51-2.64.41-.3.86-.54,1.4-.77,2.21-.95,4.52-.34,7.24,1.96,2.48,2.08,5.02,5.25,7.96,8.91.85,1.05,1.72,2.14,2.61,3.23,2.42,2.95,3.92,4.18,5.18,4.28,1.27.08,2.3-.95,3.85-2.51,1.54-1.55,3.64-3.66,7.01-5.64,1.38-.81,2.93-1.16,4.88-1.11,5.18.15,9.59,3.76,12.23,5.91.45.37.84.69,1.18.95.28.21.54.42.8.62,3.41,2.62,5.29,4.05,8.95,4.47,3.2.36,7.38-.59,13.09-2.24,2.47-.72,4.75-1.12,6.77-1.19,4.29-.16,8.22,1.87,10.76,3.6,2.75,1.88,4.54,3.84,4.54,3.84l.05-.07s-1.79-1.97-4.55-3.86c-1.62-1.11-3.27-1.98-4.88-2.58-2.02-.76-4.01-1.1-5.91-1.04-2.02.08-4.31.47-6.78,1.19-5.71,1.65-9.87,2.6-13.07,2.24-3.64-.42-5.51-1.85-8.91-4.46-.26-.2-.53-.4-.8-.62-.34-.26-.73-.58-1.18-.95-2.64-2.15-7.07-5.77-12.27-5.92-1.96-.06-3.52.3-4.92,1.12-3.37,1.98-5.49,4.1-7.03,5.66-3.07,3.09-4.09,4.13-8.93-1.76-.9-1.09-1.77-2.17-2.61-3.22-2.95-3.67-5.49-6.84-7.97-8.92-1.61-1.34-3.07-2.12-4.45-2.34-.98-.16-1.93-.03-2.87.37-.55.24-1,.48-1.41.77-8.93,6.25-16.41,5.63-22.84-1.87-2.06-2.4-4.06-5.31-5.94-8.63-1.29-2.27-2.76-4.02-4.4-5.21-1.33-.97-2.79-1.59-4.34-1.84v.02Z"/>
          <path class="cls-28" d="m54.56,5.54c-.2-.04-.41-.06-.62-.08-1.63-.15-3.39.09-5.22.75-1.68.6-3.42,1.54-5.18,2.78-5.47,3.86-11.77,7.85-17.05,8.21-1.83.13-3.41-.04-4.82-.49-5.09-1.65-9.7-3.29-13.41-4.59C4.04,10.61.98,9.53-.11,9.38l-.02.09c1.09.15,4.14,1.24,8.37,2.73,3.7,1.31,8.32,2.94,13.41,4.59,1.42.46,3,.62,4.83.49,2.29-.15,4.9-.99,7.99-2.55,2.58-1.3,5.47-3.11,9.1-5.67,2.74-1.93,6.85-4.07,11-3.41,3.02.48,6.06,2.44,8.59,7.05,1.86,3.37,3.86,6.29,5.93,8.68,2.04,2.33,4.24,4.01,6.55,4.97,2,.83,4.13,1.14,6.32.93,1.81-.17,3.7-.72,5.64-1.6,1.43-.66,2.91-1.51,4.52-2.61.42-.28.88-.53,1.4-.74,2.09-.84,4.27-.25,6.84,1.87,2.34,1.92,4.84,4.98,7.49,8.21,1.14,1.38,2.31,2.81,3.53,4.24,2.47,2.88,4.02,4.07,5.35,4.11,1.31.04,2.36-1.01,3.94-2.6,1.53-1.54,3.63-3.65,6.93-5.57,1.4-.82,2.96-1.15,4.89-1.04,5.05.29,9.46,4.08,12.08,6.34.48.42.9.78,1.26,1.07,1.78,1.42,3.37,2.65,4.94,3.46,1.55.81,3.11,1.21,5.05,1.34,3.4.21,7.97-1,13.15-2.48,2.43-.69,4.72-1.05,6.79-1.08,4.35-.05,8.26,2.05,10.78,3.82,2.74,1.91,4.47,3.89,4.47,3.89l.05-.07s-1.74-1.98-4.48-3.9c-1.61-1.13-3.25-2.02-4.87-2.66-2.03-.8-4.03-1.19-5.96-1.17-2.08.03-4.37.39-6.81,1.09-5.17,1.48-9.74,2.68-13.12,2.48-4.08-.26-6.22-1.82-9.95-4.79-.36-.29-.78-.65-1.26-1.07-1.31-1.13-3.11-2.67-5.16-3.93-2.45-1.51-4.73-2.3-6.96-2.43-1.94-.11-3.51.22-4.93,1.05-3.31,1.93-5.41,4.04-6.95,5.58-1.57,1.58-2.6,2.62-3.89,2.58-1.31-.05-2.85-1.23-5.3-4.09-1.22-1.43-2.4-2.85-3.53-4.24-2.66-3.23-5.15-6.29-7.5-8.22-1.53-1.27-2.92-1.99-4.24-2.2-.91-.15-1.8-.03-2.67.31-.53.2-1,.45-1.42.74-9.05,6.2-16.54,5.64-22.93-1.69-2.06-2.38-4.05-5.3-5.91-8.66-2.29-4.16-5.2-6.55-8.65-7.1v.02Z"/>
          <path class="cls-26" d="m54.24,5.18c-.19-.03-.4-.06-.59-.07-3.13-.3-6.66.87-10.49,3.46-5.59,3.78-11.98,7.86-17.14,8.45-1.86.21-3.46.11-4.88-.32-6.58-1.97-12.49-4.16-16.41-5.62C1.95,10.05.1,9.36-.62,9.25h-.03s-.02.08-.02.08h.03c.72.12,2.67.85,5.34,1.84,3.92,1.46,9.83,3.66,16.41,5.62,1.44.43,3.04.52,4.91.31,2.28-.26,4.92-1.2,8.08-2.85,3.08-1.62,6.32-3.74,9.09-5.61,5.87-3.98,14.04-6.56,19.57,3.74,1.84,3.42,3.82,6.35,5.9,8.71,2.04,2.3,4.24,3.94,6.57,4.86,2.01.8,4.15,1.09,6.35.86,4.16-.43,7.81-2.6,10.19-4.2.43-.29.9-.53,1.42-.72,1.99-.74,4.06-.16,6.49,1.83,2.21,1.81,4.57,4.64,7.07,7.65,1.38,1.66,2.8,3.38,4.34,5.09,5.11,5.72,6.41,4.41,9.54,1.27,1.61-1.61,3.61-3.62,6.84-5.5,1.43-.82,2.99-1.14,4.91-.96,4.94.44,9.33,4.4,11.95,6.78.51.47.96.87,1.34,1.19,2.14,1.79,3.6,2.79,5.01,3.44,1.56.73,3.17,1.06,5.21,1.08,3.41.03,7.95-1.25,13.21-2.73,2.41-.67,4.71-1,6.82-.97,4.41.06,8.31,2.22,10.81,4.03,2.71,1.96,4.4,3.95,4.4,3.95l.05-.07s-1.69-2-4.41-3.96c-1.59-1.15-3.22-2.08-4.84-2.75-2.03-.84-4.05-1.27-6-1.3-2.12-.03-4.43.3-6.83.98-5.26,1.48-9.79,2.76-13.19,2.73-4.13-.04-6.48-1.42-10.18-4.51-.38-.32-.83-.72-1.34-1.19-1.31-1.19-3.1-2.81-5.14-4.15-2.42-1.59-4.66-2.46-6.84-2.66-1.93-.17-3.5.13-4.95.97-3.24,1.88-5.25,3.89-6.87,5.51-1.54,1.55-2.66,2.66-3.99,2.66-.69,0-1.42-.28-2.28-.9-.88-.62-1.91-1.62-3.18-3.04-1.53-1.71-2.96-3.43-4.34-5.09-2.5-3.01-4.85-5.85-7.08-7.66-1.46-1.2-2.8-1.88-4.06-2.08-.85-.13-1.67-.05-2.48.25-.52.2-.99.44-1.43.73-3.36,2.25-13.61,9.13-23.02-1.51-2.08-2.35-4.06-5.27-5.89-8.69-2.25-4.19-5.14-6.6-8.58-7.14h-.03Z"/>
          <path class="cls-30" d="m53.96,4.84c-.19-.02-.38-.05-.57-.07-3.07-.3-6.63.84-10.56,3.38-6.26,4.05-12.18,7.88-17.23,8.7-1.89.31-3.51.26-4.95-.13-7.55-2.06-14.12-4.67-18.05-6.23-1.99-.78-3.29-1.3-3.74-1.36l-.02.09c.45.06,1.75.57,3.73,1.36,3.93,1.56,10.5,4.17,18.05,6.23,1.45.39,3.08.43,4.98.13,2.29-.37,4.89-1.37,8.18-3.15,2.94-1.59,6.06-3.61,9.07-5.56,8.7-5.62,15.27-4.33,19.55,3.85,1.81,3.46,3.79,6.4,5.88,8.73,2.04,2.26,4.25,3.86,6.58,4.76,2.02.77,4.16,1.03,6.39.78,4.14-.47,7.82-2.62,10.22-4.2.45-.3.91-.52,1.43-.7,1.9-.66,3.86-.09,6.18,1.79,2.1,1.71,4.34,4.37,6.7,7.19,1.6,1.91,3.25,3.88,5.06,5.81,2.53,2.7,4.24,3.85,5.68,3.8,1.4-.05,2.55-1.19,4.13-2.77,1.6-1.6,3.6-3.61,6.76-5.42,1.43-.82,3.05-1.12,4.92-.9,4.81.57,9.19,4.72,11.8,7.21.54.52,1.01.96,1.41,1.31,2.02,1.76,3.55,2.78,5.09,3.42,1.58.65,3.23.91,5.36.82,3.05-.12,6.92-1.21,11.82-2.57.47-.14.96-.27,1.44-.4,2.38-.66,4.69-.95,6.84-.87,4.48.18,8.36,2.41,10.83,4.25,2.68,2,4.34,4,4.34,4l.05-.07s-1.66-2.01-4.34-4.01c-1.58-1.18-3.2-2.13-4.82-2.82-2.03-.87-4.06-1.35-6.04-1.43-2.17-.08-4.48.21-6.86.87-.49.14-.97.27-1.44.4-4.9,1.37-8.77,2.45-11.81,2.57-4.02.16-6.54-.86-10.41-4.22-.4-.34-.87-.78-1.41-1.3-1.37-1.3-3.09-2.93-5.11-4.35-2.24-1.58-4.31-2.5-6.32-2.82-.13-.02-.27-.05-.41-.06-1.88-.23-3.51.07-4.96.91-3.17,1.83-5.17,3.83-6.78,5.44-1.57,1.57-2.71,2.71-4.08,2.75-1.42.05-3.1-1.08-5.63-3.78-1.81-1.93-3.47-3.9-5.06-5.81-2.37-2.82-4.6-5.48-6.71-7.19-2.33-1.89-4.31-2.47-6.23-1.8-.52.18-.99.41-1.44.7-3.41,2.23-13.78,9.04-23.12-1.33-2.09-2.33-4.06-5.25-5.87-8.72-1.21-2.31-2.63-4.1-4.2-5.31-1.31-1-2.75-1.62-4.3-1.87v-.02Z"/>
          <path class="cls-31" d="m53.66,4.51c-.18-.03-.37-.06-.56-.07-1.6-.16-3.37.08-5.25.7-1.68.56-3.49,1.44-5.4,2.62-.76.47-1.52.95-2.27,1.41-5.44,3.39-10.57,6.61-15.04,7.53-1.93.4-3.58.42-5.03.05C11.77,14.67,4.7,11.66.91,10.04c-1.38-.58-2.29-.97-2.58-1.02h0l-.02.09c.27.04,1.18.43,2.57,1.02,3.8,1.62,10.87,4.63,19.21,6.71,1.47.36,3.13.34,5.06-.05,4.49-.92,9.63-4.14,15.07-7.54.75-.46,1.51-.94,2.27-1.41,8.97-5.54,15.36-4.25,19.53,3.96,1.79,3.51,3.75,6.47,5.85,8.76,2.03,2.22,4.25,3.79,6.6,4.65,2.02.74,4.18.98,6.42.71,1.82-.22,3.75-.79,5.73-1.68,1.86-.83,3.48-1.83,4.54-2.52.45-.3.92-.51,1.43-.68,1.82-.58,3.69,0,5.9,1.78,2,1.62,4.13,4.14,6.37,6.8,1.78,2.13,3.64,4.32,5.71,6.44,2.58,2.65,4.33,3.74,5.84,3.64,1.45-.09,2.61-1.25,4.23-2.86,1.6-1.59,3.58-3.58,6.68-5.34,1.52-.87,3.19-1.15,4.94-.83,4.73.87,9.13,5.17,11.76,7.74.54.52,1,.97,1.39,1.32,1.93,1.75,3.53,2.8,5.17,3.4,1.6.58,3.3.76,5.52.56,2.71-.24,5.97-1.15,10.1-2.32,1.03-.29,2.1-.59,3.22-.9,2.36-.64,4.67-.9,6.87-.76,4.53.29,8.41,2.58,10.85,4.46,2.65,2.03,4.27,4.05,4.27,4.05l.05-.06s-1.62-2.02-4.28-4.06c-1.56-1.2-3.17-2.18-4.8-2.91-2.03-.92-4.08-1.44-6.09-1.57-2.21-.14-4.53.11-6.89.77-1.13.31-2.19.61-3.22.9-4.12,1.16-7.38,2.08-10.09,2.32-4.28.38-6.96-.62-10.64-3.94-.39-.36-.85-.8-1.39-1.32-1.3-1.29-3.1-3.04-5.12-4.54-2.39-1.79-4.58-2.83-6.67-3.22-1.77-.32-3.44-.04-4.98.84-3.1,1.78-5.09,3.76-6.69,5.36s-2.76,2.75-4.19,2.84c-1.5.09-3.22-1-5.8-3.63-2.07-2.11-3.92-4.31-5.71-6.43-2.25-2.66-4.37-5.18-6.38-6.81-2.22-1.8-4.11-2.38-5.95-1.79-.51.16-.99.39-1.45.68-5.99,3.86-14.92,7.92-23.21-1.14-2.1-2.29-4.07-5.23-5.85-8.74-1.19-2.33-2.58-4.12-4.14-5.35-1.29-1.01-2.73-1.64-4.28-1.89h0Z"/>
          <path class="cls-32" d="m53.41,4.21c-.17-.03-.36-.06-.54-.07-3-.3-6.51.76-10.73,3.25-1.36.8-2.74,1.65-4.07,2.47-4.78,2.94-9.3,5.72-13.33,6.72-1.96.49-3.63.58-5.1.24C10.51,14.77,2.78,11.2-.52,9.66c-.92-.42-1.48-.68-1.64-.71h0l-.02.09h0c.15.03.74.3,1.62.71,3.31,1.53,11.04,5.12,20.17,7.15,1.48.34,3.16.25,5.13-.24,4.04-1.01,8.57-3.78,13.35-6.73,1.33-.82,2.71-1.67,4.07-2.47,4.41-2.6,8.14-3.67,11.27-3.17,3.42.54,6.12,2.94,8.24,7.23,1.76,3.56,3.72,6.51,5.83,8.78,2.03,2.18,4.26,3.71,6.62,4.54,2.03.71,4.2.93,6.46.64,4.03-.52,7.63-2.52,10.31-4.2.46-.29.95-.51,1.44-.65,1.74-.51,3.54.07,5.64,1.79,1.91,1.57,3.94,3.96,6.07,6.49,1.96,2.32,3.99,4.73,6.3,6.99,5.49,5.37,7.11,3.75,10.35.53,1.59-1.59,3.56-3.55,6.58-5.28,1.49-.85,3.12-1.1,4.95-.76,4.59.83,8.76,5.18,11.53,8.06.59.62,1.11,1.15,1.54,1.56,1.86,1.75,3.53,2.82,5.25,3.38,1.62.51,3.37.61,5.67.3,2.38-.32,5.1-1.11,8.55-2.1,1.51-.44,3.09-.89,4.83-1.37,2.34-.63,4.66-.86,6.89-.66,4.6.4,8.45,2.77,10.88,4.68,2.63,2.07,4.21,4.09,4.21,4.09l.05-.06s-1.58-2.03-4.21-4.1c-1.55-1.22-3.15-2.23-4.78-2.99-2.04-.96-4.1-1.53-6.14-1.71-2.24-.19-4.57.02-6.91.66-1.73.47-3.3.93-4.83,1.37-3.45.99-6.16,1.78-8.54,2.1-4.51.61-7.35-.35-10.86-3.66-.44-.4-.95-.94-1.54-1.56-1.38-1.43-3.09-3.21-5.07-4.78-2.34-1.85-4.47-2.92-6.5-3.3-.07-.02-.14-.02-.21-.04-1.77-.28-3.33-.02-4.79.8-3.03,1.72-5.01,3.69-6.6,5.28-1.63,1.62-2.81,2.8-4.29,2.93-1.55.14-3.35-.9-5.97-3.47-2.31-2.26-4.34-4.66-6.3-6.98-2.14-2.54-4.17-4.93-6.08-6.5-1.35-1.1-2.57-1.73-3.74-1.92-.68-.11-1.32-.07-1.97.12-.51.15-1,.37-1.47.66-6.07,3.82-15.09,7.86-23.3-.96-2.1-2.26-4.06-5.21-5.82-8.76-1.17-2.35-2.54-4.15-4.08-5.38-1.28-1.01-2.71-1.64-4.26-1.89h.04Z"/>
          <path class="cls-34" d="m53.08,3.9c-.17-.03-.34-.05-.52-.07-1.6-.16-3.32.06-5.27.67-1.67.53-3.48,1.34-5.54,2.49-1.82,1.02-3.69,2.16-5.49,3.26-4.28,2.61-8.33,5.09-12,6.17-1.99.58-3.69.72-5.17.42C9.09,14.83.83,10.63-1.88,9.25c-.54-.28-.76-.39-.82-.4h0l-.02.09h0c.05,0,.36.16.8.39,1.3.67,4.03,2.06,7.7,3.54,4.55,1.84,9.01,3.21,13.28,4.06,1.49.3,3.2.16,5.2-.42,3.69-1.08,7.73-3.56,12.02-6.18,1.8-1.1,3.65-2.24,5.49-3.26,3.52-1.97,7.52-3.69,11.25-3.1,3.06.48,5.94,2.53,8.23,7.26,1.73,3.6,3.69,6.56,5.81,8.81,2.04,2.14,4.27,3.63,6.64,4.43,2.04.68,4.22.87,6.49.56,1.84-.26,3.79-.84,5.8-1.74,1.78-.81,3.37-1.74,4.55-2.47.48-.29.97-.5,1.46-.63,1.68-.43,3.41.15,5.44,1.81,1.84,1.51,3.78,3.81,5.83,6.24,2,2.38,4.27,5.07,6.8,7.44,1.38,1.29,2.55,2.18,3.56,2.71.97.51,1.82.71,2.63.61,1.54-.18,2.82-1.44,4.42-3.04,1.58-1.57,3.54-3.52,6.5-5.19,1.52-.86,3.15-1.08,4.97-.69,4.49.96,8.65,5.48,11.41,8.47.62.67,1.16,1.25,1.6,1.69,1.82,1.79,3.51,2.86,5.32,3.36,1.64.46,3.44.47,5.82.04,2.06-.38,4.43-1.08,7.19-1.91,1.84-.56,3.94-1.18,6.25-1.8,2.32-.62,4.64-.81,6.92-.55,4.65.53,8.5,2.96,10.9,4.9,2.61,2.11,4.14,4.14,4.14,4.14l.06-.06s-1.54-2.03-4.15-4.15c-1.53-1.24-3.14-2.27-4.76-3.07-2.04-.99-4.11-1.61-6.18-1.85-2.28-.26-4.61-.07-6.94.55-2.31.61-4.41,1.24-6.26,1.8-2.75.83-5.12,1.53-7.19,1.91-4.09.73-7.21.42-11.09-3.38-.45-.43-.98-1.02-1.6-1.69-1.37-1.49-3.08-3.35-5.04-4.99-2.32-1.93-4.41-3.08-6.4-3.51-.87-.18-1.72-.23-2.51-.13-.86.11-1.71.39-2.5.83-2.97,1.68-4.94,3.64-6.52,5.21-1.6,1.58-2.85,2.83-4.38,3.01-1.6.18-3.49-.83-6.14-3.3-2.52-2.37-4.79-5.06-6.79-7.43-2.06-2.44-3.99-4.74-5.84-6.25-2.04-1.69-3.79-2.27-5.49-1.82-.5.13-.99.34-1.47.64-2.68,1.65-8.37,5.15-14.6,4.16-2.9-.46-5.92-1.9-8.8-4.94-2.13-2.24-4.07-5.2-5.8-8.79-1.14-2.37-2.49-4.19-4.02-5.41-1.26-1.01-2.69-1.65-4.23-1.9h.02Z"/>
          <path class="cls-33" d="m52.8,3.59c-1.1-.17-2.27-.15-3.54.05-4.56.74-9.64,3.86-14.54,6.88-5.94,3.65-11.55,7.1-16.04,6.39l-.14-.03c-6.22-1.12-11.81-3.26-15.41-4.87-3.9-1.74-6.38-3.25-6.38-3.25l-.04.08s2.49,1.52,6.39,3.25c2.29,1.01,4.62,1.92,6.93,2.69,2.89.95,5.74,1.69,8.49,2.18,1.09.19,2.28.15,3.62-.14,1.2-.26,2.5-.7,3.97-1.37,2.75-1.25,5.61-3,8.63-4.86,4.89-3.02,9.95-6.13,14.51-6.88,5.14-.85,8.93,1.52,11.61,7.24,1.17,2.47,2.43,4.64,3.78,6.45,1.26,1.69,2.6,3.1,4.02,4.2,2.49,1.95,5.25,3.01,8.21,3.15,2.35.12,4.89-.36,7.55-1.39,2.21-.85,4.19-1.98,5.82-2.96,4.12-2.47,7.7,1.81,12.24,7.21,2.14,2.55,4.57,5.44,7.33,7.9,2.71,2.42,4.66,3.4,6.34,3.16,1.59-.23,2.88-1.51,4.52-3.12,1.57-1.56,3.53-3.5,6.43-5.12,2.6-1.45,5.62-1.02,8.98,1.3,2.85,1.96,5.41,4.86,7.28,6.98.65.73,1.2,1.36,1.66,1.83,5.15,5.25,9.49,3.87,17.37,1.39,2.19-.69,4.67-1.47,7.51-2.23,6.72-1.77,12.32.73,15.84,3.15,3.82,2.61,6.1,5.72,6.1,5.72l.06-.06s-2.28-3.12-6.11-5.74c-2.25-1.54-4.58-2.62-6.95-3.22-2.95-.74-5.96-.72-8.94.06-2.84.75-5.32,1.53-7.51,2.23-7.86,2.48-12.18,3.85-17.31-1.36-.46-.46-1.01-1.09-1.66-1.83-1.88-2.12-4.44-5.02-7.29-6.99-1.56-1.07-3.06-1.75-4.46-2.02-1.63-.31-3.17-.06-4.59.73-2.91,1.62-4.87,3.57-6.45,5.13-3.28,3.25-5.09,5.04-10.78-.05-2.76-2.46-5.18-5.35-7.32-7.9-2.3-2.75-4.3-5.12-6.29-6.56-1.02-.74-1.98-1.17-2.9-1.32-1.07-.17-2.1.06-3.13.68-5.31,3.19-19.39,11.63-29.26-9.42-.73-1.56-1.56-2.89-2.45-3.95-.85-1.02-1.79-1.81-2.8-2.38-.9-.51-1.86-.84-2.89-1.01v.03Z"/>
        </g>
      </g>
    </g>
  </g>
</svg>